<?xml version="1.0" standalone="no"?>
<!DOCTYPE svg PUBLIC "-//W3C//DTD SVG 20010904//EN"
 "http://www.w3.org/TR/2001/REC-SVG-20010904/DTD/svg10.dtd">
<svg version="1.0" xmlns="http://www.w3.org/2000/svg"
 width="1042.000000pt" height="830.000000pt" viewBox="0 0 1042.000000 830.000000"
 preserveAspectRatio="xMidYMid meet">

<g transform="translate(0.000000,830.000000) scale(0.100000,-0.100000)"
fill="#000000" stroke="none">
<path d="M0 4150 l0 -4150 5210 0 5210 0 0 4150 0 4150 -5210 0 -5210 0 0
-4150z m2328 3997 c2 -10 -3 -17 -12 -17 -18 0 -29 16 -21 31 9 14 29 6 33
-14z m-1258 -37 c0 -29 -4 -40 -15 -40 -11 0 -15 11 -15 40 0 29 4 40 15 40
11 0 15 -11 15 -40z m60 0 c0 -40 -13 -53 -24 -24 -11 29 -7 64 9 64 11 0 15
-11 15 -40z m1000 -34 c0 -94 5 -106 41 -106 19 0 29 -5 29 -15 0 -18 -41 -20
-71 -5 -16 9 -19 22 -19 95 l0 85 -30 0 c-16 0 -30 5 -30 10 0 6 18 10 40 10
l40 0 0 -74z m700 49 c0 -21 5 -25 30 -25 17 0 30 -4 30 -10 0 -5 -13 -10 -30
-10 -30 0 -30 -1 -30 -55 0 -54 0 -55 30 -55 20 0 30 -5 30 -15 0 -20 -54 -20
-74 1 -11 10 -16 34 -16 70 0 47 -2 54 -20 54 -11 0 -20 5 -20 10 0 6 9 10 20
10 15 0 20 7 20 25 0 16 6 25 15 25 9 0 15 -9 15 -25z m160 16 c0 -25 -14 -71
-21 -71 -5 0 -9 18 -9 40 0 29 4 40 15 40 8 0 15 -4 15 -9z m60 -31 c0 -29 -4
-40 -15 -40 -11 0 -15 11 -15 40 0 29 4 40 15 40 11 0 15 -11 15 -40z m148
-28 c3 -17 -2 -22 -18 -22 -25 0 -38 29 -19 41 20 13 34 6 37 -19z m-1966 -43
c5 -112 68 -104 68 8 0 29 5 53 10 53 17 0 12 -126 -6 -144 -23 -24 -70 -20
-88 6 -21 30 -22 138 -1 138 10 0 15 -16 17 -61z m242 55 c9 -3 16 -12 16 -20
0 -17 -12 -18 -27 -3 -15 15 -58 7 -58 -10 0 -8 15 -19 35 -23 81 -21 77 -98
-5 -98 -38 0 -72 27 -56 43 6 6 15 4 26 -7 18 -18 33 -20 54 -7 23 14 5 38
-33 45 -41 8 -57 31 -45 64 6 17 16 22 43 22 19 0 41 -3 50 -6z m186 -13 c5
-11 10 -29 10 -40 0 -17 -8 -20 -47 -23 -51 -3 -61 -14 -39 -43 12 -17 17 -17
45 -5 37 15 55 5 27 -16 -26 -19 -71 -18 -90 2 -18 18 -22 95 -6 125 8 14 21
19 50 19 29 0 42 -5 50 -19z m348 7 c7 -7 12 -18 12 -25 0 -18 -27 -16 -34 2
-7 18 -37 20 -54 3 -20 -20 -15 -86 7 -98 21 -10 51 -4 51 11 0 5 7 9 15 9 8
0 15 -4 15 -9 0 -19 -32 -41 -60 -41 -43 0 -60 23 -60 84 0 61 11 76 60 76 20
0 41 -5 48 -12z m322 -53 c0 -63 1 -65 25 -65 16 0 25 -6 25 -15 0 -12 -15
-15 -71 -15 -52 0 -70 3 -67 13 3 6 17 13 31 15 26 3 27 6 27 58 0 51 -1 54
-25 54 -14 0 -25 5 -25 10 0 6 18 10 40 10 l40 0 0 -65z m200 46 c5 -11 10
-29 10 -40 0 -17 -8 -20 -47 -23 -51 -3 -61 -14 -39 -43 12 -17 17 -17 45 -5
37 15 55 5 27 -16 -26 -19 -71 -18 -90 2 -18 18 -22 95 -6 125 8 14 21 19 50
19 29 0 42 -5 50 -19z m177 -11 c19 -37 17 -130 -2 -130 -11 0 -15 13 -15 54
0 66 -7 86 -29 86 -30 0 -41 -22 -41 -82 0 -45 -3 -58 -15 -58 -12 0 -15 15
-15 79 l0 79 52 -1 c45 -2 54 -6 65 -27z m493 -86 c0 -31 -25 -94 -37 -94 -12
0 -14 8 -9 38 3 20 6 43 6 50 0 6 9 12 20 12 11 0 20 -3 20 -6z m390 -248 c0
-8 -9 -18 -20 -21 -16 -5 -20 -15 -20 -50 0 -24 -5 -47 -11 -51 -8 -4 -8 -9 0
-17 6 -6 11 -30 11 -54 0 -36 3 -43 20 -43 11 0 20 -7 20 -15 0 -18 -41 -20
-58 -3 -7 7 -12 34 -12 60 0 47 -1 48 -30 48 -39 0 -41 27 -2 32 25 3 27 7 32
58 4 47 8 55 30 61 38 10 40 10 40 -5z m6728 -9 c9 -7 12 -27 10 -56 -3 -45
-3 -46 30 -49 19 -2 32 -9 32 -17 0 -8 -13 -15 -32 -17 -32 -3 -33 -4 -30 -46
4 -49 -10 -72 -44 -72 -29 0 -32 26 -4 33 16 4 18 11 13 41 -3 21 -1 42 6 50
9 11 9 16 0 21 -7 5 -9 23 -5 51 5 37 3 44 -14 49 -11 4 -20 13 -20 21 0 17
33 11 58 -9z m-9210 -19 c-3 -7 -11 -13 -18 -13 -7 0 -15 6 -17 13 -3 7 4 12
17 12 13 0 20 -5 18 -12z m1254 -18 c23 -29 23 -55 -2 -80 l-20 -20 20 -40
c25 -48 25 -50 1 -50 -13 0 -24 14 -35 45 -10 25 -24 45 -32 45 -10 0 -14 -13
-14 -45 0 -38 -3 -45 -20 -45 -19 0 -20 7 -20 103 0 57 3 107 8 111 15 16 96
-1 114 -24z m2098 15 c0 -11 -12 -15 -45 -15 -43 0 -45 -1 -45 -30 0 -28 2
-30 40 -30 29 0 40 -4 40 -15 0 -11 -11 -15 -40 -15 -39 0 -40 -1 -40 -35 0
-35 0 -35 45 -35 33 0 45 -4 45 -15 0 -12 -13 -15 -60 -15 l-60 0 0 110 0 110
60 0 c47 0 60 -3 60 -15z m180 1 c0 -9 -12 -16 -27 -18 -20 -2 -29 -9 -31 -25
-3 -20 1 -23 27 -23 21 0 31 -5 31 -15 0 -10 -10 -15 -30 -15 -30 0 -30 -1
-30 -55 0 -48 -2 -55 -20 -55 -18 0 -20 7 -20 55 0 48 -2 55 -20 55 -11 0 -20
7 -20 15 0 8 9 15 20 15 13 0 20 7 20 20 0 11 9 29 20 40 23 23 80 27 80 6z
m170 0 c0 -9 -12 -16 -27 -18 -20 -2 -29 -9 -31 -25 -3 -20 1 -23 27 -23 21 0
31 -5 31 -15 0 -10 -10 -15 -30 -15 -30 0 -30 -1 -30 -55 0 -42 -3 -55 -15
-55 -12 0 -15 13 -15 55 0 52 -1 55 -25 55 -16 0 -25 6 -25 15 0 9 9 15 25 15
21 0 25 5 25 30 0 33 21 49 63 50 17 0 27 -5 27 -14z m3120 -11 c24 -22 26
-62 4 -86 -16 -18 -15 -27 11 -91 5 -13 2 -18 -9 -18 -9 0 -26 19 -38 45 -12
25 -28 45 -35 45 -9 0 -13 -15 -13 -45 0 -33 -4 -45 -15 -45 -12 0 -15 19 -15
111 l0 112 45 -6 c25 -2 55 -13 65 -22z m370 10 c0 -9 -9 -15 -24 -15 -26 0
-51 -24 -41 -40 3 -5 19 -10 36 -10 19 0 29 -5 29 -15 0 -10 -11 -15 -35 -15
l-35 0 0 -55 c0 -42 -3 -55 -15 -55 -12 0 -15 13 -15 55 0 48 -2 55 -20 55
-11 0 -20 7 -20 15 0 8 9 15 20 15 14 0 20 7 20 23 0 39 20 55 73 56 18 1 27
-4 27 -14z m1012 3 c25 -21 30 -48 9 -48 -10 0 -21 7 -25 15 -3 8 -12 15 -19
15 -8 0 -20 -7 -27 -15 -17 -20 1 -41 41 -50 47 -11 67 -76 33 -109 -32 -33
-114 -11 -114 30 0 19 26 18 34 -2 9 -25 60 -14 64 14 3 18 -5 26 -41 41 -60
26 -74 64 -37 101 23 23 59 26 82 8z m-6310 -20 c2 -18 11 -24 36 -26 42 -4
37 -26 -7 -30 -32 -3 -32 -4 -29 -50 3 -45 4 -47 36 -50 48 -5 43 -32 -6 -32
-51 0 -62 14 -62 77 0 46 -3 53 -20 53 -11 0 -20 7 -20 15 0 8 9 15 20 15 15
0 20 7 20 25 0 32 27 34 32 3z m2268 -3 c0 -21 5 -25 30 -25 20 0 30 -5 30
-15 0 -10 -10 -15 -30 -15 -29 0 -30 -1 -30 -50 0 -49 1 -50 30 -50 20 0 30
-5 30 -15 0 -19 -60 -21 -78 -3 -7 7 -12 36 -12 64 0 46 -3 53 -22 56 -30 4
-34 26 -6 30 15 2 24 11 26 26 5 31 32 29 32 -3z m1020 16 c0 -5 5 -22 11 -38
l11 -28 13 35 c8 23 19 36 33 38 21 3 22 0 22 -102 0 -88 -3 -106 -15 -106
-12 0 -15 16 -16 83 -1 72 -2 78 -12 49 -13 -42 -36 -39 -53 8 -12 33 -13 30
-13 -52 -1 -52 -5 -88 -11 -88 -6 0 -10 42 -10 105 0 98 1 105 20 105 11 0 20
-4 20 -9z m3160 -16 c0 -21 5 -25 30 -25 20 0 30 -5 30 -15 0 -10 -10 -15 -30
-15 -29 0 -30 -1 -30 -50 0 -49 1 -50 30 -50 20 0 30 -5 30 -15 0 -19 -60 -21
-78 -3 -7 7 -12 36 -12 64 0 46 -3 53 -22 56 -30 4 -34 26 -6 30 15 2 24 11
26 26 5 31 32 29 32 -3z m350 0 c0 -21 5 -25 30 -25 20 0 30 -5 30 -15 0 -10
-10 -15 -30 -15 -29 0 -30 -1 -30 -50 0 -49 1 -50 30 -50 20 0 30 -5 30 -15 0
-19 -60 -21 -78 -3 -7 7 -12 36 -12 64 0 46 -3 53 -22 56 -30 4 -34 26 -6 30
15 2 24 11 26 26 5 31 32 29 32 -3z m-9007 -33 l47 -48 -50 -49 c-27 -27 -52
-47 -55 -44 -2 3 16 25 40 49 l45 44 -47 48 c-26 26 -43 48 -37 48 5 0 31 -22
57 -48z m1157 28 c0 -16 7 -20 35 -20 44 0 46 -18 3 -22 -31 -3 -33 -6 -36
-46 -4 -50 10 -72 44 -72 13 0 24 -4 24 -10 0 -13 -46 -13 -71 0 -15 9 -19 22
-19 70 0 53 -2 60 -20 60 -11 0 -20 5 -20 10 0 6 9 10 20 10 13 0 20 7 20 20
0 11 5 20 10 20 6 0 10 -9 10 -20z m578 -34 c7 -7 14 -26 15 -42 2 -28 0 -29
-46 -32 -39 -3 -48 -6 -45 -20 4 -21 44 -28 64 -11 19 16 31 3 18 -19 -8 -12
-25 -17 -55 -17 -36 0 -46 4 -57 25 -18 36 -8 101 19 123 24 19 63 16 87 -7z
m180 -3 c6 -9 12 -45 12 -79 l0 -61 -55 -2 c-48 -1 -57 2 -71 24 -15 23 -15
27 0 49 12 18 26 26 56 28 39 3 40 4 26 23 -13 17 -18 18 -35 8 -45 -28 -70
-8 -28 22 26 19 76 13 95 -12z m170 0 c24 -24 25 -28 9 -31 -10 -2 -24 4 -31
13 -9 12 -19 15 -35 10 -19 -6 -22 -13 -19 -53 3 -41 6 -47 26 -50 14 -2 29 4
37 15 10 12 17 15 24 8 19 -19 -16 -55 -53 -55 -52 0 -69 19 -70 80 -1 43 3
55 23 71 32 26 57 24 89 -8z m1224 4 c18 -28 2 -36 -31 -15 -21 13 -55 4 -49
-14 3 -7 18 -15 35 -19 16 -3 35 -9 41 -13 16 -9 15 -59 0 -74 -13 -13 -66
-16 -92 -6 -20 8 -21 44 -1 44 8 0 15 -4 15 -10 0 -5 14 -10 31 -10 42 0 37
34 -6 38 -41 5 -55 19 -55 54 0 20 6 31 23 38 27 12 78 4 89 -13z m171 -9 c9
-11 17 -31 17 -44 0 -22 -4 -24 -51 -24 -43 0 -50 -3 -47 -17 4 -21 43 -29 63
-13 8 6 19 9 25 5 20 -12 -20 -45 -56 -45 -50 0 -65 22 -62 88 3 49 6 58 28
69 30 15 59 8 83 -19z m695 8 c7 -7 14 -26 15 -42 2 -28 0 -29 -46 -32 -39 -3
-48 -6 -45 -20 4 -21 44 -28 64 -11 19 16 31 3 18 -19 -8 -12 -25 -17 -55 -17
-36 0 -46 4 -57 25 -18 36 -8 101 19 123 24 19 63 16 87 -7z m179 2 c16 -13
17 -38 1 -38 -6 0 -20 8 -30 17 -36 32 -69 -13 -54 -73 5 -17 13 -24 32 -24
13 0 27 7 30 15 8 19 34 20 34 1 0 -42 -76 -62 -112 -29 -19 17 -26 96 -10
119 22 33 77 39 109 12z m2417 12 c14 -5 26 -16 26 -25 0 -17 -21 -20 -37 -4
-13 13 -56 2 -50 -14 2 -6 18 -14 35 -18 59 -12 80 -50 46 -83 -18 -19 -85
-21 -102 -4 -17 17 -15 38 3 38 8 0 15 -4 15 -10 0 -5 14 -10 31 -10 41 0 36
32 -7 41 -17 3 -36 9 -42 13 -20 12 -13 54 10 70 26 19 37 20 72 6z m193 -12
c7 -6 13 -26 13 -44 l0 -34 -50 0 c-27 0 -50 -2 -50 -4 0 -34 34 -46 70 -24
24 15 38 3 24 -20 -7 -10 -27 -18 -52 -20 -50 -4 -72 22 -72 84 0 34 5 47 27
64 28 22 63 21 90 -2z m337 1 c17 -14 26 -30 26 -50 0 -28 -1 -29 -51 -29 -43
0 -50 -3 -47 -17 4 -22 44 -29 64 -12 23 19 40 -4 19 -25 -21 -21 -73 -21 -97
1 -21 19 -25 100 -5 125 25 32 56 35 91 7z m878 -1 c26 -26 9 -37 -28 -18 -19
11 -26 11 -39 0 -20 -17 -10 -30 25 -30 16 0 36 -7 44 -16 20 -19 21 -58 2
-73 -21 -18 -97 -10 -110 11 -15 24 0 34 28 19 26 -15 57 -12 63 6 4 11 -4 15
-59 27 -39 9 -49 53 -18 78 30 24 65 23 92 -4z m176 -2 c7 -7 14 -26 15 -42 2
-28 0 -29 -46 -32 -39 -3 -48 -6 -45 -20 4 -21 44 -28 64 -11 19 16 31 3 18
-19 -8 -12 -25 -17 -55 -17 -36 0 -46 4 -57 25 -18 36 -8 101 19 123 24 19 63
16 87 -7z m498 18 c29 -8 44 -44 44 -108 l0 -54 -60 -1 c-55 0 -62 2 -72 24
-17 37 12 75 57 75 24 0 35 5 35 14 0 23 -19 29 -51 16 -38 -16 -51 -4 -20 21
25 20 34 22 67 13z m372 -18 c7 -7 14 -26 15 -42 2 -28 0 -29 -46 -32 -39 -3
-48 -6 -45 -20 4 -21 44 -28 64 -11 19 16 31 3 18 -19 -8 -12 -25 -17 -55 -17
-36 0 -46 4 -57 25 -18 36 -8 101 19 123 24 19 63 16 87 -7z m-8908 -56 c0
-68 1 -70 25 -70 14 0 25 -4 25 -10 0 -6 -28 -10 -65 -10 -37 0 -65 4 -65 10
0 6 11 10 25 10 24 0 25 3 25 60 0 57 -1 60 -25 60 -14 0 -25 5 -25 10 0 6 18
10 40 10 l40 0 0 -70z m218 -12 c2 -47 -1 -78 -7 -78 -6 0 -11 30 -13 68 -2
52 -6 67 -18 67 -12 0 -16 -15 -18 -67 -4 -90 -22 -88 -22 2 0 56 -3 70 -15
70 -12 0 -15 -14 -15 -70 0 -56 -3 -70 -15 -70 -12 0 -15 15 -15 79 l0 78 68
-1 67 -1 3 -77z m149 70 c17 -13 17 -120 1 -136 -7 -7 -21 -12 -33 -12 -12 0
-26 5 -33 12 -9 9 -12 4 -12 -25 0 -20 -4 -37 -10 -37 -6 0 -10 41 -10 103 l0
103 42 1 c23 1 48 -3 55 -9z m177 -4 c22 -21 21 -102 -1 -126 -20 -22 -61 -23
-85 -1 -13 11 -18 30 -18 64 0 55 18 79 60 79 16 0 36 -7 44 -16z m183 5 c14
-12 18 -59 5 -59 -4 0 -12 10 -17 23 -6 12 -20 23 -32 25 -28 4 -43 -29 -43
-94 0 -24 -4 -44 -10 -44 -6 0 -10 33 -10 78 l0 78 47 2 c25 1 52 -3 60 -9z
m2003 -38 c0 -64 7 -81 35 -81 28 0 35 17 35 81 0 37 4 49 15 49 21 0 21 -107
-1 -138 -18 -27 -69 -30 -96 -5 -24 22 -27 143 -3 143 11 0 15 -12 15 -49z
m1920 -15 c0 -50 4 -65 16 -70 30 -11 44 13 44 75 0 46 3 59 15 59 12 0 15
-14 15 -64 0 -73 -14 -96 -60 -96 -46 0 -60 23 -60 96 0 50 3 64 15 64 12 0
15 -14 15 -64z m258 42 c2 -11 -3 -18 -12 -18 -9 0 -16 5 -16 11 0 6 -12 9
-27 7 -39 -4 -36 -31 4 -39 60 -12 81 -50 47 -83 -30 -30 -114 -12 -114 25 0
5 7 9 15 9 8 0 15 -4 15 -9 0 -5 7 -12 16 -15 18 -7 54 10 54 25 0 10 -8 14
-52 23 -35 8 -53 39 -38 67 9 17 19 20 58 17 35 -2 48 -7 50 -20z m170 10 c7
-7 12 -27 12 -45 0 -33 0 -33 -50 -33 -27 0 -50 -4 -50 -9 0 -19 33 -42 49
-35 35 14 51 16 51 6 0 -15 -34 -32 -64 -32 -39 0 -56 25 -56 84 0 61 11 76
60 76 20 0 41 -5 48 -12z m344 -5 c10 -9 18 -29 18 -45 0 -27 -2 -28 -50 -28
-53 0 -65 -15 -35 -40 13 -11 20 -11 39 0 33 17 54 9 32 -13 -21 -21 -65 -22
-92 -3 -23 17 -27 103 -5 129 17 22 69 22 93 0z m196 -65 c2 -47 -1 -78 -7
-78 -6 0 -11 30 -13 68 -2 52 -6 67 -18 67 -12 0 -16 -15 -18 -67 -4 -90 -22
-88 -22 2 0 56 -3 70 -15 70 -12 0 -15 -14 -15 -70 0 -56 -3 -70 -15 -70 -12
0 -15 16 -15 80 l0 80 68 -3 67 -2 3 -77z m156 60 c9 -12 16 -38 16 -58 0 -51
-24 -80 -65 -80 -24 0 -39 7 -49 22 -21 30 -20 96 1 120 23 26 78 24 97 -4z
m446 -44 l0 -65 28 3 c26 3 27 6 30 66 2 46 7 62 17 62 12 0 15 -15 15 -64 0
-78 -15 -99 -69 -94 -44 4 -61 32 -61 106 0 45 3 52 20 52 18 0 20 -7 20 -66z
m1392 4 c3 -60 4 -63 28 -63 24 0 25 3 28 63 3 54 6 62 22 62 17 0 20 -7 20
-52 0 -74 -17 -102 -61 -106 -54 -5 -69 16 -69 94 0 49 3 64 15 64 10 0 15
-16 17 -62z m-5522 -60 c0 -35 -22 -88 -37 -88 -13 0 -14 8 -9 42 4 22 9 45
12 50 8 13 34 10 34 -4z m2257 -29 c-6 -45 -22 -69 -35 -53 -14 15 7 94 25 94
13 0 15 -8 10 -41z m1569 -1 c-8 -50 -13 -58 -32 -58 -12 0 -14 8 -9 38 10 55
13 62 31 62 14 0 15 -7 10 -42z m1391 1 c-6 -45 -22 -69 -35 -53 -14 15 7 94
25 94 13 0 15 -8 10 -41z m-2245 -678 c-30 -27 -32 -34 -32 -96 0 -62 2 -69
30 -93 17 -15 30 -30 30 -34 0 -17 -38 -7 -58 15 -60 63 -53 198 11 237 45 28
58 8 19 -29z m198 30 c0 -5 -9 -11 -20 -14 -16 -4 -20 -14 -20 -50 0 -25 -5
-49 -11 -53 -8 -4 -8 -9 0 -17 6 -6 11 -30 11 -53 0 -34 4 -44 20 -49 21 -7
28 -25 9 -25 -34 0 -49 22 -49 71 0 47 -1 50 -30 56 -16 3 -30 9 -30 14 0 5
14 9 30 9 29 0 30 1 30 48 0 26 5 53 12 60 14 14 48 16 48 3z m-3032 -52 l16
-41 11 38 c8 28 17 40 33 42 22 3 22 1 22 -107 0 -92 -3 -111 -15 -111 -12 0
-15 16 -16 83 0 77 -1 80 -12 47 -7 -19 -18 -35 -26 -35 -8 0 -20 16 -27 35
-12 33 -13 31 -13 -47 -1 -67 -4 -83 -16 -83 -12 0 -15 18 -15 103 0 57 3 107
7 110 16 17 36 4 51 -34z m502 6 c0 -32 2 -35 19 -25 28 14 38 13 61 -10 15
-15 20 -33 20 -69 0 -65 -16 -81 -81 -80 l-49 2 0 108 c0 90 3 109 15 109 11
0 15 -11 15 -35z m528 -28 c3 -65 18 -73 45 -27 11 17 27 30 38 30 21 0 18
-12 -14 -55 -13 -17 -12 -23 9 -57 28 -44 29 -48 9 -48 -8 0 -25 16 -37 35
-30 45 -48 45 -48 0 0 -24 -5 -35 -15 -35 -12 0 -15 19 -15 111 0 84 3 110 13
107 7 -3 13 -27 15 -61z m240 47 c12 -8 22 -22 22 -30 0 -19 -26 -18 -34 2 -3
9 -15 14 -28 12 -34 -5 -30 -40 7 -57 46 -21 65 -42 65 -71 0 -39 -30 -62 -76
-58 -29 2 -42 9 -51 28 -11 21 -10 26 4 29 9 1 20 -4 25 -13 10 -18 53 -22 63
-6 12 19 -6 48 -33 55 -39 10 -62 34 -62 66 0 29 31 59 60 59 9 0 26 -7 38
-16z m664 -76 l3 -93 33 -3 c49 -5 43 -32 -8 -32 -51 0 -60 17 -60 114 0 74
-1 76 -25 76 -16 0 -25 6 -25 15 0 11 11 15 40 15 l39 0 3 -92z m176 -5 l3
-93 34 0 c24 0 35 -5 35 -15 0 -19 -73 -21 -88 -2 -6 7 -12 49 -14 92 -3 79
-3 80 -30 83 -17 2 -28 9 -28 18 0 12 10 14 43 12 l42 -3 3 -92z m-3498 57 c0
-16 7 -20 35 -20 44 0 46 -18 3 -22 -31 -3 -33 -6 -36 -46 -4 -50 10 -72 44
-72 13 0 24 -4 24 -10 0 -13 -46 -13 -71 0 -15 9 -19 22 -19 70 0 53 -2 60
-20 60 -11 0 -20 5 -20 10 0 6 9 10 20 10 13 0 20 7 20 20 0 11 5 20 10 20 6
0 10 -9 10 -20z m1050 0 c0 -16 7 -20 30 -20 17 0 30 -4 30 -10 0 -5 -13 -10
-30 -10 -30 0 -30 -1 -30 -55 0 -54 1 -56 30 -61 35 -8 40 -24 7 -24 -41 0
-56 21 -59 80 -3 48 -6 55 -25 58 -29 4 -30 22 -2 22 12 0 23 8 26 20 3 11 9
20 14 20 5 0 9 -9 9 -20z m578 -37 c6 -9 12 -45 12 -79 l0 -61 -56 1 c-45 1
-59 5 -70 21 -23 34 2 69 54 75 41 5 42 6 28 25 -13 17 -18 18 -35 8 -29 -18
-52 -17 -44 3 13 35 85 40 111 7z m170 0 c24 -24 25 -28 9 -31 -10 -2 -24 4
-31 13 -9 12 -19 15 -35 10 -19 -6 -22 -13 -19 -53 3 -41 6 -47 26 -50 14 -2
29 4 37 15 21 28 39 4 19 -25 -17 -25 -69 -30 -98 -9 -14 10 -17 25 -14 72 3
52 6 61 28 72 36 18 48 16 78 -14z m350 -1 c18 -23 15 -107 -4 -126 -24 -24
-80 -20 -98 6 -18 26 -21 80 -5 109 21 39 80 45 107 11z m175 -4 c21 -25 22
-86 1 -116 -10 -15 -25 -22 -49 -22 -51 0 -66 22 -63 88 3 49 6 58 28 69 30
15 59 8 83 -19z m524 10 c16 -13 17 -38 1 -38 -6 0 -20 8 -30 17 -36 32 -69
-13 -54 -73 5 -17 13 -24 32 -24 13 0 27 7 30 15 8 19 34 20 34 1 0 -42 -76
-62 -112 -29 -19 17 -26 96 -10 119 22 33 77 39 109 12z m173 2 c23 -23 27
-60 6 -60 -7 0 -16 9 -19 20 -3 11 -13 23 -22 27 -27 10 -45 -24 -45 -84 0
-40 -4 -53 -15 -53 -12 0 -15 16 -15 81 0 75 2 81 19 76 10 -2 25 -1 32 4 22
14 37 11 59 -11z m153 9 c31 -17 37 -28 37 -78 0 -54 -21 -81 -63 -81 -46 0
-67 25 -67 79 0 51 5 62 35 79 25 14 32 15 58 1z m-3989 -21 c31 -43 21 -58
-35 -58 -46 0 -50 -2 -47 -21 4 -32 33 -47 58 -31 31 19 45 14 25 -8 -22 -24
-67 -26 -89 -4 -19 19 -22 114 -4 132 21 21 75 15 92 -10z m106 -3 c7 -14 17
-25 21 -25 3 0 14 11 23 25 9 14 23 25 31 25 12 0 9 -10 -11 -40 l-26 -39 19
-28 c32 -46 35 -53 21 -53 -8 0 -22 14 -31 30 -10 17 -21 30 -25 30 -4 0 -16
-13 -25 -30 -10 -16 -25 -30 -33 -30 -11 0 -9 9 11 37 30 45 31 53 5 86 -23
30 -25 37 -7 37 8 0 20 -11 27 -25z m237 13 c17 -13 17 -120 1 -136 -7 -7 -21
-12 -33 -12 -12 0 -26 5 -33 12 -9 9 -12 4 -12 -25 0 -20 -4 -37 -10 -37 -6 0
-10 41 -10 103 l0 103 42 1 c23 1 48 -3 55 -9z m177 -4 c10 -10 16 -33 16 -64
0 -39 -4 -52 -22 -64 -53 -37 -98 -7 -98 65 0 55 18 79 60 79 16 0 36 -7 44
-16z m183 5 c14 -12 18 -59 5 -59 -4 0 -12 10 -17 23 -6 12 -20 23 -32 25 -28
4 -43 -29 -43 -94 0 -24 -4 -44 -10 -44 -6 0 -10 33 -10 78 l0 78 47 2 c25 1
52 -3 60 -9z m517 -5 c18 -17 21 -34 7 -34 -5 0 -14 7 -21 15 -30 36 -70 10
-70 -45 0 -20 5 -41 12 -48 17 -17 47 -15 54 3 6 15 34 22 34 8 0 -17 -36 -43
-61 -43 -43 0 -59 24 -59 85 0 41 4 56 18 64 26 15 69 13 86 -5z m170 0 c10
-10 16 -33 16 -64 0 -39 -4 -52 -22 -64 -53 -37 -98 -7 -98 65 0 55 18 79 60
79 16 0 36 -7 44 -16z m172 5 c16 -13 20 -149 4 -149 -5 0 -10 30 -12 68 l-3
67 -30 0 -30 0 -3 -67 c-4 -94 -22 -85 -22 10 l0 79 41 1 c23 1 48 -3 55 -9z
m182 -1 c16 -16 15 -28 -3 -28 -8 0 -15 5 -15 10 0 16 -57 12 -64 -5 -5 -15
27 -35 58 -35 19 0 36 -22 36 -47 0 -39 -66 -58 -106 -29 -27 20 -10 32 22 16
18 -10 30 -11 42 -3 30 18 19 37 -26 47 -32 7 -44 14 -48 33 -4 13 -1 30 6 38
15 18 81 20 98 3z m2972 -13 c0 -12 -14 -15 -65 -15 -60 0 -75 6 -58 23 3 4
33 7 65 7 45 0 58 -3 58 -15z m0 -70 c0 -12 -14 -15 -65 -15 -60 0 -75 6 -58
23 3 4 33 7 65 7 45 0 58 -3 58 -15z m-4362 -353 c17 -22 -2 -29 -34 -12 -19
11 -26 11 -39 0 -19 -16 -10 -30 18 -30 53 0 88 -60 53 -89 -21 -18 -97 -10
-110 11 -15 24 0 34 28 19 26 -15 57 -12 63 6 4 11 -4 15 -59 27 -19 4 -30 15
-34 33 -14 55 78 84 114 35z m172 8 c23 -23 27 -60 6 -60 -7 0 -16 9 -19 20
-3 11 -13 23 -22 27 -27 10 -45 -24 -45 -84 0 -40 -4 -53 -15 -53 -12 0 -15
16 -15 81 0 75 2 81 19 76 10 -2 25 -1 32 4 22 14 37 11 59 -11z m177 -2 c16
-13 17 -38 1 -38 -6 0 -20 8 -30 17 -36 32 -69 -13 -54 -73 5 -17 13 -24 32
-24 13 0 27 7 30 15 8 19 34 20 34 1 0 -42 -76 -62 -112 -29 -19 17 -26 96
-10 119 22 33 77 39 109 12z m138 -130 c-12 -59 -16 -68 -32 -68 -13 0 -14 8
-9 42 8 50 13 58 32 58 12 0 14 -7 9 -32z m883 -245 c5 -17 -26 -29 -40 -15
-6 6 -7 15 -3 22 9 14 37 9 43 -7z m-1278 -24 c0 -26 3 -29 20 -24 13 4 31 0
45 -9 23 -15 25 -23 25 -86 0 -56 -3 -70 -15 -70 -12 0 -15 14 -15 64 0 68 -7
81 -40 71 -17 -5 -20 -15 -20 -71 0 -50 -3 -64 -15 -64 -12 0 -15 19 -15 110
0 91 3 110 15 110 10 0 15 -10 15 -31z m600 11 c23 -23 25 -36 9 -46 -7 -4
-20 4 -30 17 -15 20 -21 22 -36 13 -15 -9 -18 -25 -18 -80 0 -67 1 -69 27 -72
19 -2 28 2 33 17 8 27 -1 41 -26 41 -12 0 -19 5 -16 13 2 6 19 12 38 12 31 0
34 -3 37 -33 5 -49 -20 -82 -63 -82 -53 0 -65 20 -65 110 0 70 2 81 22 94 31
22 64 20 88 -4z m538 -92 l3 -105 -55 -2 c-65 -1 -76 11 -76 83 0 33 6 52 20
66 23 23 33 24 61 10 17 -10 19 -7 19 25 0 25 4 35 13 33 8 -3 13 -37 15 -110z
m634 80 c2 -18 11 -24 36 -26 42 -4 37 -26 -7 -30 -32 -3 -32 -4 -29 -50 3
-45 4 -47 36 -50 49 -5 43 -32 -8 -32 -47 0 -60 18 -60 84 0 39 -3 46 -20 46
-11 0 -20 7 -20 15 0 8 9 15 20 15 15 0 20 7 20 25 0 32 27 34 32 3z m-1864
-46 c17 -22 -2 -29 -34 -12 -19 11 -26 11 -39 0 -19 -16 -10 -30 18 -30 53 0
88 -60 53 -89 -21 -18 -97 -10 -110 11 -15 24 0 34 28 19 26 -15 57 -12 63 6
4 11 -4 15 -59 27 -19 4 -30 15 -34 33 -14 55 78 84 114 35z m325 17 c31 -17
37 -28 37 -78 0 -54 -21 -81 -63 -81 -46 0 -67 25 -67 79 0 51 5 62 35 79 25
14 32 15 58 1z m540 -1 c9 -7 19 -25 23 -40 5 -22 3 -28 -10 -28 -9 0 -21 11
-26 25 -5 14 -15 25 -23 25 -26 0 -37 -25 -37 -82 0 -45 -3 -58 -15 -58 -12 0
-15 16 -15 81 0 75 2 81 19 76 10 -2 25 -1 32 4 19 12 32 11 52 -3z m165 -4
c19 -13 22 -24 22 -83 l0 -68 -52 -2 c-58 -1 -78 11 -78 45 0 32 26 54 66 54
23 0 34 5 34 14 0 23 -19 29 -51 16 -38 -16 -51 -4 -20 21 28 23 49 24 79 3z
m535 -16 c9 -11 17 -31 17 -44 0 -22 -4 -24 -51 -24 -43 0 -50 -3 -47 -17 4
-21 43 -29 63 -13 8 6 19 9 25 5 20 -12 -20 -45 -56 -45 -50 0 -65 22 -62 88
3 49 6 58 28 69 30 15 59 8 83 -19z m165 16 c19 -13 22 -24 22 -85 0 -55 -3
-69 -15 -69 -12 0 -15 13 -15 59 0 61 -16 89 -45 77 -11 -4 -15 -22 -15 -71 0
-58 -2 -65 -20 -65 -18 0 -20 7 -20 79 l0 80 33 4 c17 2 37 5 42 5 6 1 21 -5
33 -14z m-1308 -26 c0 -18 5 -40 10 -48 8 -12 10 -10 10 10 1 83 38 93 55 15
l11 -50 7 53 c6 37 12 52 23 52 9 0 14 -6 11 -13 -3 -8 -8 -39 -12 -69 -4 -30
-11 -61 -15 -68 -13 -21 -40 -3 -41 27 0 15 -4 37 -8 48 -6 15 -10 8 -16 -32
-5 -42 -11 -53 -25 -53 -14 0 -20 13 -29 63 -14 84 -14 97 4 97 10 0 15 -10
15 -32z m940 -33 l0 -65 30 0 c20 0 30 -5 30 -15 0 -12 -15 -15 -76 -15 -56 0
-75 3 -72 13 3 6 17 13 31 15 25 3 27 7 27 52 0 42 -3 49 -22 52 -41 6 -32 28
11 28 l41 0 0 -65z m696 -62 c-2 -10 -7 -33 -11 -50 -7 -35 -35 -46 -35 -14 0
48 13 81 32 81 14 0 18 -5 14 -17z m-1908 -250 c5 -17 -26 -29 -40 -15 -6 6
-7 15 -3 22 9 14 37 9 43 -7z m324 -85 l3 -93 33 -3 c49 -5 43 -32 -8 -32 -51
0 -60 17 -60 114 0 74 -1 76 -25 76 -16 0 -25 6 -25 15 0 11 11 15 40 15 l39
0 3 -92z m-522 57 c0 -21 5 -25 30 -25 20 0 30 -5 30 -15 0 -10 -10 -15 -30
-15 -29 0 -30 -1 -30 -50 0 -49 1 -50 30 -50 20 0 30 -5 30 -15 0 -10 -10 -15
-32 -15 -50 0 -61 12 -66 74 -4 46 -8 56 -23 56 -11 0 -19 7 -19 15 0 8 9 15
20 15 13 0 20 7 20 18 0 22 8 32 27 32 7 0 13 -11 13 -25z m350 0 c0 -21 5
-25 30 -25 20 0 30 -5 30 -15 0 -10 -10 -15 -30 -15 -29 0 -30 -1 -30 -50 0
-49 1 -50 30 -50 20 0 30 -5 30 -15 0 -10 -10 -15 -32 -15 -50 0 -61 12 -66
74 -4 46 -8 56 -23 56 -11 0 -19 7 -19 15 0 8 9 15 20 15 13 0 20 7 20 18 0
22 8 32 27 32 7 0 13 -11 13 -25z m393 -47 c9 -11 17 -31 17 -44 0 -22 -4 -24
-51 -24 -43 0 -50 -3 -47 -17 4 -21 43 -29 63 -13 8 6 19 9 25 5 20 -12 -20
-45 -56 -45 -50 0 -65 22 -62 88 3 49 6 58 28 69 30 15 59 8 83 -19z m-553
-43 l0 -65 30 0 c20 0 30 -5 30 -15 0 -12 -15 -15 -76 -15 -56 0 -75 3 -72 13
3 6 17 13 31 15 25 3 27 7 27 52 0 42 -3 49 -22 52 -41 6 -32 28 11 28 l41 0
0 -65z m695 -77 c-12 -59 -16 -68 -32 -68 -13 0 -14 8 -9 42 8 50 13 58 32 58
12 0 14 -7 9 -32z m-925 -273 c0 -32 2 -35 19 -25 28 14 38 13 61 -10 15 -15
20 -33 20 -69 0 -65 -16 -81 -81 -80 l-49 2 0 108 c0 90 3 109 15 109 11 0 15
-11 15 -35z m448 -77 l3 -105 -55 -2 c-65 -1 -76 11 -76 83 0 33 6 52 20 66
23 23 33 24 61 10 17 -10 19 -7 19 25 0 25 4 35 13 33 8 -3 13 -37 15 -110z
m-200 46 c19 -13 22 -24 22 -83 l0 -68 -52 -2 c-58 -1 -78 11 -78 45 0 32 26
54 66 54 23 0 34 5 34 14 0 23 -19 29 -51 16 -38 -16 -51 -4 -20 21 28 23 49
24 79 3z m326 7 c3 -5 15 -7 26 -4 19 5 20 0 20 -85 0 -106 -10 -122 -72 -122
-47 0 -49 23 -2 28 26 4 43 16 44 34 0 4 -15 4 -34 1 -29 -4 -37 -1 -51 21
-22 33 -15 104 11 123 21 15 50 17 58 4z m209 -23 c9 -11 17 -31 17 -44 0 -22
-4 -24 -51 -24 -43 0 -50 -3 -47 -17 4 -21 43 -29 63 -13 8 6 19 9 25 5 20
-12 -20 -45 -56 -45 -50 0 -65 22 -62 88 3 49 6 58 28 69 30 15 59 8 83 -19z
m142 -120 c-12 -59 -16 -68 -32 -68 -13 0 -14 8 -9 42 8 50 13 58 32 58 12 0
14 -7 9 -32z m-655 -212 c0 -7 -9 -16 -20 -19 -16 -4 -20 -14 -20 -50 0 -25
-5 -49 -10 -52 -7 -5 -8 -11 -1 -19 5 -6 11 -32 13 -56 2 -36 7 -45 21 -44 9
1 17 -4 17 -12 0 -21 -37 -17 -53 7 -10 13 -13 34 -10 60 5 37 4 39 -26 45
-38 8 -40 22 -3 26 24 3 27 7 28 43 1 22 2 45 3 52 1 9 22 21 59 32 1 1 2 -5
2 -13z m-592 -8 c7 -7 12 -34 12 -60 0 -47 1 -48 30 -48 38 0 40 -18 3 -22
-26 -3 -28 -7 -31 -53 -3 -49 -20 -75 -49 -75 -21 0 -15 18 8 25 19 6 20 12
15 47 -4 25 -2 46 5 54 8 10 8 18 1 27 -7 8 -9 29 -5 51 5 32 3 38 -16 43 -11
3 -21 9 -21 14 0 13 34 11 48 -3z m201 -67 c19 -12 6 -41 -19 -41 -13 0 -20 7
-20 18 0 31 14 39 39 23z m6 -141 c0 -8 -10 -16 -22 -18 -18 -3 -23 2 -23 18
0 16 5 21 23 18 12 -2 22 -10 22 -18z m1743 -247 c5 -17 -26 -29 -40 -15 -6 6
-7 15 -3 22 9 14 37 9 43 -7z m-1030 -15 c22 -19 15 -75 -13 -96 -14 -11 -25
-25 -25 -31 0 -6 -7 -11 -15 -11 -10 0 -15 10 -15 29 0 23 5 30 22 33 50 7 24
68 -29 68 -23 0 -30 10 -16 24 10 9 74 -2 91 -16z m662 -13 c0 -21 5 -25 30
-25 20 0 30 -5 30 -15 0 -10 -10 -15 -30 -15 -29 0 -30 -1 -30 -50 0 -49 1
-50 30 -50 20 0 30 -5 30 -15 0 -10 -10 -15 -32 -15 -50 0 -61 12 -66 74 -4
46 -8 56 -23 56 -11 0 -19 7 -19 15 0 8 9 15 20 15 13 0 20 7 20 18 0 22 8 32
27 32 7 0 13 -11 13 -25z m-1172 -43 c17 -22 -2 -29 -34 -12 -19 11 -26 11
-39 0 -19 -16 -10 -30 18 -30 53 0 88 -60 53 -89 -21 -18 -97 -10 -110 11 -15
24 0 34 28 19 26 -15 57 -12 63 6 4 11 -4 15 -59 27 -19 4 -30 15 -34 33 -14
55 78 84 114 35z m172 8 c23 -23 27 -60 6 -60 -7 0 -16 9 -19 20 -3 11 -13 23
-22 27 -27 10 -45 -24 -45 -84 0 -40 -4 -53 -15 -53 -12 0 -15 16 -15 81 0 75
2 81 19 76 10 -2 25 -1 32 4 22 14 37 11 59 -11z m177 -2 c16 -13 17 -38 1
-38 -6 0 -20 8 -30 17 -36 32 -69 -13 -54 -73 5 -17 13 -24 32 -24 13 0 27 7
30 15 8 19 34 20 34 1 0 -42 -76 -62 -112 -29 -19 17 -26 96 -10 119 22 33 77
39 109 12z m312 13 c19 -12 6 -41 -19 -41 -13 0 -20 7 -20 18 0 31 14 39 39
23z m372 -10 c29 -24 18 -39 -15 -21 -27 14 -60 7 -54 -12 3 -7 18 -15 35 -19
16 -3 35 -9 41 -13 16 -9 15 -59 0 -74 -13 -13 -66 -16 -92 -6 -20 8 -21 44
-1 44 8 0 15 -4 15 -10 0 -5 14 -10 31 -10 41 0 36 32 -7 41 -45 9 -54 17 -54
50 0 47 59 64 101 30z m359 -1 c23 -23 27 -60 6 -60 -7 0 -16 9 -19 20 -3 11
-13 23 -22 27 -27 10 -45 -24 -45 -84 0 -40 -4 -53 -15 -53 -12 0 -15 16 -15
81 0 75 2 81 19 76 10 -2 25 -1 32 4 22 14 37 11 59 -11z m338 4 c19 -13 22
-24 22 -85 0 -55 -3 -69 -15 -69 -12 0 -15 13 -15 59 0 61 -16 89 -45 77 -11
-4 -15 -22 -15 -71 0 -58 -2 -65 -20 -65 -18 0 -20 7 -20 79 l0 80 33 4 c17 2
37 5 42 5 6 1 21 -5 33 -14z m180 6 c21 0 22 -4 22 -77 0 -103 -13 -127 -68
-131 -33 -2 -42 0 -42 12 0 12 10 16 35 16 28 0 35 4 35 20 0 16 -5 19 -28 14
-42 -8 -62 16 -62 76 0 39 4 52 23 65 12 9 31 13 42 11 11 -3 30 -6 43 -6z
m141 1 c19 -12 6 -41 -19 -41 -13 0 -20 7 -20 18 0 31 14 39 39 23z m-509 -66
c0 -63 1 -65 25 -65 16 0 25 -6 25 -15 0 -12 -14 -15 -70 -15 -56 0 -70 3 -70
15 0 9 9 15 25 15 23 0 25 3 25 49 0 43 -3 50 -22 53 -12 2 -23 9 -26 16 -2 8
10 12 42 12 l46 0 0 -65z m512 -50 c10 -10 -15 -95 -29 -95 -14 0 -17 38 -7
78 6 20 24 29 36 17z m-1577 -25 c0 -8 -10 -16 -22 -18 -22 -3 -32 16 -16 32
12 11 38 2 38 -14z m190 0 c0 -8 -10 -16 -22 -18 -18 -3 -23 2 -23 18 0 16 5
21 23 18 12 -2 22 -10 22 -18z m-918 -174 c35 -31 38 -87 5 -133 -12 -17 -22
-44 -22 -60 0 -34 -16 -53 -45 -53 -29 0 -45 19 -45 51 0 15 -11 49 -25 76
-22 42 -24 53 -14 81 21 60 97 80 146 38z m1621 -63 c5 -17 -26 -29 -40 -15
-6 6 -7 15 -3 22 9 14 37 9 43 -7z m-1278 -24 c0 -26 3 -29 20 -24 13 4 31 0
45 -9 23 -15 25 -23 25 -86 0 -56 -3 -70 -15 -70 -12 0 -15 14 -15 64 0 68 -7
81 -40 71 -17 -5 -20 -15 -20 -71 0 -50 -3 -64 -15 -64 -12 0 -15 19 -15 110
0 91 3 110 15 110 10 0 15 -10 15 -31z m600 11 c23 -23 25 -36 9 -46 -7 -4
-20 4 -30 17 -15 20 -21 22 -36 13 -15 -9 -18 -25 -18 -80 0 -67 1 -69 27 -72
19 -2 28 2 33 17 8 27 -1 41 -26 41 -12 0 -19 5 -16 13 2 6 19 12 38 12 31 0
34 -3 37 -33 5 -49 -20 -82 -63 -82 -53 0 -65 20 -65 110 0 70 2 81 22 94 31
22 64 20 88 -4z m538 -92 l3 -105 -55 -2 c-65 -1 -76 11 -76 83 0 33 6 52 20
66 23 23 33 24 61 10 17 -10 19 -7 19 25 0 25 4 35 13 33 8 -3 13 -37 15 -110z
m844 85 c29 -26 22 -64 -18 -102 -24 -23 -38 -31 -46 -23 -16 16 -5 47 19 50
30 4 41 41 17 59 -10 7 -28 13 -41 13 -23 0 -30 10 -16 24 11 11 64 -2 85 -21z
m456 -7 c3 -22 7 -26 23 -21 11 4 31 0 44 -9 21 -14 25 -24 25 -67 0 -77 -10
-88 -75 -88 l-55 1 0 102 c0 57 3 106 7 110 13 13 28 -1 31 -28z m560 -63 l3
-92 32 -3 c41 -4 37 -22 -5 -26 -55 -4 -63 8 -67 103 -3 82 -4 85 -27 85 -15
0 -24 6 -24 16 0 12 9 14 43 12 l42 -3 3 -92z m-1226 65 c2 -18 11 -24 36 -26
42 -4 37 -26 -7 -30 -32 -3 -32 -4 -29 -50 3 -45 4 -47 36 -50 49 -5 43 -32
-8 -32 -47 0 -60 18 -60 84 0 39 -3 46 -20 46 -11 0 -20 7 -20 15 0 8 9 15 20
15 15 0 20 7 20 25 0 32 27 34 32 3z m-1864 -46 c17 -22 -2 -29 -34 -12 -19
11 -26 11 -39 0 -19 -16 -10 -30 18 -30 53 0 88 -60 53 -89 -21 -18 -97 -10
-110 11 -15 24 0 34 28 19 26 -15 57 -12 63 6 4 11 -4 15 -59 27 -19 4 -30 15
-34 33 -14 55 78 84 114 35z m325 17 c31 -17 37 -28 37 -78 0 -54 -21 -81 -63
-81 -46 0 -67 25 -67 79 0 51 5 62 35 79 25 14 32 15 58 1z m540 -1 c9 -7 19
-25 23 -40 5 -22 3 -28 -10 -28 -9 0 -21 11 -26 25 -5 14 -15 25 -23 25 -26 0
-37 -25 -37 -82 0 -45 -3 -58 -15 -58 -12 0 -15 16 -15 81 0 75 2 81 19 76 10
-2 25 -1 32 4 19 12 32 11 52 -3z m165 -4 c19 -13 22 -24 22 -83 l0 -68 -52
-2 c-58 -1 -78 11 -78 45 0 32 26 54 66 54 23 0 34 5 34 14 0 23 -19 29 -51
16 -38 -16 -51 -4 -20 21 28 23 49 24 79 3z m535 -16 c9 -11 17 -31 17 -44 0
-22 -4 -24 -51 -24 -43 0 -50 -3 -47 -17 4 -21 43 -29 63 -13 8 6 19 9 25 5
20 -12 -20 -45 -56 -45 -50 0 -65 22 -62 88 3 49 6 58 28 69 30 15 59 8 83
-19z m165 16 c19 -13 22 -24 22 -85 0 -55 -3 -69 -15 -69 -12 0 -15 13 -15 59
0 61 -16 89 -45 77 -11 -4 -15 -22 -15 -71 0 -58 -2 -65 -20 -65 -18 0 -20 7
-20 79 l0 80 33 4 c17 2 37 5 42 5 6 1 21 -5 33 -14z m499 5 c16 -16 5 -39
-17 -39 -25 0 -35 18 -20 35 15 18 22 19 37 4z m556 -21 c21 -25 22 -86 1
-116 -10 -15 -25 -22 -49 -22 -51 0 -66 22 -63 88 3 49 6 58 28 69 30 15 59 8
83 -19z m175 4 c18 -23 15 -107 -4 -126 -24 -24 -80 -20 -98 6 -18 26 -21 80
-5 109 21 39 80 45 107 11z m336 7 c17 -14 26 -30 26 -50 0 -28 -1 -29 -51
-29 -43 0 -50 -3 -47 -17 4 -22 44 -29 64 -12 23 19 40 -4 19 -25 -21 -21 -73
-21 -97 1 -21 19 -25 100 -5 125 25 32 56 35 91 7z m174 5 c19 -13 22 -24 22
-83 l0 -68 -52 -2 c-58 -1 -78 11 -78 45 0 32 26 54 66 54 23 0 34 5 34 14 0
23 -19 29 -51 16 -38 -16 -51 -4 -20 21 28 23 49 24 79 3z m177 2 c15 -11 20
-30 23 -85 4 -67 3 -71 -17 -71 -19 0 -21 6 -21 65 0 49 -4 67 -15 71 -29 12
-45 -16 -45 -77 0 -46 -3 -59 -15 -59 -12 0 -15 16 -15 81 0 76 1 81 20 76 11
-3 23 -1 26 4 8 13 38 11 59 -5z m153 -14 c3 -17 -2 -22 -18 -22 -25 0 -38 29
-19 41 20 13 34 6 37 -19z m-3378 -14 c0 -18 5 -40 10 -48 8 -12 10 -10 10 10
1 83 38 93 55 15 l11 -50 7 53 c6 37 12 52 23 52 9 0 14 -6 11 -13 -3 -8 -8
-39 -12 -69 -4 -30 -11 -61 -15 -68 -13 -21 -40 -3 -41 27 0 15 -4 37 -8 48
-6 15 -10 8 -16 -32 -5 -42 -11 -53 -25 -53 -14 0 -20 13 -29 63 -14 84 -14
97 4 97 10 0 15 -10 15 -32z m940 -33 l0 -65 30 0 c20 0 30 -5 30 -15 0 -12
-15 -15 -76 -15 -56 0 -75 3 -72 13 3 6 17 13 31 15 25 3 27 7 27 52 0 42 -3
49 -22 52 -41 6 -32 28 11 28 l41 0 0 -65z m2440 -51 c0 -31 -25 -94 -37 -94
-12 0 -14 8 -9 38 3 20 6 43 6 50 0 6 9 12 20 12 11 0 20 -3 20 -6z m-1762
-27 c2 -12 -3 -17 -17 -17 -12 0 -21 6 -21 13 0 31 32 34 38 4z m197 3 c0 -18
-33 -26 -47 -12 -6 6 -7 15 -3 22 10 16 50 8 50 -10z m335 -350 c0 -118 -2
-140 -15 -140 -13 0 -15 21 -15 133 0 74 3 137 7 140 19 19 23 -5 23 -133z
m-2422 103 c5 -17 -26 -29 -40 -15 -6 6 -7 15 -3 22 9 14 37 9 43 -7z m1740 0
c5 -17 -26 -29 -40 -15 -6 6 -7 15 -3 22 9 14 37 9 43 -7z m-3118 -10 c0 -9
-10 -27 -21 -40 l-22 -22 24 -19 c30 -25 32 -87 4 -108 -30 -22 -81 -18 -99 8
-21 30 -20 38 4 38 11 0 20 -7 20 -16 0 -11 8 -14 28 -12 24 3 27 7 27 38 0
31 -3 35 -27 38 -35 4 -35 18 -1 54 l27 28 -42 0 c-31 0 -42 4 -42 15 0 12 13
15 60 15 50 0 60 -3 60 -17z m140 5 c-1 -7 -7 -24 -15 -38 -20 -35 -19 -40 9
-40 28 0 42 -14 51 -53 15 -58 -71 -102 -117 -60 -33 29 -20 89 38 181 16 24
34 29 34 10z m1562 -80 l3 -93 33 -3 c49 -5 43 -32 -8 -32 -51 0 -60 17 -60
114 0 74 -1 76 -25 76 -16 0 -25 6 -25 15 0 11 11 15 40 15 l39 0 3 -92z m386
70 c22 -19 15 -75 -13 -96 -14 -11 -25 -25 -25 -31 0 -6 -7 -11 -15 -11 -10 0
-15 10 -15 29 0 23 5 30 22 33 50 7 24 68 -29 68 -23 0 -30 10 -16 24 10 9 74
-2 91 -16z m2104 -8 c23 -29 23 -55 -2 -80 l-20 -20 20 -40 c25 -48 25 -50 1
-50 -13 0 -24 14 -35 45 -10 25 -24 45 -32 45 -10 0 -14 -13 -14 -45 0 -38 -3
-45 -20 -45 -19 0 -20 7 -20 103 0 57 3 107 8 111 15 16 96 -1 114 -24z m1043
10 c20 -17 19 -69 -2 -92 -15 -17 -15 -21 0 -54 21 -43 21 -54 2 -54 -8 0 -23
20 -34 45 -11 26 -27 45 -35 45 -12 0 -16 -11 -16 -45 0 -33 -4 -45 -15 -45
-12 0 -15 19 -15 111 l0 112 50 -5 c27 -3 56 -11 65 -18z m817 -47 l23 -68 5
65 c4 49 9 65 20 65 12 0 16 -20 18 -107 3 -107 2 -108 -20 -108 -20 0 -27 11
-48 73 l-25 72 -3 -72 c-2 -56 -6 -73 -17 -73 -12 0 -15 20 -15 110 0 102 1
110 19 110 15 0 25 -16 43 -67z m416 -45 l3 -106 -53 0 c-29 -1 -58 4 -65 10
-8 6 -13 33 -13 69 0 51 3 61 25 75 14 9 32 13 45 9 16 -5 20 -2 20 18 0 27 9
39 24 34 7 -2 12 -46 14 -109z m-5288 77 c0 -21 5 -25 30 -25 20 0 30 -5 30
-15 0 -10 -10 -15 -30 -15 -29 0 -30 -1 -30 -50 0 -49 1 -50 30 -50 20 0 30
-5 30 -15 0 -10 -10 -15 -32 -15 -50 0 -61 12 -66 74 -4 46 -8 56 -23 56 -11
0 -19 7 -19 15 0 8 9 15 20 15 13 0 20 7 20 18 0 22 8 32 27 32 7 0 13 -11 13
-25z m350 0 c0 -21 5 -25 30 -25 20 0 30 -5 30 -15 0 -10 -10 -15 -30 -15 -29
0 -30 -1 -30 -50 0 -49 1 -50 30 -50 20 0 30 -5 30 -15 0 -10 -10 -15 -32 -15
-50 0 -61 12 -66 74 -4 46 -8 56 -23 56 -11 0 -19 7 -19 15 0 8 9 15 20 15 13
0 20 7 20 18 0 22 8 32 27 32 7 0 13 -11 13 -25z m1212 3 c2 -18 11 -24 36
-26 42 -4 37 -26 -7 -30 -32 -3 -32 -4 -29 -50 3 -45 4 -47 36 -50 49 -5 43
-32 -8 -32 -47 0 -60 18 -60 84 0 39 -3 46 -20 46 -11 0 -20 7 -20 15 0 8 9
15 20 15 15 0 20 7 20 25 0 32 27 34 32 3z m2090 0 c2 -18 11 -24 36 -26 42
-4 37 -26 -7 -30 -32 -3 -32 -4 -29 -50 3 -45 4 -47 36 -50 49 -5 43 -32 -8
-32 -47 0 -60 18 -60 84 0 39 -3 46 -20 46 -11 0 -20 7 -20 15 0 8 9 15 20 15
15 0 20 7 20 25 0 32 27 34 32 3z m1048 -3 c0 -21 5 -25 30 -25 20 0 30 -5 30
-15 0 -10 -10 -15 -30 -15 -29 0 -30 -1 -30 -50 0 -49 1 -50 30 -50 20 0 30
-5 30 -15 0 -19 -60 -21 -78 -3 -7 7 -12 36 -12 64 0 46 -3 53 -22 56 -30 4
-34 26 -6 30 15 2 24 11 26 26 5 31 32 29 32 -3z m-3957 -47 c9 -11 17 -31 17
-44 0 -22 -4 -24 -51 -24 -43 0 -50 -3 -47 -17 4 -21 43 -29 63 -13 8 6 19 9
25 5 20 -12 -20 -45 -56 -45 -50 0 -65 22 -62 88 3 49 6 58 28 69 30 15 59 8
83 -19z m314 21 c16 -16 5 -39 -17 -39 -25 0 -35 18 -20 35 15 18 22 19 37 4z
m374 -8 c29 -24 18 -39 -15 -21 -27 14 -60 7 -54 -12 3 -7 18 -15 35 -19 16
-3 35 -9 41 -13 16 -9 15 -59 0 -74 -13 -13 -66 -16 -92 -6 -20 8 -21 44 -1
44 8 0 15 -4 15 -10 0 -5 14 -10 31 -10 41 0 36 32 -7 41 -45 9 -54 17 -54 50
0 47 59 64 101 30z m352 7 c9 -7 19 -25 23 -40 5 -22 3 -28 -10 -28 -9 0 -21
11 -26 25 -5 14 -15 25 -23 25 -26 0 -37 -25 -37 -82 0 -45 -3 -58 -15 -58
-12 0 -15 16 -15 81 0 75 2 81 19 76 10 -2 25 -1 32 4 19 12 32 11 52 -3z
m347 -8 c26 -26 30 -150 5 -150 -11 0 -15 12 -15 51 0 56 -13 89 -35 89 -22 0
-35 -33 -35 -89 0 -39 -4 -51 -15 -51 -12 0 -15 16 -15 81 0 75 2 81 19 76 10
-2 25 -1 32 4 22 14 37 11 59 -11z m173 10 c15 0 17 -11 17 -93 0 -106 -6
-117 -62 -117 -49 0 -54 27 -6 32 22 2 34 9 36 21 3 14 -1 17 -21 12 -14 -4
-35 -2 -46 5 -17 9 -21 20 -21 65 0 44 4 57 23 70 12 9 31 13 42 11 11 -3 28
-6 38 -6z m874 -13 c6 -7 13 -25 15 -42 3 -29 2 -30 -45 -33 -39 -3 -48 -6
-45 -20 4 -21 44 -28 64 -11 19 16 31 3 18 -19 -8 -12 -25 -17 -55 -17 -36 0
-46 4 -57 25 -18 36 -8 101 19 123 24 19 63 16 86 -6z m181 -4 c6 -9 12 -45
12 -79 l0 -61 -56 1 c-45 1 -59 5 -70 21 -23 34 2 69 54 75 41 5 42 6 28 25
-13 17 -18 18 -35 8 -29 -18 -52 -17 -44 3 13 35 85 40 111 7z m170 0 c24 -24
25 -28 9 -31 -10 -2 -24 4 -31 13 -9 12 -19 15 -35 10 -19 -6 -22 -13 -19 -53
3 -41 6 -47 26 -50 14 -2 29 4 37 15 21 28 39 4 19 -25 -17 -25 -69 -30 -98
-9 -14 10 -17 25 -14 72 3 52 6 61 28 72 36 18 48 16 78 -14z m686 6 c17 -14
26 -30 26 -50 0 -28 -1 -29 -51 -29 -43 0 -50 -3 -47 -17 4 -22 44 -29 64 -12
23 19 40 -4 19 -25 -21 -21 -73 -21 -97 1 -21 19 -25 100 -5 125 25 32 56 35
91 7z m174 5 c19 -13 22 -24 22 -83 l0 -68 -52 -2 c-58 -1 -78 11 -78 45 0 32
26 54 66 54 23 0 34 5 34 14 0 23 -19 29 -51 16 -38 -16 -51 -4 -20 21 28 23
49 24 79 3z m189 -6 c16 -13 17 -38 1 -38 -6 0 -20 8 -30 17 -36 32 -69 -13
-54 -73 5 -17 13 -24 32 -24 13 0 27 7 30 15 8 19 34 20 34 1 0 -42 -76 -62
-112 -29 -19 17 -26 96 -10 119 22 33 77 39 109 12z m521 -6 c18 -23 15 -107
-4 -126 -24 -24 -80 -20 -98 6 -18 26 -21 80 -5 109 21 39 80 45 107 11z m336
7 c17 -14 26 -30 26 -50 0 -28 -1 -29 -51 -29 -43 0 -50 -3 -47 -17 4 -22 44
-29 64 -12 23 19 40 -4 19 -25 -21 -21 -73 -21 -97 1 -21 19 -25 100 -5 125
25 32 56 35 91 7z m153 10 c16 -16 5 -39 -17 -39 -25 0 -35 18 -20 35 15 18
22 19 37 4z m-5397 -64 l0 -65 30 0 c20 0 30 -5 30 -15 0 -12 -15 -15 -76 -15
-56 0 -75 3 -72 13 3 6 17 13 31 15 25 3 27 7 27 52 0 42 -3 49 -22 52 -41 6
-32 28 11 28 l41 0 0 -65z m1750 0 c0 -63 1 -65 25 -65 16 0 25 -6 25 -15 0
-12 -14 -15 -70 -15 -56 0 -70 3 -70 15 0 9 9 15 25 15 23 0 25 3 25 49 0 43
-3 50 -22 53 -12 2 -23 9 -26 16 -2 8 10 12 42 12 l46 0 0 -65z m1908 -73 c3
-17 -2 -22 -18 -22 -25 0 -38 29 -19 41 20 13 34 6 37 -19z m1742 16 c0 -35
-22 -88 -36 -88 -13 0 -14 8 -9 43 4 23 9 45 12 50 7 12 33 8 33 -5z m-4715
-18 c0 -8 -10 -16 -22 -18 -22 -3 -32 16 -16 32 12 11 38 2 38 -14z m190 0 c0
-18 -33 -26 -47 -12 -6 6 -7 15 -3 22 10 16 50 8 50 -10z m-1105 -275 c0 -32
2 -35 19 -25 28 14 38 13 61 -10 15 -15 20 -33 20 -69 0 -65 -16 -81 -81 -80
l-49 2 0 108 c0 90 3 109 15 109 11 0 15 -11 15 -35z m448 -77 l3 -105 -55 -2
c-65 -1 -76 11 -76 83 0 33 6 52 20 66 23 23 33 24 61 10 17 -10 19 -7 19 25
0 25 4 35 13 33 8 -3 13 -37 15 -110z m500 90 c22 -19 15 -75 -13 -96 -14 -11
-25 -25 -25 -31 0 -6 -7 -11 -15 -11 -10 0 -15 10 -15 29 0 23 5 30 22 33 50
7 24 68 -29 68 -23 0 -30 10 -16 24 10 9 74 -2 91 -16z m532 -3 c25 -22 26
-62 3 -87 -17 -19 -17 -21 12 -90 5 -13 2 -18 -9 -18 -9 0 -26 19 -38 45 -12
25 -28 45 -35 45 -9 0 -13 -15 -13 -45 0 -33 -4 -45 -15 -45 -12 0 -15 19 -15
111 l0 112 45 -6 c25 -2 55 -13 65 -22z m1047 2 c21 -20 20 -63 -2 -87 -16
-17 -16 -21 4 -64 18 -43 19 -46 2 -46 -10 0 -25 17 -39 45 -12 25 -29 45 -37
45 -11 0 -15 -11 -15 -45 0 -33 -4 -45 -15 -45 -12 0 -15 18 -15 103 0 57 3
107 8 111 11 12 93 0 109 -17z m822 -57 l26 -75 3 78 c2 59 6 77 17 77 12 0
15 -20 15 -111 0 -108 -1 -110 -22 -107 -17 2 -28 19 -49 78 l-28 75 0 -77
c-1 -62 -4 -78 -16 -78 -12 0 -15 18 -15 103 0 57 3 107 7 111 19 18 38 -5 62
-74z m409 -32 l3 -106 -53 0 c-29 -1 -58 4 -65 10 -8 6 -13 33 -13 69 0 51 3
61 25 75 14 9 32 13 45 9 16 -5 20 -2 20 18 0 27 9 39 24 34 7 -2 12 -46 14
-109z m-1628 77 c0 -21 5 -25 30 -25 20 0 30 -5 30 -15 0 -10 -10 -15 -30 -15
-29 0 -30 -1 -30 -50 0 -49 1 -50 30 -50 20 0 30 -5 30 -15 0 -10 -10 -15 -32
-15 -50 0 -61 12 -66 74 -4 46 -8 56 -23 56 -11 0 -19 7 -19 15 0 8 9 15 20
15 13 0 20 7 20 18 0 22 8 32 27 32 7 0 13 -11 13 -25z m1040 0 c0 -22 4 -25
36 -25 45 0 41 -24 -5 -28 -32 -3 -32 -4 -29 -50 3 -43 5 -47 31 -50 40 -5 35
-32 -6 -32 -45 0 -57 15 -57 76 0 46 -3 53 -22 56 -32 5 -35 28 -4 28 21 0 26
5 26 25 0 16 6 25 15 25 9 0 15 -9 15 -25z m-2922 -31 c19 -13 22 -24 22 -83
l0 -68 -52 -2 c-58 -1 -78 11 -78 45 0 32 26 54 66 54 23 0 34 5 34 14 0 23
-19 29 -51 16 -38 -16 -51 -4 -20 21 28 23 49 24 79 3z m326 7 c3 -5 15 -7 26
-4 19 5 20 0 20 -85 0 -106 -10 -122 -72 -122 -47 0 -49 23 -2 28 26 4 43 16
44 34 0 4 -15 4 -34 1 -29 -4 -37 -1 -51 21 -22 33 -15 104 11 123 21 15 50
17 58 4z m209 -23 c9 -11 17 -31 17 -44 0 -22 -4 -24 -51 -24 -43 0 -50 -3
-47 -17 4 -21 43 -29 63 -13 8 6 19 9 25 5 20 -12 -20 -45 -56 -45 -50 0 -65
22 -62 88 3 49 6 58 28 69 30 15 59 8 83 -19z m314 21 c16 -16 5 -39 -17 -39
-25 0 -35 18 -20 35 15 18 22 19 37 4z m556 -21 c9 -11 17 -31 17 -44 0 -22
-4 -24 -51 -24 -43 0 -50 -3 -47 -17 4 -21 43 -29 63 -13 8 6 19 9 25 5 20
-12 -20 -45 -56 -45 -50 0 -65 22 -62 88 3 49 6 58 28 69 30 15 59 8 83 -19z
m165 16 c19 -13 22 -24 22 -83 l0 -68 -52 -2 c-60 -1 -78 11 -78 50 0 33 23
49 69 49 34 0 39 11 15 31 -12 10 -20 10 -35 1 -27 -17 -50 -15 -42 4 12 32
67 42 101 18z m190 -11 c26 -35 3 -46 -30 -16 -30 27 -53 6 -53 -48 0 -41 2
-44 28 -47 18 -2 29 2 33 12 7 18 34 22 34 4 0 -23 -34 -48 -66 -48 -50 0 -65
22 -62 88 3 49 7 58 28 69 29 15 70 9 88 -14z m689 5 c7 -6 13 -26 13 -44 l0
-34 -50 0 c-27 0 -50 -2 -50 -4 0 -34 34 -46 70 -24 24 15 38 3 24 -20 -7 -10
-27 -18 -52 -20 -32 -2 -43 1 -56 20 -41 59 2 158 62 143 15 -4 33 -11 39 -17z
m149 16 c29 -8 44 -44 44 -108 l0 -54 -60 -1 c-55 0 -62 2 -72 24 -17 37 12
75 57 75 24 0 35 5 35 14 0 23 -19 29 -51 16 -38 -16 -51 -4 -20 21 25 20 34
22 67 13z m192 -10 c25 -17 29 -44 7 -44 -8 0 -15 4 -15 9 0 12 -27 22 -44 15
-18 -7 -28 -47 -20 -79 4 -18 13 -25 30 -25 14 0 27 7 30 15 8 21 34 19 34 -3
0 -28 -21 -42 -61 -42 -46 0 -69 27 -69 83 0 27 7 45 25 62 28 29 51 31 83 9z
m528 -6 c18 -14 25 -71 13 -106 -20 -59 -105 -55 -123 6 -24 83 49 150 110
100z m351 0 c7 -6 13 -26 13 -44 l0 -34 -50 0 c-27 0 -50 -2 -50 -4 0 -34 34
-46 70 -24 24 15 38 3 24 -20 -7 -10 -27 -18 -52 -20 -32 -2 -43 1 -56 20 -41
59 2 158 62 143 15 -4 33 -11 39 -17z m142 13 c19 -12 6 -41 -19 -41 -13 0
-20 7 -20 18 0 31 14 39 39 23z m-1742 -122 c16 -16 5 -39 -17 -39 -25 0 -35
18 -20 35 15 18 22 19 37 4z m1739 -31 c-8 -50 -13 -58 -32 -58 -12 0 -14 7
-9 33 12 58 16 67 32 67 13 0 14 -8 9 -42z m-3141 12 c0 -8 -10 -16 -22 -18
-22 -3 -32 16 -16 32 12 11 38 2 38 -14z m190 0 c0 -18 -33 -26 -47 -12 -6 6
-7 15 -3 22 10 16 50 8 50 -10z m-1219 -265 c17 -41 18 -110 3 -153 -15 -43
-79 -83 -79 -49 0 7 9 18 19 24 48 30 52 155 5 192 -13 10 -24 26 -24 35 0 29
59 -10 76 -49z m904 50 c0 -8 -9 -19 -20 -25 -15 -8 -18 -17 -14 -39 3 -16 1
-38 -5 -49 -8 -15 -8 -23 0 -28 7 -4 9 -22 6 -46 -5 -34 -2 -41 14 -45 28 -8
24 -33 -6 -33 -31 0 -47 29 -43 77 3 34 1 38 -26 43 -42 7 -44 28 -4 32 32 3
33 4 33 53 0 42 3 51 25 62 32 17 40 16 40 -2z m-1112 -7 c7 -7 12 -34 12 -60
l0 -48 35 0 c44 0 46 -18 3 -22 -32 -3 -33 -5 -36 -53 -3 -49 -20 -75 -49 -75
-21 0 -15 18 8 25 19 6 20 12 15 47 -4 25 -2 46 5 54 8 10 8 18 1 27 -7 8 -9
29 -5 51 5 32 3 38 -16 43 -11 3 -21 9 -21 14 0 13 34 11 48 -3z m712 -88 c33
-17 60 -36 60 -43 0 -7 -29 -27 -65 -45 -43 -21 -65 -27 -65 -19 0 7 24 24 52
39 l53 25 -53 27 c-28 14 -52 31 -52 36 0 14 4 13 70 -20z m-120 -10 c0 -6
-27 -10 -60 -10 -33 0 -60 4 -60 10 0 6 27 10 60 10 33 0 60 -4 60 -10z m0
-70 c0 -6 -27 -10 -60 -10 -33 0 -60 4 -60 10 0 6 27 10 60 10 33 0 60 -4 60
-10z m5740 -266 c0 -3 -13 -19 -30 -34 -27 -26 -30 -34 -30 -93 0 -59 3 -68
30 -95 17 -17 30 -33 30 -36 0 -15 -24 -3 -51 23 -27 27 -29 35 -29 106 0 71
2 79 29 106 27 27 51 38 51 23z m801 -4 c30 -17 49 -64 49 -124 0 -67 -15
-103 -52 -122 -36 -19 -37 -1 -2 29 46 40 42 171 -7 197 -10 6 -19 15 -19 20
0 13 7 13 31 0z m-2571 -20 c0 -13 -7 -20 -20 -20 -19 0 -27 20 -13 33 13 14
33 6 33 -13z m-2740 -5 c0 -9 -9 -15 -24 -15 -26 0 -51 -24 -41 -40 3 -5 19
-10 36 -10 19 0 29 -5 29 -15 0 -10 -11 -15 -35 -15 l-35 0 0 -55 c0 -42 -3
-55 -15 -55 -12 0 -15 13 -15 55 0 48 -2 55 -20 55 -11 0 -20 7 -20 15 0 8 9
15 20 15 15 0 20 7 20 24 0 14 10 32 22 40 29 21 78 21 78 1z m1202 -15 c23
-29 23 -55 -2 -80 l-20 -20 20 -40 c25 -48 25 -50 1 -50 -13 0 -24 14 -35 45
-10 25 -24 45 -32 45 -10 0 -14 -13 -14 -45 0 -38 -3 -45 -20 -45 -19 0 -20 7
-20 103 0 57 3 107 8 111 15 16 96 -1 114 -24z m365 13 c3 -7 -9 -13 -29 -15
-25 -2 -34 -8 -36 -25 -3 -20 1 -23 33 -23 46 0 43 -24 -3 -28 -32 -3 -32 -4
-32 -58 0 -41 -4 -54 -15 -54 -11 0 -15 13 -15 54 0 48 -2 55 -22 58 -32 5
-35 28 -4 28 22 0 26 4 26 30 0 17 7 33 18 39 22 14 74 10 79 -6z m243 -28 c0
-45 0 -45 35 -45 35 0 35 0 35 46 0 32 4 44 13 42 8 -3 13 -37 15 -111 2 -89
0 -107 -12 -107 -11 0 -16 14 -18 48 -3 45 -4 47 -33 47 -29 0 -30 -2 -33 -47
-2 -34 -7 -48 -18 -48 -11 0 -14 20 -14 103 0 57 3 107 7 110 16 16 23 4 23
-38z m280 30 c0 -9 -9 -15 -25 -15 -25 0 -25 0 -25 -95 0 -88 -1 -95 -20 -95
-19 0 -20 7 -20 95 0 95 0 95 -25 95 -16 0 -25 6 -25 15 0 12 14 15 70 15 56
0 70 -3 70 -15z m91 -27 l12 -43 14 43 c10 30 20 42 34 42 18 0 19 -8 19 -110
0 -91 -3 -110 -15 -110 -12 0 -15 16 -16 78 -1 68 -2 73 -11 45 -13 -40 -33
-42 -46 -5 -9 23 -11 15 -11 -45 -1 -58 -4 -73 -16 -73 -12 0 -15 19 -15 110
0 103 1 110 20 110 14 0 22 -11 31 -42z m167 -56 l3 -92 44 0 c33 0 45 -4 45
-15 0 -12 -14 -15 -65 -15 l-65 0 0 103 c0 57 3 107 7 111 19 19 28 -8 31 -92z
m244 68 c26 -33 25 -129 -3 -164 -17 -21 -29 -26 -65 -26 l-44 0 0 111 0 112
47 -6 c32 -3 53 -12 65 -27z m538 15 c0 -11 -12 -15 -45 -15 -43 0 -45 -1 -45
-30 0 -28 2 -30 40 -30 29 0 40 -4 40 -15 0 -11 -11 -15 -40 -15 -39 0 -40 -1
-40 -35 0 -35 0 -35 45 -35 33 0 45 -4 45 -15 0 -12 -14 -15 -65 -15 l-65 0 0
103 c0 57 3 107 7 110 3 4 33 7 65 7 45 0 58 -3 58 -15z m118 -82 l3 -92 32
-3 c41 -4 37 -22 -5 -26 -55 -4 -63 8 -67 103 -3 82 -4 85 -27 85 -15 0 -24 6
-24 16 0 12 9 14 43 12 l42 -3 3 -92z m862 62 c0 -22 4 -25 36 -25 45 0 41
-24 -5 -28 -32 -3 -32 -4 -29 -50 3 -43 5 -47 31 -50 40 -5 35 -32 -6 -32 -45
0 -57 15 -57 76 0 46 -3 53 -22 56 -32 5 -35 28 -4 28 21 0 26 5 26 25 0 16 6
25 15 25 9 0 15 -9 15 -25z m870 -58 c0 -89 8 -107 47 -107 13 0 23 -4 23 -10
0 -13 -46 -13 -71 0 -16 9 -19 22 -19 95 l0 85 -30 0 c-16 0 -30 5 -30 10 0 6
18 10 40 10 l40 0 0 -83z m180 -6 c0 -93 4 -101 51 -101 10 0 19 -5 19 -11 0
-16 -80 -4 -91 13 -5 7 -9 48 -9 91 0 75 0 77 -25 77 -14 0 -25 5 -25 10 0 6
18 10 40 10 l40 0 0 -89z m-5930 59 c0 -16 7 -20 30 -20 17 0 30 -4 30 -10 0
-5 -13 -10 -30 -10 -30 0 -30 -1 -30 -55 0 -54 1 -56 30 -61 35 -8 40 -24 7
-24 -41 0 -56 21 -59 80 -3 48 -6 55 -25 58 -29 4 -30 22 -2 22 12 0 23 8 26
20 3 11 9 20 14 20 5 0 9 -9 9 -20z m400 -30 c23 -23 27 -60 6 -60 -7 0 -16 9
-19 20 -3 11 -13 23 -22 27 -27 10 -45 -24 -45 -84 0 -40 -4 -53 -15 -53 -12
0 -15 16 -15 81 0 75 2 81 19 76 10 -2 25 -1 32 4 22 14 37 11 59 -11z m164
-1 c17 -14 26 -30 26 -50 0 -28 -1 -29 -51 -29 -43 0 -50 -3 -47 -17 4 -22 44
-29 64 -12 23 19 40 -4 19 -25 -21 -21 -73 -21 -97 1 -21 19 -25 100 -5 125
25 32 56 35 91 7z m1047 2 c29 -24 18 -39 -15 -21 -27 14 -60 7 -54 -12 3 -7
18 -15 35 -19 16 -3 35 -9 41 -13 16 -9 15 -59 0 -74 -13 -13 -66 -16 -92 -6
-20 8 -21 44 -1 44 8 0 15 -4 15 -10 0 -5 14 -10 31 -10 41 0 36 32 -7 41 -45
9 -54 17 -54 50 0 47 59 64 101 30z m173 -2 c17 -14 26 -30 26 -50 0 -28 -1
-29 -51 -29 -43 0 -50 -3 -47 -17 4 -22 44 -29 64 -12 23 19 40 -4 19 -25 -21
-21 -73 -21 -97 1 -21 19 -25 100 -5 125 25 32 56 35 91 7z m359 -11 c9 -11
17 -31 17 -44 0 -22 -4 -24 -51 -24 -43 0 -50 -3 -47 -17 4 -21 43 -29 63 -13
8 6 19 9 25 5 20 -12 -20 -45 -56 -45 -50 0 -65 22 -62 88 3 49 6 58 28 69 30
15 59 8 83 -19z m357 22 c0 -6 -20 -20 -45 -32 -25 -12 -45 -26 -45 -30 0 -5
20 -18 45 -30 38 -18 58 -38 40 -38 -18 0 -115 57 -115 67 0 7 26 26 58 42 67
35 62 34 62 21z m1733 -22 c9 -11 17 -31 17 -44 0 -22 -4 -24 -51 -24 -43 0
-50 -3 -47 -17 4 -21 43 -29 63 -13 8 6 19 9 25 5 20 -12 -20 -45 -56 -45 -50
0 -65 22 -62 88 3 49 6 58 28 69 30 15 59 8 83 -19z m122 22 c4 -6 13 -5 25 2
14 9 22 9 34 -1 22 -19 23 -161 1 -161 -10 0 -15 16 -17 65 -2 36 -7 65 -13
65 -5 0 -11 -29 -13 -65 -2 -49 -7 -65 -17 -65 -12 0 -15 15 -15 70 0 39 -4
70 -9 70 -14 0 -21 -28 -21 -86 0 -41 -4 -54 -15 -54 -12 0 -15 15 -15 79 0
79 0 80 28 84 15 2 30 5 34 6 4 0 10 -3 13 -9z m228 -22 c9 -11 17 -31 17 -44
0 -22 -4 -24 -51 -24 -43 0 -50 -3 -47 -17 4 -21 43 -29 63 -13 8 6 19 9 25 5
20 -12 -20 -45 -56 -45 -50 0 -65 22 -62 88 3 49 6 58 28 69 30 15 59 8 83
-19z m167 12 c26 -26 30 -150 5 -150 -11 0 -15 12 -15 51 0 56 -13 89 -35 89
-22 0 -35 -33 -35 -89 0 -39 -4 -51 -15 -51 -12 0 -15 16 -15 81 0 75 2 81 19
76 10 -2 25 -1 32 4 22 14 37 11 59 -11z m305 -7 c73 -36 72 -54 -5 -93 -43
-22 -60 -26 -60 -16 0 7 23 23 50 35 28 12 50 24 50 26 0 3 -22 16 -50 30 -27
14 -50 30 -50 35 0 14 3 13 65 -17z m1234 18 c19 -12 6 -41 -19 -41 -13 0 -20
7 -20 18 0 31 14 39 39 23z m-6934 -23 c18 -27 1 -39 -19 -13 -7 10 -22 16
-37 13 -21 -3 -24 -9 -27 -46 -5 -64 27 -92 62 -56 9 8 21 14 28 12 19 -7 -29
-48 -55 -48 -42 0 -60 23 -61 77 -1 29 5 57 13 66 20 25 76 22 96 -5z m169 6
c10 -10 16 -33 16 -64 0 -39 -4 -52 -22 -64 -53 -37 -98 -7 -98 65 0 55 18 79
60 79 16 0 36 -7 44 -16z m172 5 c16 -13 20 -149 4 -149 -5 0 -10 30 -12 68
l-3 67 -30 0 -30 0 -3 -67 c-4 -94 -22 -85 -22 10 l0 79 41 1 c23 1 48 -3 55
-9z m168 5 c9 -3 16 -12 16 -20 0 -17 -12 -18 -27 -3 -15 15 -58 7 -58 -11 0
-8 16 -19 35 -25 19 -5 41 -14 48 -18 17 -11 15 -42 -4 -61 -20 -20 -78 -21
-94 -1 -18 22 -7 28 23 14 32 -14 57 -6 57 19 0 14 -11 21 -42 28 -34 7 -44
14 -46 32 -2 13 2 30 8 38 13 14 56 19 84 8z m1496 -43 c0 -64 7 -81 35 -81
28 0 35 17 35 81 0 37 4 49 15 49 21 0 21 -107 -1 -138 -18 -27 -69 -30 -96
-5 -24 22 -27 143 -3 143 11 0 15 -12 15 -49z m2150 -16 c0 -63 1 -65 25 -65
16 0 25 -6 25 -15 0 -12 -14 -15 -70 -15 -56 0 -70 3 -70 15 0 10 10 15 30 15
29 0 30 1 30 50 0 47 -2 50 -25 50 -16 0 -25 6 -25 15 0 11 11 15 40 15 l40 0
0 -65z m128 8 c8 -29 18 -53 22 -53 5 0 13 23 20 51 11 46 32 71 47 55 3 -3
-7 -40 -22 -81 -23 -64 -31 -76 -48 -73 -15 2 -26 20 -44 72 -27 83 -28 88 -6
84 10 -2 22 -22 31 -55z m1809 45 c16 -13 18 -148 3 -148 -5 0 -10 26 -10 58
0 68 -9 85 -41 80 -22 -3 -24 -8 -27 -70 -2 -52 -6 -68 -17 -68 -12 0 -15 17
-15 79 l0 78 47 1 c26 1 53 -4 60 -10z m95 -49 c2 -45 8 -65 20 -72 30 -19 48
8 48 74 0 48 3 59 16 59 14 0 16 -10 12 -66 -4 -71 -20 -94 -64 -94 -40 0 -54
26 -54 96 0 82 18 84 22 3z m-4432 36 c0 -12 -14 -15 -65 -15 -60 0 -75 6 -58
23 3 4 33 7 65 7 45 0 58 -3 58 -15z m0 -70 c0 -12 -14 -15 -65 -15 -51 0 -65
3 -65 15 0 12 14 15 65 15 51 0 65 -3 65 -15z m5176 -57 c-8 -50 -13 -58 -32
-58 -12 0 -14 7 -9 33 12 58 16 67 32 67 13 0 14 -8 9 -42z m-5876 -207 c0 -5
-9 -11 -20 -14 -16 -4 -20 -14 -20 -50 0 -25 -5 -49 -11 -53 -8 -4 -8 -9 0
-17 6 -6 11 -31 11 -55 0 -35 4 -45 20 -49 26 -7 26 -23 1 -23 -31 0 -50 36
-44 81 5 37 4 39 -26 45 -38 8 -40 22 -3 26 25 3 27 6 27 51 1 49 13 67 48 67
9 0 17 -4 17 -9z m3068 -3 c7 -7 12 -34 12 -60 0 -47 1 -48 30 -48 38 0 40
-18 3 -22 -26 -3 -28 -7 -31 -53 -3 -49 -20 -75 -49 -75 -21 0 -15 18 8 25 19
6 20 12 15 47 -4 25 -2 46 5 54 8 10 8 18 1 27 -7 8 -9 29 -5 51 5 32 3 38
-16 43 -11 3 -21 9 -21 14 0 13 34 11 48 -3z m2322 2 c0 -6 -7 -13 -15 -17
-57 -21 -60 -172 -5 -210 26 -18 25 -33 -1 -26 -37 10 -59 61 -59 136 0 62 3
71 29 98 30 29 51 37 51 19z m-4398 -102 l3 -93 33 -3 c48 -5 43 -32 -6 -32
-55 0 -62 12 -62 107 l0 83 -30 0 c-29 0 -38 9 -23 23 3 4 23 7 44 7 l38 0 3
-92z m176 -5 l3 -92 32 -3 c41 -4 37 -22 -5 -26 -55 -4 -63 8 -67 103 -3 82
-4 85 -27 85 -15 0 -24 6 -24 16 0 12 9 14 43 12 l42 -3 3 -92z m142 46 l24
-51 25 51 c14 28 31 51 38 51 19 0 16 -14 -17 -80 -19 -37 -30 -75 -30 -100 0
-29 -4 -40 -15 -40 -11 0 -15 11 -15 40 0 25 -11 63 -30 100 -33 66 -36 80
-17 80 8 0 24 -23 37 -51z m255 31 c20 -16 19 -74 -1 -94 -8 -9 -31 -16 -50
-16 -34 0 -34 0 -34 -45 0 -33 -4 -45 -15 -45 -12 0 -15 19 -15 111 l0 112 50
-5 c27 -3 56 -11 65 -18z m2767 8 c24 -20 30 -48 11 -48 -9 0 -22 8 -29 18
-10 13 -17 15 -31 6 -29 -18 -21 -37 22 -58 22 -10 43 -23 47 -30 13 -19 9
-64 -8 -80 -32 -33 -114 -11 -114 30 0 19 26 18 34 -2 9 -25 60 -14 64 14 3
18 -5 26 -41 41 -60 26 -74 64 -37 101 23 23 59 26 82 8z m666 -85 l3 -93 34
0 c24 0 35 -5 35 -15 0 -19 -73 -21 -88 -2 -6 7 -12 49 -14 92 -3 79 -3 80
-30 83 -17 2 -28 9 -28 18 0 12 10 14 43 12 l42 -3 3 -92z m174 5 l3 -93 33
-3 c49 -5 43 -32 -8 -32 -51 0 -60 17 -60 114 0 74 -1 76 -25 76 -16 0 -25 6
-25 15 0 11 11 15 40 15 l39 0 3 -92z m-5582 52 c0 -16 7 -20 30 -20 17 0 30
-4 30 -10 0 -5 -13 -10 -30 -10 -30 0 -30 -1 -30 -55 0 -54 1 -56 30 -61 35
-8 40 -24 7 -24 -41 0 -56 21 -59 80 -3 48 -6 55 -25 58 -29 4 -30 22 -2 22
12 0 23 8 26 20 3 11 9 20 14 20 5 0 9 -9 9 -20z m741 -29 c29 -24 18 -39 -15
-21 -27 14 -60 7 -54 -12 3 -7 18 -15 35 -19 16 -3 35 -9 41 -13 16 -9 15 -59
0 -74 -13 -13 -66 -16 -92 -6 -20 8 -21 44 -1 44 8 0 15 -4 15 -10 0 -5 14
-10 31 -10 41 0 36 32 -7 41 -45 9 -54 17 -54 50 0 47 59 64 101 30z m187 -8
c26 -35 3 -46 -30 -16 -30 27 -53 6 -53 -48 0 -41 2 -44 28 -47 18 -2 29 2 33
12 7 18 34 22 34 4 0 -23 -34 -48 -66 -48 -50 0 -65 22 -62 88 3 49 7 58 28
69 29 15 70 9 88 -14z m165 15 c9 -7 19 -25 23 -40 5 -22 3 -28 -10 -28 -9 0
-21 11 -26 25 -5 14 -15 25 -23 25 -26 0 -37 -25 -37 -82 0 -45 -3 -58 -15
-58 -12 0 -15 16 -15 81 0 75 2 81 19 76 10 -2 25 -1 32 4 19 12 32 11 52 -3z
m180 -20 c21 -25 22 -86 1 -116 -10 -15 -25 -22 -49 -22 -51 0 -66 22 -63 88
3 49 6 58 28 69 30 15 59 8 83 -19z m865 16 c24 -16 31 -64 9 -64 -7 0 -17 10
-22 23 -6 12 -19 22 -30 22 -18 0 -20 -8 -23 -67 -3 -60 -5 -68 -22 -68 -18 0
-20 7 -20 79 l0 80 33 4 c17 2 37 5 42 5 6 1 21 -5 33 -14z m180 -12 c18 -23
15 -107 -4 -126 -24 -24 -80 -20 -98 6 -18 26 -21 80 -5 109 21 39 80 45 107
11z m170 18 c21 0 22 -4 22 -77 0 -103 -13 -127 -68 -131 -33 -2 -42 0 -42 12
0 12 10 16 35 16 28 0 35 4 35 20 0 16 -5 19 -28 14 -42 -8 -62 16 -62 76 0
39 4 52 23 65 12 9 31 13 42 11 11 -3 30 -6 43 -6z m184 -13 c13 -21 9 -57 -7
-57 -8 0 -15 9 -15 20 0 25 -25 36 -45 20 -10 -8 -15 -31 -15 -71 0 -46 -3
-59 -15 -59 -12 0 -15 16 -15 81 0 76 1 81 20 76 11 -3 23 -1 26 5 8 12 56 1
66 -15z m165 0 c6 -7 13 -25 15 -42 3 -29 2 -30 -45 -33 -39 -3 -48 -6 -45
-20 4 -21 44 -28 64 -11 19 16 31 3 18 -19 -8 -12 -25 -17 -55 -17 -36 0 -46
4 -57 25 -18 36 -8 101 19 123 24 19 63 16 86 -6z m181 -5 c17 -22 -2 -29 -34
-12 -19 11 -26 11 -39 0 -19 -16 -10 -30 18 -30 53 0 88 -60 53 -89 -21 -18
-97 -10 -110 11 -15 24 0 34 28 19 26 -15 57 -12 63 6 4 11 -4 15 -59 27 -19
4 -30 15 -34 33 -14 55 78 84 114 35z m163 9 c31 -25 18 -37 -21 -21 -22 9
-34 10 -42 2 -14 -14 -1 -32 23 -32 36 0 59 -19 59 -48 0 -39 -17 -52 -67 -52
-33 0 -45 5 -53 21 -15 26 -5 37 20 21 11 -7 31 -12 46 -12 40 0 28 34 -14 38
-58 6 -79 72 -28 92 33 14 52 11 77 -9z m1220 0 c31 -25 18 -37 -21 -21 -22 9
-34 10 -42 2 -14 -14 -1 -32 23 -32 36 0 59 -19 59 -48 0 -39 -17 -52 -67 -52
-33 0 -45 5 -53 21 -15 26 -5 37 20 21 11 -7 31 -12 46 -12 40 0 28 34 -14 38
-58 6 -79 72 -28 92 33 14 52 11 77 -9z m182 -13 c9 -11 17 -31 17 -44 0 -22
-4 -24 -51 -24 -43 0 -50 -3 -47 -17 4 -21 43 -29 63 -13 8 6 19 9 25 5 20
-12 -20 -45 -56 -45 -50 0 -65 22 -62 88 3 49 6 58 28 69 30 15 59 8 83 -19z
m345 5 c24 -24 25 -28 9 -31 -10 -2 -24 4 -31 13 -9 12 -19 15 -35 10 -19 -6
-22 -13 -19 -53 3 -41 6 -47 26 -50 14 -2 29 4 37 15 21 28 39 4 19 -25 -17
-25 -69 -30 -98 -9 -14 10 -17 25 -14 72 3 52 6 61 28 72 36 18 48 16 78 -14z
m184 4 c13 -21 9 -57 -7 -57 -8 0 -15 9 -15 20 0 25 -25 36 -45 20 -10 -8 -15
-31 -15 -71 0 -46 -3 -59 -15 -59 -12 0 -15 16 -15 81 0 76 1 81 20 76 11 -3
23 -1 26 5 8 12 56 1 66 -15z m166 -5 c18 -23 15 -107 -4 -126 -24 -24 -80
-20 -98 6 -18 26 -21 80 -5 109 21 39 80 45 107 11z m-5923 -4 c18 -27 1 -39
-19 -13 -7 10 -22 16 -37 13 -21 -3 -24 -9 -27 -46 -5 -64 27 -92 62 -56 9 8
21 14 28 12 19 -7 -29 -48 -55 -48 -42 0 -60 23 -61 77 -1 29 5 57 13 66 20
25 76 22 96 -5z m169 6 c10 -10 16 -33 16 -64 0 -39 -4 -52 -22 -64 -53 -37
-98 -7 -98 65 0 55 18 79 60 79 16 0 36 -7 44 -16z m172 5 c16 -13 20 -149 4
-149 -5 0 -10 30 -12 68 l-3 67 -30 0 -30 0 -3 -67 c-4 -94 -22 -85 -22 10 l0
79 41 1 c23 1 48 -3 55 -9z m168 5 c9 -3 16 -12 16 -20 0 -17 -12 -18 -27 -3
-15 15 -58 7 -58 -11 0 -8 16 -19 35 -25 19 -5 41 -14 48 -18 17 -11 15 -42
-4 -61 -20 -20 -78 -21 -94 -1 -18 22 -7 28 23 14 32 -14 57 -6 57 19 0 14
-11 21 -42 28 -34 7 -44 14 -46 32 -2 13 2 30 8 38 13 14 56 19 84 8z m4288
-56 c3 -60 4 -63 28 -63 24 0 25 3 28 63 3 54 6 62 22 62 17 0 20 -7 20 -52 0
-74 -17 -102 -61 -106 -54 -5 -69 16 -69 94 0 49 3 64 15 64 10 0 15 -16 17
-62z m-252 37 c0 -12 -14 -15 -65 -15 -51 0 -65 3 -65 15 0 12 14 15 65 15 51
0 65 -3 65 -15z m0 -70 c0 -12 -14 -15 -65 -15 -51 0 -65 3 -65 15 0 12 14 15
65 15 51 0 65 -3 65 -15z m-2440 -299 c0 -9 -12 -16 -27 -18 -20 -2 -29 -9
-31 -25 -3 -20 1 -23 27 -23 21 0 31 -5 31 -15 0 -10 -10 -15 -30 -15 -30 0
-30 -1 -30 -55 0 -42 -3 -55 -15 -55 -12 0 -15 13 -15 55 0 52 -1 55 -25 55
-16 0 -25 6 -25 15 0 9 9 15 25 15 21 0 25 5 25 30 0 33 21 49 63 50 17 0 27
-5 27 -14z m-1800 -21 c0 -21 5 -25 30 -25 20 0 30 -5 30 -15 0 -10 -10 -15
-30 -15 -29 0 -30 -1 -30 -50 0 -49 1 -50 30 -50 20 0 30 -5 30 -15 0 -10 -10
-15 -32 -15 -50 0 -61 12 -66 74 -4 46 -8 56 -23 56 -11 0 -19 7 -19 15 0 8 9
15 20 15 13 0 20 7 20 18 0 22 8 32 27 32 7 0 13 -11 13 -25z m870 0 c0 -21 5
-25 30 -25 20 0 30 -5 30 -15 0 -10 -10 -15 -30 -15 -29 0 -30 -1 -30 -50 0
-49 1 -50 30 -50 20 0 30 -5 30 -15 0 -10 -10 -15 -32 -15 -50 0 -61 12 -66
74 -4 46 -8 56 -23 56 -11 0 -19 7 -19 15 0 8 9 15 20 15 13 0 20 7 20 18 0
22 8 32 27 32 7 0 13 -11 13 -25z m-662 -31 c19 -13 22 -24 22 -83 l0 -68 -52
-2 c-60 -1 -78 11 -78 50 0 33 23 49 69 49 34 0 39 11 15 31 -12 10 -20 10
-35 1 -27 -17 -50 -15 -42 4 12 32 67 42 101 18z m180 0 c24 -16 31 -64 9 -64
-7 0 -17 10 -22 23 -6 12 -19 22 -30 22 -18 0 -20 -8 -23 -67 -3 -60 -5 -68
-22 -68 -18 0 -20 7 -20 79 l0 80 33 4 c17 2 37 5 42 5 6 1 21 -5 33 -14z
m146 7 c3 -5 15 -7 26 -4 19 5 20 0 20 -85 0 -106 -10 -122 -72 -122 -47 0
-49 23 -2 28 26 4 43 16 44 34 0 4 -15 4 -34 1 -29 -4 -37 -1 -51 21 -22 33
-15 104 11 123 21 15 50 17 58 4z m203 -14 c6 -7 13 -25 15 -42 3 -29 2 -30
-45 -33 -39 -3 -48 -6 -45 -20 4 -21 44 -28 64 -11 19 16 31 3 18 -19 -8 -12
-25 -17 -55 -17 -36 0 -46 4 -57 25 -18 36 -8 101 19 123 24 19 63 16 86 -6z
m320 12 c16 -16 5 -39 -17 -39 -25 0 -35 18 -20 35 15 18 22 19 37 4z m376 -1
c9 -7 19 -25 23 -40 5 -22 3 -28 -10 -28 -9 0 -21 11 -26 25 -5 14 -15 25 -23
25 -26 0 -37 -25 -37 -82 0 -45 -3 -58 -15 -58 -12 0 -15 16 -15 81 0 75 2 81
19 76 10 -2 25 -1 32 4 19 12 32 11 52 -3z m180 -20 c9 -11 17 -31 17 -44 0
-22 -4 -24 -51 -24 -43 0 -50 -3 -47 -17 4 -21 43 -29 63 -13 8 6 19 9 25 5
20 -12 -20 -45 -56 -45 -50 0 -65 22 -62 88 3 49 6 58 28 69 30 15 59 8 83
-19z m313 -130 c-8 -50 -13 -58 -32 -58 -12 0 -14 8 -9 38 10 55 13 62 31 62
14 0 15 -7 10 -42z m-861 12 c0 -18 -33 -26 -47 -12 -6 6 -7 15 -3 22 10 16
50 8 50 -10z m365 -215 c0 -8 -9 -15 -20 -15 -19 0 -20 -7 -20 -110 0 -103 1
-110 20 -110 11 0 20 -7 20 -15 0 -10 -11 -15 -35 -15 l-35 0 0 140 0 140 35
0 c24 0 35 -5 35 -15z m4690 -125 l0 -140 -41 0 c-43 0 -52 22 -11 28 21 3 22
8 22 113 l0 109 -25 0 c-24 0 -32 10 -18 23 3 4 21 7 40 7 l33 0 0 -140z
m-5883 93 c3 -7 -9 -13 -29 -15 -25 -2 -34 -8 -36 -25 -3 -20 1 -23 33 -23 46
0 43 -24 -3 -28 -32 -3 -32 -4 -32 -58 0 -41 -4 -54 -15 -54 -11 0 -15 13 -15
54 0 48 -2 55 -22 58 -32 5 -35 28 -4 28 22 0 26 4 26 30 0 17 7 33 18 39 22
14 74 10 79 -6z m173 3 c0 -9 -12 -16 -27 -18 -20 -2 -29 -9 -31 -25 -3 -20 1
-23 27 -23 21 0 31 -5 31 -15 0 -10 -10 -15 -30 -15 -30 0 -30 -1 -30 -55 0
-48 -2 -55 -20 -55 -18 0 -20 7 -20 55 0 48 -2 55 -20 55 -11 0 -20 7 -20 15
0 8 9 15 20 15 13 0 20 7 20 20 0 11 9 29 20 40 23 23 80 27 80 6z m460 -21
c0 -21 5 -25 30 -25 20 0 30 -5 30 -15 0 -10 -10 -15 -30 -15 -29 0 -30 -1
-30 -50 0 -49 1 -50 30 -50 20 0 30 -5 30 -15 0 -10 -10 -15 -32 -15 -50 0
-61 12 -66 74 -4 46 -8 56 -23 56 -11 0 -19 7 -19 15 0 8 9 15 20 15 13 0 20
7 20 18 0 22 8 32 27 32 7 0 13 -11 13 -25z m680 16 c0 -25 -14 -71 -21 -71
-5 0 -9 18 -9 40 0 29 4 40 15 40 8 0 15 -4 15 -9z m60 -31 c0 -29 -4 -40 -15
-40 -11 0 -15 11 -15 40 0 29 4 40 15 40 11 0 15 -11 15 -40z m300 15 c0 -21
5 -25 30 -25 17 0 30 -4 30 -10 0 -5 -13 -10 -30 -10 -30 0 -30 -1 -30 -55 0
-54 0 -55 30 -55 20 0 30 -5 30 -15 0 -20 -54 -20 -74 1 -11 10 -16 34 -16 70
0 47 -2 54 -20 54 -11 0 -20 5 -20 10 0 6 9 10 20 10 15 0 20 7 20 25 0 16 6
25 15 25 9 0 15 -9 15 -25z m520 0 c0 -22 4 -25 35 -25 19 0 35 -4 35 -10 0
-5 -16 -10 -35 -10 l-35 0 0 -55 c0 -54 0 -55 30 -55 20 0 30 -5 30 -15 0 -10
-10 -15 -27 -15 -46 0 -56 14 -61 79 -4 51 -7 61 -23 61 -11 0 -19 5 -19 10 0
6 9 10 20 10 13 0 20 7 20 18 0 10 3 22 7 25 13 14 23 6 23 -18z m520 0 c0
-22 4 -25 35 -25 44 0 46 -18 3 -22 -32 -3 -33 -4 -33 -53 0 -47 2 -50 29 -55
43 -7 46 -30 3 -30 -45 0 -55 14 -59 80 -3 48 -6 55 -25 58 -31 5 -29 22 2 22
20 0 25 5 25 25 0 14 5 25 10 25 6 0 10 -11 10 -25z m528 -3 c3 -17 10 -22 33
-22 16 0 29 -4 29 -10 0 -5 -13 -10 -30 -10 -30 0 -30 -1 -30 -55 0 -54 0 -55
30 -55 20 0 30 -5 30 -15 0 -19 -60 -21 -78 -3 -7 7 -12 38 -12 70 0 55 -1 58
-25 58 -14 0 -25 5 -25 10 0 6 11 10 25 10 20 0 25 5 25 26 0 31 23 28 28 -4z
m162 19 c0 -25 -14 -71 -21 -71 -5 0 -9 18 -9 40 0 29 4 40 15 40 8 0 15 -4
15 -9z m60 -31 c0 -29 -4 -40 -15 -40 -11 0 -15 11 -15 40 0 29 4 40 15 40 11
0 15 -11 15 -40z m460 0 c0 -29 -4 -40 -15 -40 -11 0 -15 11 -15 40 0 29 4 40
15 40 11 0 15 -11 15 -40z m60 0 c0 -29 -4 -40 -15 -40 -11 0 -15 11 -15 40 0
29 4 40 15 40 11 0 15 -11 15 -40z m540 -63 l0 -104 -47 -1 c-27 0 -54 4 -60
10 -8 6 -13 34 -13 68 0 66 14 85 60 78 27 -4 30 -2 30 24 0 18 5 28 15 28 12
0 15 -18 15 -103z m460 78 c0 -21 5 -25 30 -25 17 0 30 -4 30 -10 0 -5 -13
-10 -30 -10 -30 0 -30 -1 -30 -55 0 -54 0 -55 30 -55 20 0 30 -5 30 -15 0 -20
-54 -20 -74 1 -11 10 -16 34 -16 70 0 47 -2 54 -20 54 -11 0 -20 5 -20 10 0 6
9 10 20 10 15 0 20 7 20 25 0 16 6 25 15 25 9 0 15 -9 15 -25z m520 0 c0 -22
4 -25 35 -25 19 0 35 -4 35 -10 0 -5 -16 -10 -35 -10 l-35 0 0 -55 c0 -54 0
-55 30 -55 20 0 30 -5 30 -15 0 -10 -10 -15 -27 -15 -46 0 -56 14 -61 79 -4
51 -7 61 -23 61 -11 0 -19 5 -19 10 0 6 9 10 20 10 13 0 20 7 20 18 0 10 3 22
7 25 13 14 23 6 23 -18z m160 -15 c0 -29 -4 -40 -15 -40 -11 0 -15 11 -15 40
0 29 4 40 15 40 11 0 15 -11 15 -40z m60 0 c0 -40 -13 -53 -24 -24 -11 29 -7
64 9 64 11 0 15 -11 15 -40z m-5937 -11 c31 -17 37 -28 37 -78 0 -54 -21 -81
-63 -81 -46 0 -67 25 -67 79 0 51 5 62 35 79 25 14 32 15 58 1z m538 -8 c31
-25 18 -37 -21 -21 -22 9 -34 10 -42 2 -14 -14 -1 -32 23 -32 36 0 59 -19 59
-48 0 -39 -17 -52 -67 -52 -33 0 -45 5 -53 21 -15 26 -5 37 20 21 11 -7 31
-12 46 -12 40 0 28 34 -14 38 -58 6 -79 72 -28 92 33 14 52 11 77 -9z m176 -4
c6 -7 13 -25 15 -42 3 -29 2 -30 -45 -33 -39 -3 -48 -6 -45 -20 4 -21 44 -28
64 -11 19 16 31 3 18 -19 -8 -12 -25 -17 -55 -17 -36 0 -46 4 -57 25 -18 36
-8 101 19 123 24 19 63 16 86 -6z m320 12 c16 -16 5 -39 -17 -39 -25 0 -35 18
-20 35 15 18 22 19 37 4z m717 -5 c9 -3 16 -12 16 -20 0 -17 -12 -18 -27 -3
-15 15 -58 7 -58 -10 0 -8 15 -19 35 -23 81 -21 77 -98 -5 -98 -38 0 -72 27
-56 43 6 6 15 4 26 -7 18 -18 33 -20 54 -7 23 14 5 38 -33 45 -41 8 -57 31
-45 64 6 17 16 22 43 22 19 0 41 -3 50 -6z m354 -6 c15 -15 16 -148 2 -148 -5
0 -10 5 -10 12 0 9 -3 9 -12 0 -15 -15 -61 -15 -76 0 -7 7 -12 25 -12 40 0 31
28 48 76 48 19 0 25 5 22 18 -4 20 -45 29 -61 13 -6 -6 -15 -11 -19 -11 -13 0
-9 28 5 33 23 10 73 7 85 -5z m192 -13 c14 -36 13 -45 -4 -45 -8 0 -16 10 -18
22 -2 13 -11 24 -21 26 -33 7 -47 -17 -47 -79 0 -33 -4 -59 -10 -59 -6 0 -10
33 -10 78 l0 79 50 2 c46 1 51 -1 60 -24z m508 13 c16 -16 15 -28 -3 -28 -8 0
-15 5 -15 11 0 16 -54 6 -58 -12 -2 -10 10 -18 40 -25 37 -8 43 -13 46 -37 2
-16 -2 -35 -9 -43 -23 -28 -109 -11 -109 22 0 9 3 14 8 12 4 -2 20 -10 35 -18
24 -12 30 -12 44 2 21 22 11 34 -37 42 -31 5 -41 11 -46 31 -4 15 -1 32 6 40
15 18 81 20 98 3z m350 0 c7 -7 12 -40 12 -78 l0 -67 -50 -1 c-51 -1 -80 15
-80 44 0 24 38 54 70 54 20 0 30 5 30 15 0 23 -28 30 -56 15 -28 -16 -42 -7
-24 15 15 18 81 20 98 3z m179 0 c14 -12 18 -58 5 -58 -5 0 -14 12 -20 26 -9
18 -19 24 -35 22 -20 -3 -22 -9 -25 -70 -2 -52 -6 -68 -17 -68 -12 0 -15 17
-15 79 l0 78 47 1 c26 1 53 -4 60 -10z m1043 -7 c5 -11 10 -29 10 -40 0 -17
-8 -20 -47 -23 -51 -3 -61 -14 -39 -43 12 -17 17 -17 45 -5 37 15 55 5 27 -16
-26 -19 -71 -18 -90 2 -18 18 -22 95 -6 125 8 14 21 19 50 19 29 0 42 -5 50
-19z m167 7 c15 -12 19 -148 3 -148 -5 0 -10 28 -12 61 -3 65 -19 88 -52 76
-12 -5 -16 -20 -16 -72 0 -51 -3 -65 -15 -65 -12 0 -15 15 -15 79 l0 78 47 1
c26 1 53 -4 60 -10z m517 6 c9 -3 16 -12 16 -20 0 -17 -12 -18 -27 -3 -15 15
-58 7 -58 -10 0 -8 15 -19 35 -23 81 -21 77 -98 -5 -98 -38 0 -72 27 -56 43 6
6 15 4 26 -7 18 -18 33 -20 54 -7 23 14 5 38 -33 45 -41 8 -57 31 -45 64 6 17
16 22 43 22 19 0 41 -3 50 -6z m354 -6 c15 -15 16 -148 2 -148 -5 0 -10 5 -10
12 0 9 -3 9 -12 0 -15 -15 -61 -15 -76 0 -7 7 -12 25 -12 40 0 31 28 48 76 48
19 0 25 5 22 18 -4 20 -45 29 -61 13 -6 -6 -15 -11 -19 -11 -13 0 -9 28 5 33
23 10 73 7 85 -5z m179 0 c14 -11 18 -58 5 -58 -4 0 -12 10 -17 23 -7 14 -19
22 -35 22 -24 0 -25 -3 -28 -67 -2 -52 -6 -68 -17 -68 -12 0 -15 17 -15 79 l0
78 47 1 c26 1 53 -4 60 -10z m-1772 -130 c-12 -59 -16 -68 -32 -68 -13 0 -14
8 -9 42 8 50 13 58 32 58 12 0 14 -7 9 -32z m2441 15 c-2 -10 -7 -33 -11 -50
-7 -35 -35 -46 -35 -14 0 48 13 81 32 81 14 0 18 -5 14 -17z m-5221 -13 c0
-18 -33 -26 -47 -12 -6 6 -7 15 -3 22 10 16 50 8 50 -10z m-1264 -230 c30 -17
49 -64 49 -124 0 -67 -15 -103 -52 -122 -36 -19 -37 -1 -2 29 46 40 42 171 -7
197 -10 6 -19 15 -19 20 0 13 7 13 31 0z m208 -69 c19 -12 6 -41 -19 -41 -13
0 -20 7 -20 18 0 31 14 39 39 23z m3 -116 c10 -10 -15 -95 -29 -95 -14 0 -17
38 -7 78 6 20 24 29 36 17z"/>
<path d="M1580 8065 c-16 -20 -4 -35 29 -35 35 0 43 8 30 31 -12 23 -42 25
-59 4z"/>
<path d="M2450 8065 c-16 -20 -4 -35 29 -35 35 0 43 8 30 31 -12 23 -42 25
-59 4z"/>
<path d="M2280 7654 c0 -33 2 -35 28 -32 49 6 40 67 -10 68 -14 0 -18 -8 -18
-36z"/>
<path d="M7850 7654 c0 -32 2 -35 26 -32 38 4 55 35 30 54 -36 26 -56 18 -56
-22z"/>
<path d="M2457 7634 c-17 -17 -5 -34 24 -34 24 0 30 4 27 18 -3 17 -38 29 -51
16z"/>
<path d="M2620 7550 c0 -15 7 -20 29 -20 17 0 31 6 35 16 9 24 9 24 -29 24
-28 0 -35 -4 -35 -20z"/>
<path d="M4203 7633 c-28 -11 -13 -33 22 -33 33 0 35 2 25 20 -11 20 -23 23
-47 13z"/>
<path d="M4897 7634 c-17 -17 -5 -34 24 -34 24 0 30 4 27 18 -3 17 -38 29 -51
16z"/>
<path d="M7680 7620 c-10 -18 -8 -20 25 -20 37 0 43 8 23 28 -18 18 -36 15
-48 -8z"/>
<path d="M8032 7628 c-20 -20 -14 -28 23 -28 19 0 35 4 35 8 0 12 -22 32 -35
32 -6 0 -16 -5 -23 -12z"/>
<path d="M9077 7634 c-17 -17 -5 -34 24 -34 24 0 30 4 27 18 -3 17 -38 29 -51
16z"/>
<path d="M9590 7549 c0 -16 5 -20 27 -17 17 2 29 10 31 21 3 13 -3 17 -27 17
-25 0 -31 -4 -31 -21z"/>
<path d="M9947 7634 c-17 -17 -5 -34 24 -34 24 0 30 4 27 18 -3 17 -38 29 -51
16z"/>
<path d="M1406 7625 c-11 -31 -6 -82 10 -96 28 -23 49 1 49 57 0 45 -2 49 -26
52 -17 2 -29 -3 -33 -13z"/>
<path d="M1582 7628 c-7 -7 -12 -28 -12 -48 0 -56 47 -84 70 -41 23 44 7 101
-30 101 -9 0 -21 -5 -28 -12z"/>
<path d="M6110 7620 c-10 -18 -8 -20 30 -20 38 0 40 2 30 20 -6 11 -19 20 -30
20 -11 0 -24 -9 -30 -20z"/>
<path d="M6462 7628 c-20 -20 -14 -28 24 -28 28 0 35 3 32 18 -4 21 -39 27
-56 10z"/>
<path d="M6812 7628 c-19 -19 -15 -86 6 -97 29 -16 52 5 52 47 0 38 -14 62
-35 62 -6 0 -16 -5 -23 -12z"/>
<path d="M3850 6751 c-24 -45 -7 -95 31 -89 20 2 25 10 27 41 5 59 -34 91 -58
48z"/>
<path d="M3490 6680 c0 -15 7 -20 29 -20 17 0 31 6 35 16 9 24 9 24 -29 24
-28 0 -35 -4 -35 -20z"/>
<path d="M4026 6754 c-17 -17 -21 -61 -7 -82 4 -8 19 -12 32 -10 20 2 25 10
27 41 3 36 -10 67 -29 67 -4 0 -15 -7 -23 -16z"/>
<path d="M4201 6756 c-7 -8 -11 -32 -9 -53 3 -33 7 -38 29 -41 20 -2 28 2 33
20 9 37 7 56 -10 72 -19 20 -28 20 -43 2z"/>
<path d="M5071 6756 c-7 -8 -11 -32 -9 -53 2 -31 7 -39 27 -41 28 -4 41 12 41
54 0 47 -34 70 -59 40z"/>
<path d="M1057 6763 c-4 -3 -7 -15 -7 -25 0 -14 8 -18 33 -18 41 0 49 7 36 31
-9 18 -49 26 -62 12z"/>
<path d="M1406 6755 c-11 -31 -6 -82 10 -96 28 -23 49 1 49 57 0 45 -2 49 -26
52 -17 2 -29 -3 -33 -13z"/>
<path d="M1582 6758 c-7 -7 -12 -28 -12 -48 0 -56 47 -84 70 -41 23 44 7 101
-30 101 -9 0 -21 -5 -28 -12z"/>
<path d="M2452 6758 c-7 -7 -12 -28 -12 -48 0 -56 47 -84 70 -41 23 44 7 101
-30 101 -9 0 -21 -5 -28 -12z"/>
<path d="M2631 5886 c-7 -8 -11 -32 -9 -53 3 -33 7 -38 30 -41 24 -3 28 1 33
31 11 58 -24 99 -54 63z"/>
<path d="M1761 5886 c-7 -8 -11 -32 -9 -53 2 -31 7 -39 27 -41 28 -4 41 12 41
54 0 47 -34 70 -59 40z"/>
<path d="M2444 5819 c-3 -6 -2 -15 4 -21 15 -15 56 -5 60 15 3 13 -3 17 -27
17 -16 0 -33 -5 -37 -11z"/>
<path d="M2977 5893 c-18 -18 -5 -33 28 -33 33 0 35 2 25 20 -10 19 -40 27
-53 13z"/>
<path d="M2107 5463 c-18 -18 -5 -33 28 -33 33 0 35 2 25 20 -10 19 -40 27
-53 13z"/>
<path d="M1410 5011 c-24 -45 -7 -95 31 -89 20 2 25 10 27 41 5 59 -34 91 -58
48z"/>
<path d="M1761 5016 c-7 -8 -11 -32 -9 -53 3 -33 7 -38 30 -41 24 -3 28 1 33
31 11 58 -24 99 -54 63z"/>
<path d="M1574 4949 c-3 -6 -2 -15 4 -21 15 -15 56 -5 60 15 3 13 -3 17 -27
17 -16 0 -33 -5 -37 -11z"/>
<path d="M1928 5005 c-8 -19 -8 -31 0 -50 13 -28 47 -34 56 -9 24 62 -29 118
-56 59z"/>
<path d="M2107 5023 c-18 -18 -5 -33 28 -33 33 0 35 2 25 20 -10 19 -40 27
-53 13z"/>
<path d="M3331 4146 c-7 -8 -11 -30 -9 -48 2 -28 7 -33 28 -33 23 0 25 4 25
45 0 48 -20 65 -44 36z"/>
<path d="M1152 3668 c2 -15 11 -24 26 -26 18 -3 22 1 22 22 0 21 -5 26 -26 26
-21 0 -25 -4 -22 -22z"/>
<path d="M2631 3716 c-7 -8 -11 -32 -9 -53 3 -33 7 -38 30 -41 24 -3 28 1 33
31 11 58 -24 99 -54 63z"/>
<path d="M4027 3723 c-4 -3 -7 -28 -7 -55 0 -48 1 -49 28 -46 23 3 27 8 30 41
4 50 -26 86 -51 60z"/>
<path d="M1761 3716 c-7 -8 -11 -32 -9 -53 2 -31 7 -39 27 -41 28 -4 41 12 41
54 0 47 -34 70 -59 40z"/>
<path d="M2444 3649 c-3 -6 -2 -15 4 -21 15 -15 56 -5 60 15 3 13 -3 17 -27
17 -16 0 -33 -5 -37 -11z"/>
<path d="M2977 3723 c-18 -18 -5 -33 28 -33 33 0 35 2 25 20 -10 19 -40 27
-53 13z"/>
<path d="M4201 3716 c-7 -8 -11 -32 -9 -53 3 -33 7 -38 29 -41 20 -2 28 2 33
20 9 37 7 56 -10 72 -19 20 -28 20 -43 2z"/>
<path d="M4376 3714 c-17 -17 -21 -61 -7 -82 4 -8 19 -12 32 -10 20 2 25 10
27 41 3 36 -10 67 -29 67 -4 0 -15 -7 -23 -16z"/>
<path d="M4722 3718 c-20 -20 -14 -28 23 -28 19 0 35 4 35 8 0 12 -22 32 -35
32 -6 0 -16 -5 -23 -12z"/>
<path d="M4884 3649 c-3 -6 -2 -15 4 -21 15 -15 56 -5 60 15 3 13 -3 17 -27
17 -16 0 -33 -5 -37 -11z"/>
<path d="M350 3246 c-6 -8 -10 -25 -8 -38 4 -30 46 -38 65 -12 17 23 16 29 -3
48 -19 20 -38 20 -54 2z"/>
<path d="M4370 3304 c0 -33 2 -35 28 -32 49 6 40 67 -10 68 -14 0 -18 -8 -18
-36z"/>
<path d="M5410 3306 c0 -33 2 -36 30 -36 55 0 51 62 -4 68 -24 3 -26 0 -26
-32z"/>
<path d="M6642 3281 c-9 -5 -12 -24 -10 -52 3 -39 6 -44 28 -44 23 0 25 3 25
50 0 51 -14 66 -43 46z"/>
<path d="M2107 3283 c-18 -18 -5 -33 28 -33 33 0 35 2 25 20 -10 19 -40 27
-53 13z"/>
<path d="M3674 3276 c-3 -8 -4 -29 -2 -48 2 -28 7 -33 28 -33 21 0 26 5 28 33
4 35 -11 62 -35 62 -7 0 -16 -6 -19 -14z"/>
<path d="M4547 3284 c-17 -17 -5 -34 24 -34 24 0 30 4 27 18 -3 17 -38 29 -51
16z"/>
<path d="M4710 3200 c0 -15 7 -20 29 -20 17 0 31 6 35 16 9 24 9 24 -29 24
-28 0 -35 -4 -35 -20z"/>
<path d="M5592 3278 c-20 -20 -14 -28 23 -28 19 0 35 4 35 8 0 12 -22 32 -35
32 -6 0 -16 -5 -23 -12z"/>
<path d="M5754 3209 c-3 -6 -2 -15 4 -21 15 -15 56 -5 60 15 3 13 -3 17 -27
17 -16 0 -33 -5 -37 -11z"/>
<path d="M6466 3274 c-17 -17 -21 -61 -7 -82 4 -8 19 -12 32 -10 20 2 25 10
27 41 3 36 -10 67 -29 67 -4 0 -15 -7 -23 -16z"/>
<path d="M6812 3278 c-20 -20 -14 -28 23 -28 19 0 35 4 35 8 0 12 -22 32 -35
32 -6 0 -16 -5 -23 -12z"/>
<path d="M1410 2831 c-24 -45 -7 -95 31 -89 20 2 25 10 27 41 5 59 -34 91 -58
48z"/>
<path d="M1761 2836 c-7 -8 -11 -32 -9 -53 3 -33 7 -38 30 -41 24 -3 28 1 33
31 11 58 -24 99 -54 63z"/>
<path d="M2800 2864 c0 -32 2 -35 26 -32 38 4 55 35 30 54 -36 26 -56 18 -56
-22z"/>
<path d="M3840 2866 c0 -33 2 -36 30 -36 55 0 51 62 -4 68 -24 3 -26 0 -26
-32z"/>
<path d="M5072 2841 c-9 -5 -12 -24 -10 -52 3 -39 6 -44 28 -44 23 0 25 3 25
50 0 51 -14 66 -43 46z"/>
<path d="M1574 2769 c-3 -6 -2 -15 4 -21 15 -15 56 -5 60 15 3 13 -3 17 -27
17 -16 0 -33 -5 -37 -11z"/>
<path d="M1928 2825 c-8 -19 -8 -31 0 -50 13 -28 47 -34 56 -9 24 62 -29 118
-56 59z"/>
<path d="M2107 2843 c-18 -18 -5 -33 28 -33 33 0 35 2 25 20 -10 19 -40 27
-53 13z"/>
<path d="M2977 2843 c-18 -18 -5 -33 28 -33 33 0 35 2 25 20 -10 19 -40 27
-53 13z"/>
<path d="M3147 2773 c-24 -23 15 -49 47 -31 27 15 19 38 -12 38 -16 0 -32 -3
-35 -7z"/>
<path d="M4022 2838 c-20 -20 -14 -28 23 -28 19 0 35 4 35 8 0 12 -22 32 -35
32 -6 0 -16 -5 -23 -12z"/>
<path d="M4190 2759 c0 -16 5 -20 27 -17 17 2 29 10 31 21 3 13 -3 17 -27 17
-25 0 -31 -4 -31 -21z"/>
<path d="M4902 2841 c-9 -5 -12 -24 -10 -52 3 -39 6 -44 28 -44 22 0 25 5 28
44 3 39 -7 61 -28 61 -3 0 -11 -4 -18 -9z"/>
<path d="M5242 2838 c-20 -20 -14 -28 23 -28 19 0 35 4 35 8 0 12 -22 32 -35
32 -6 0 -16 -5 -23 -12z"/>
<path d="M4020 1994 c0 -33 2 -35 28 -32 49 6 40 67 -10 68 -14 0 -18 -8 -18
-36z"/>
<path d="M5410 1949 l0 -80 28 3 c26 3 27 5 30 72 3 72 -4 86 -40 86 -16 0
-18 -10 -18 -81z"/>
<path d="M2632 1968 c-20 -20 -14 -28 23 -28 19 0 35 4 35 8 0 12 -22 32 -35
32 -6 0 -16 -5 -23 -12z"/>
<path d="M3852 1968 c-20 -20 -14 -28 23 -28 19 0 35 4 35 8 0 12 -22 32 -35
32 -6 0 -16 -5 -23 -12z"/>
<path d="M4197 1973 c-18 -18 -5 -33 28 -33 33 0 35 2 25 20 -10 19 -40 27
-53 13z"/>
<path d="M6287 1973 c-18 -18 -5 -33 28 -33 33 0 35 2 25 20 -10 19 -40 27
-53 13z"/>
<path d="M6637 1973 c-18 -18 -5 -33 28 -33 33 0 35 2 25 20 -10 19 -40 27
-53 13z"/>
<path d="M1582 1968 c-7 -7 -12 -28 -12 -48 0 -56 47 -84 70 -41 23 44 7 101
-30 101 -9 0 -21 -5 -28 -12z"/>
<path d="M4020 1566 c0 -33 2 -36 30 -36 55 0 51 62 -4 68 -24 3 -26 0 -26
-32z"/>
<path d="M3331 1536 c-7 -8 -11 -32 -9 -53 3 -33 7 -38 29 -41 20 -2 28 2 33
20 9 37 7 56 -10 72 -19 20 -28 20 -43 2z"/>
<path d="M4376 1534 c-17 -17 -21 -61 -7 -82 4 -8 19 -12 32 -10 20 2 25 10
27 41 3 36 -10 67 -29 67 -4 0 -15 -7 -23 -16z"/>
<path d="M4551 1536 c-7 -8 -11 -30 -9 -48 2 -28 7 -33 28 -33 23 0 25 4 25
45 0 48 -20 65 -44 36z"/>
<path d="M4897 1544 c-17 -17 -5 -34 24 -34 24 0 30 4 27 18 -3 17 -38 29 -51
16z"/>
<path d="M6637 1543 c-18 -18 -5 -33 28 -33 33 0 35 2 25 20 -10 19 -40 27
-53 13z"/>
<path d="M7336 1534 c-17 -17 -21 -61 -7 -82 4 -8 19 -12 32 -10 20 2 25 10
27 41 3 36 -10 67 -29 67 -4 0 -15 -7 -23 -16z"/>
<path d="M1582 1538 c-7 -7 -12 -28 -12 -48 0 -56 47 -84 70 -41 23 44 7 101
-30 101 -9 0 -21 -5 -28 -12z"/>
<path d="M1927 1033 c-24 -23 15 -49 47 -31 27 15 19 38 -12 38 -16 0 -32 -3
-35 -7z"/>
<path d="M2278 1085 c-8 -19 -8 -31 0 -50 13 -28 47 -34 56 -9 24 62 -29 118
-56 59z"/>
<path d="M2457 1104 c-17 -17 -5 -34 24 -34 24 0 30 4 27 18 -3 17 -38 29 -51
16z"/>
<path d="M3327 1103 c-18 -18 -5 -33 28 -33 33 0 35 2 25 20 -10 19 -40 27
-53 13z"/>
<path d="M6462 668 c-17 -17 -15 -83 4 -99 34 -28 65 26 50 87 -7 26 -34 32
-54 12z"/>
<path d="M1761 666 c-7 -8 -11 -32 -9 -53 2 -31 7 -39 27 -41 28 -4 41 12 41
54 0 47 -34 70 -59 40z"/>
<path d="M2457 674 c-17 -17 -5 -34 24 -34 24 0 30 4 27 18 -3 17 -38 29 -51
16z"/>
<path d="M3845 604 c-12 -12 -13 -19 -4 -30 23 -28 69 -10 69 28 0 23 -42 24
-65 2z"/>
<path d="M4892 608 c-18 -18 -15 -36 7 -43 28 -9 51 5 51 31 0 18 -5 24 -23
24 -13 0 -28 -5 -35 -12z"/>
<path d="M6110 665 c-16 -20 -4 -35 29 -35 35 0 43 8 30 31 -12 23 -42 25 -59
4z"/>
<path d="M7155 604 c-12 -12 -13 -19 -4 -30 23 -28 69 -10 69 28 0 23 -42 24
-65 2z"/>
</g>
</svg>
