<?xml version="1.0" standalone="no"?>
<!DOCTYPE svg PUBLIC "-//W3C//DTD SVG 20010904//EN"
 "http://www.w3.org/TR/2001/REC-SVG-20010904/DTD/svg10.dtd">
<svg version="1.0" xmlns="http://www.w3.org/2000/svg"
 width="1279.000000pt" height="783.000000pt" viewBox="0 0 1279.000000 783.000000"
 preserveAspectRatio="xMidYMid meet">

<g transform="translate(0.000000,783.000000) scale(0.100000,-0.100000)"
fill="#000000" stroke="none">
<path d="M2990 7670 c0 -16 5 -21 23 -18 12 2 22 10 22 18 0 8 -10 16 -22 18
-18 3 -23 -2 -23 -18z"/>
<path d="M638 7659 c-16 -11 -28 -30 -28 -41 0 -19 0 -19 26 1 15 12 31 21 35
21 5 0 9 -43 9 -95 l0 -95 -35 0 c-24 0 -35 -5 -35 -15 0 -12 15 -15 75 -15
60 0 75 3 75 15 0 9 -9 15 -25 15 -24 0 -24 0 -27 113 -3 103 -5 112 -23 114
-11 2 -32 -7 -47 -18z"/>
<path d="M1490 7626 c0 -43 3 -56 15 -56 10 0 16 11 17 35 1 19 2 43 2 52 1
10 -7 19 -16 21 -15 3 -18 -5 -18 -52z"/>
<path d="M1560 7656 c0 -45 13 -86 26 -86 10 0 14 15 14 55 0 48 -2 55 -20 55
-14 0 -20 -7 -20 -24z"/>
<path d="M2710 7665 c0 -10 10 -15 30 -15 l30 0 0 -99 c0 -92 2 -101 22 -115
30 -21 98 -21 98 -1 0 10 -10 15 -33 15 -51 0 -57 13 -57 127 l0 103 -45 0
c-33 0 -45 -4 -45 -15z"/>
<path d="M3790 7626 c0 -43 3 -56 15 -56 10 0 16 11 17 35 1 19 2 43 2 52 1
10 -7 19 -16 21 -15 3 -18 -5 -18 -52z"/>
<path d="M3860 7656 c0 -45 13 -86 26 -86 10 0 14 15 14 55 0 48 -2 55 -20 55
-14 0 -20 -7 -20 -24z"/>
<path d="M3600 7640 c0 -25 -4 -30 -25 -30 -16 0 -25 -6 -25 -15 0 -9 9 -15
25 -15 24 0 25 -2 25 -63 0 -49 4 -68 18 -80 24 -22 92 -23 92 -2 0 10 -10 15
-28 15 -40 0 -52 17 -52 77 l0 53 40 0 c54 0 56 27 3 32 -33 3 -38 7 -41 31
-5 38 -32 36 -32 -3z"/>
<path d="M1920 7608 c-17 -9 -26 -23 -28 -45 -4 -36 9 -46 71 -57 32 -6 38
-11 35 -29 -4 -28 -64 -38 -74 -13 -9 23 -34 20 -34 -4 0 -25 29 -40 74 -40
48 0 80 31 71 68 -8 32 -19 40 -68 48 -45 8 -55 20 -33 42 14 14 21 14 52 3
40 -14 55 -8 33 14 -21 21 -70 27 -99 13z"/>
<path d="M2140 7609 c-34 -14 -40 -26 -40 -91 0 -45 5 -63 20 -78 33 -33 120
-21 120 15 0 17 -26 20 -35 5 -9 -14 -48 -13 -63 2 -7 7 -12 20 -12 30 0 15 9
18 60 18 59 0 60 0 60 29 0 56 -57 92 -110 70z m57 -27 c6 -4 13 -16 15 -27 2
-17 -3 -20 -39 -23 -36 -3 -43 0 -43 15 0 35 37 54 67 35z"/>
<path d="M2555 7608 c-31 -17 -35 -28 -35 -95 0 -53 3 -64 22 -77 23 -17 75
-21 94 -8 6 4 16 17 23 29 16 31 -8 44 -27 15 -16 -24 -51 -29 -70 -10 -7 7
-12 34 -12 60 0 43 3 50 26 60 23 11 29 10 44 -10 10 -12 25 -22 34 -22 23 0
5 42 -25 57 -30 16 -48 16 -74 1z"/>
<path d="M3183 7610 c-30 -12 -43 -41 -43 -93 0 -84 71 -127 131 -78 28 22 18
41 -11 23 -30 -18 -68 -15 -80 7 -18 36 -12 41 50 41 l60 0 0 34 c0 25 -7 40
-26 55 -29 23 -46 25 -81 11z m65 -32 c7 -7 12 -20 12 -31 0 -15 -7 -18 -42
-15 -46 3 -57 17 -33 42 19 19 46 21 63 4z"/>
<path d="M3405 7610 c-3 -6 -17 -7 -31 -4 l-24 6 0 -96 c0 -75 3 -96 14 -96
10 0 15 20 18 76 3 72 13 94 43 94 30 0 40 -22 43 -94 3 -56 8 -76 18 -76 11
0 14 18 14 75 0 67 -3 79 -25 100 -25 26 -59 33 -70 15z"/>
<path d="M4030 7605 c-11 -13 -11 -18 2 -31 20 -20 50 -7 46 20 -4 26 -30 32
-48 11z"/>
<path d="M1680 7537 c0 -87 19 -117 75 -117 53 0 75 36 75 121 0 55 -3 69 -15
69 -11 0 -15 -13 -15 -54 0 -75 -13 -106 -44 -106 -34 0 -46 26 -46 99 0 48
-3 61 -15 61 -12 0 -15 -15 -15 -73z"/>
<path d="M2940 7595 c0 -10 10 -15 30 -15 l30 0 0 -65 0 -65 -35 0 c-24 0 -35
-5 -35 -15 0 -12 16 -15 85 -15 69 0 85 3 85 15 0 10 -11 15 -35 15 l-35 0 0
80 0 80 -45 0 c-33 0 -45 -4 -45 -15z"/>
<path d="M4030 7453 c0 -10 -3 -35 -7 -57 -5 -33 -4 -38 12 -35 13 3 22 19 30
57 12 51 12 52 -11 52 -16 0 -24 -6 -24 -17z"/>
<path d="M4480 7180 c-10 -6 -17 -32 -20 -72 -5 -63 -5 -63 -37 -66 -47 -5
-44 -32 2 -32 l35 0 0 -59 c0 -63 8 -75 53 -86 36 -9 38 17 2 33 -22 10 -24
16 -19 55 5 32 2 47 -10 59 -14 15 -14 17 0 29 12 10 15 24 11 52 -7 49 0 67
24 67 10 0 19 7 19 15 0 17 -36 20 -60 5z"/>
<path d="M12550 7176 c0 -8 10 -16 23 -18 20 -3 22 -8 19 -51 -2 -27 2 -55 9
-63 9 -11 9 -17 -1 -29 -8 -10 -11 -31 -6 -60 5 -42 4 -47 -19 -57 -36 -16
-34 -42 2 -33 47 12 55 24 51 84 l-3 56 38 3 c45 4 53 32 9 32 -42 0 -52 16
-45 73 5 41 3 52 -12 63 -25 18 -65 18 -65 0z"/>
<path d="M1525 7160 c-9 -15 3 -30 24 -30 23 0 31 9 24 26 -6 16 -39 19 -48 4z"/>
<path d="M633 7145 c-25 -18 -37 -55 -17 -55 7 0 18 9 24 20 12 22 49 27 68 8
24 -24 12 -57 -43 -122 -75 -88 -74 -96 20 -96 60 0 75 3 75 15 0 12 -13 15
-55 15 l-56 0 51 61 c39 46 50 68 50 95 0 62 -65 96 -117 59z"/>
<path d="M1107 7153 c-3 -5 18 -34 48 -63 l55 -54 -52 -53 c-28 -29 -50 -55
-47 -57 3 -3 32 21 64 54 l60 60 -61 61 c-34 34 -64 57 -67 52z"/>
<path d="M2930 7030 c0 -123 1 -130 20 -130 18 0 20 7 20 55 0 47 3 55 19 55
14 0 26 -16 42 -55 16 -38 28 -55 41 -55 23 0 23 1 -3 61 l-22 50 22 20 c29
27 27 73 -4 104 -20 21 -34 25 -80 25 l-55 0 0 -130z m101 90 c21 -12 25 -50
7 -68 -7 -7 -25 -12 -40 -12 -27 0 -28 2 -28 45 0 39 3 45 21 45 11 0 29 -5
40 -10z"/>
<path d="M5440 7030 l0 -130 75 0 c60 0 75 3 75 15 0 12 -13 15 -55 15 l-55 0
0 45 0 45 50 0 c38 0 50 4 50 15 0 11 -12 15 -50 15 l-50 0 0 40 0 40 55 0
c42 0 55 3 55 15 0 12 -15 15 -75 15 l-75 0 0 -130z"/>
<path d="M5710 7140 c-11 -11 -20 -31 -20 -45 0 -20 -5 -25 -25 -25 -16 0 -25
-6 -25 -15 0 -9 9 -15 25 -15 24 0 25 -2 25 -70 0 -63 2 -70 20 -70 18 0 20 7
20 70 l0 70 40 0 c29 0 40 4 40 15 0 11 -11 15 -40 15 -36 0 -40 3 -40 24 0
25 16 36 56 36 15 0 24 6 24 15 0 24 -75 20 -100 -5z"/>
<path d="M5917 7142 c-10 -10 -17 -31 -17 -45 0 -23 -4 -27 -30 -27 -20 0 -30
-5 -30 -15 0 -10 10 -15 30 -15 l30 0 0 -70 c0 -63 2 -70 20 -70 18 0 20 7 20
70 l0 70 35 0 c24 0 35 5 35 15 0 10 -11 15 -35 15 -30 0 -35 3 -35 24 0 24
16 36 51 36 10 0 19 7 19 15 0 23 -72 20 -93 -3z"/>
<path d="M9620 7030 c0 -123 1 -130 20 -130 18 0 20 7 20 55 0 42 3 55 15 55
8 0 27 -25 42 -55 18 -36 33 -55 45 -55 23 0 23 1 -6 58 l-24 47 24 28 c31 36
30 71 -1 102 -20 21 -34 25 -80 25 l-55 0 0 -130z m101 90 c21 -12 25 -50 7
-68 -7 -7 -25 -12 -40 -12 -27 0 -28 2 -28 45 0 39 3 45 21 45 11 0 29 -5 40
-10z"/>
<path d="M10097 7142 c-10 -10 -17 -31 -17 -45 0 -23 -4 -27 -30 -27 -20 0
-30 -5 -30 -15 0 -10 10 -15 30 -15 l30 0 0 -70 c0 -63 2 -70 20 -70 18 0 20
7 20 70 l0 70 35 0 c24 0 35 5 35 15 0 10 -11 15 -35 15 -30 0 -35 3 -35 24 0
24 16 36 51 36 10 0 19 7 19 15 0 23 -72 20 -93 -3z"/>
<path d="M11311 7134 c-38 -49 -19 -90 53 -118 36 -14 46 -23 46 -40 0 -46
-58 -64 -82 -26 -16 26 -38 26 -38 1 0 -28 38 -51 81 -51 29 0 43 6 58 26 40
51 18 103 -54 126 -42 14 -56 38 -35 63 17 21 37 19 57 -5 21 -24 43 -26 43
-5 0 27 -38 55 -74 55 -25 0 -40 -7 -55 -26z"/>
<path d="M2557 7143 c-4 -3 -7 -15 -7 -25 0 -13 -7 -18 -25 -18 -18 0 -25 -5
-25 -20 0 -14 7 -20 24 -20 22 0 24 -4 28 -64 5 -80 17 -96 74 -96 57 0 63 27
7 32 l-38 3 -3 63 -3 62 41 0 c34 0 41 3 38 18 -2 12 -14 18 -41 20 -32 3 -37
7 -37 28 0 23 -18 32 -33 17z"/>
<path d="M3810 7126 c0 -19 -6 -25 -27 -28 -17 -2 -28 -9 -28 -18 0 -9 11 -16
28 -18 26 -3 27 -5 27 -67 0 -76 14 -95 71 -95 28 0 39 4 39 15 0 10 -10 15
-30 15 -36 0 -50 23 -50 84 l0 46 40 0 c33 0 40 3 40 20 0 17 -7 20 -40 20
-36 0 -40 3 -40 25 0 16 -6 25 -15 25 -9 0 -15 -9 -15 -24z"/>
<path d="M6520 7125 c0 -20 -5 -25 -25 -25 -18 0 -25 -5 -25 -20 0 -14 7 -20
24 -20 22 0 24 -4 28 -64 5 -80 17 -96 74 -96 57 0 63 27 7 32 l-38 3 -3 63
-3 62 41 0 c34 0 41 3 38 18 -2 12 -14 18 -41 20 -32 3 -37 7 -37 28 0 17 -5
24 -20 24 -15 0 -20 -7 -20 -25z"/>
<path d="M11540 7125 c0 -20 -5 -25 -25 -25 -18 0 -25 -5 -25 -20 0 -15 7 -20
25 -20 24 0 25 -2 25 -63 0 -75 16 -97 73 -97 48 0 52 27 5 32 -33 3 -33 3
-36 65 l-3 62 38 3 c52 4 53 32 1 36 -33 3 -38 7 -38 28 0 17 -5 24 -20 24
-15 0 -20 -7 -20 -25z"/>
<path d="M11960 7126 c0 -19 -6 -25 -27 -28 -17 -2 -28 -9 -28 -18 0 -9 11
-16 28 -18 26 -3 27 -5 27 -67 0 -76 14 -95 71 -95 28 0 39 4 39 15 0 10 -10
15 -30 15 -36 0 -50 23 -50 84 l0 46 40 0 c33 0 40 3 40 20 0 17 -7 20 -40 20
-36 0 -40 3 -40 25 0 16 -6 25 -15 25 -9 0 -15 -9 -15 -24z"/>
<path d="M1480 7081 c0 -17 6 -21 30 -21 l31 0 -3 -62 c-3 -63 -3 -63 -35 -66
-21 -2 -33 -9 -33 -18 0 -11 17 -14 80 -14 64 0 80 3 80 15 0 10 -10 15 -30
15 l-29 0 -3 83 -3 82 -42 3 c-38 3 -43 1 -43 -17z"/>
<path d="M1670 7000 c0 -81 3 -100 15 -100 11 0 15 18 17 83 2 65 6 82 18 82
12 0 16 -17 18 -82 2 -65 6 -83 17 -83 12 0 15 16 15 79 0 48 4 83 11 87 19
12 29 -19 29 -93 0 -58 3 -73 15 -73 23 0 22 162 -1 185 -10 9 -23 13 -33 9
-9 -3 -20 -6 -26 -5 -5 0 -29 3 -52 6 l-43 5 0 -100z"/>
<path d="M1890 6970 c0 -109 2 -130 15 -130 11 0 15 11 15 41 0 35 2 40 14 30
8 -7 30 -11 48 -9 40 4 58 34 58 101 0 72 -48 115 -100 87 -13 -7 -21 -7 -25
0 -18 30 -25 -2 -25 -120z m99 86 c7 -8 11 -37 9 -68 -3 -48 -5 -53 -27 -56
-32 -5 -51 21 -51 69 0 56 41 89 69 55z"/>
<path d="M2135 7088 c-31 -18 -35 -28 -35 -95 0 -53 3 -64 22 -77 35 -25 83
-20 107 10 27 34 29 112 4 143 -22 26 -71 35 -98 19z m56 -28 c15 -9 19 -22
19 -65 0 -50 -2 -55 -25 -61 -15 -4 -32 -1 -40 6 -20 17 -20 94 1 114 18 19
20 19 45 6z"/>
<path d="M2317 7093 c-4 -3 -7 -48 -7 -100 0 -86 1 -93 20 -93 18 0 20 7 20
74 0 52 4 77 15 86 20 17 54 3 61 -26 8 -32 34 -31 34 1 0 48 -66 85 -97 54
-8 -8 -13 -8 -17 0 -8 12 -20 14 -29 4z"/>
<path d="M3165 7075 c-20 -19 -25 -34 -25 -78 0 -68 23 -97 79 -97 34 0 71 22
71 43 0 11 -38 8 -45 -3 -12 -19 -55 -11 -64 13 -13 32 -6 37 55 37 l54 0 0
33 c0 69 -77 101 -125 52z m85 -26 c15 -27 10 -31 -39 -27 -41 3 -41 3 -26 26
20 28 51 28 65 1z"/>
<path d="M3370 7080 c-37 -37 -20 -54 25 -24 29 19 65 10 65 -17 0 -16 -7 -19
-40 -19 -67 0 -99 -49 -65 -98 14 -19 25 -22 80 -21 l65 1 0 79 c0 93 -16 119
-75 119 -22 0 -43 -8 -55 -20z m90 -114 c0 -35 -64 -53 -76 -21 -11 28 4 45
41 45 30 0 35 -3 35 -24z"/>
<path d="M3586 7079 c-23 -18 -26 -28 -26 -80 0 -46 4 -63 20 -79 40 -40 130
-17 130 33 0 23 -23 21 -38 -3 -18 -29 -60 -26 -72 6 -6 14 -10 36 -10 50 0
24 31 64 50 64 6 0 18 -9 27 -20 21 -24 43 -26 43 -5 0 25 -38 55 -69 55 -15
0 -40 -9 -55 -21z"/>
<path d="M4814 7085 c-12 -31 3 -145 21 -165 24 -26 86 -27 108 -2 23 25 25
182 2 182 -11 0 -15 -17 -17 -76 -2 -60 -7 -79 -20 -88 -35 -22 -53 4 -58 84
-5 72 -22 102 -36 65z"/>
<path d="M5040 7080 c-40 -40 -23 -76 46 -94 37 -9 49 -17 49 -32 0 -25 -56
-32 -75 -10 -15 20 -40 21 -40 3 0 -25 36 -47 74 -47 55 0 76 15 76 54 0 40
-13 53 -66 64 -23 5 -40 14 -42 24 -5 24 34 33 63 14 30 -20 45 -20 45 -2 0
43 -95 61 -130 26z"/>
<path d="M5255 7075 c-20 -19 -25 -34 -25 -78 0 -68 23 -97 79 -97 34 0 71 22
71 43 0 11 -38 8 -45 -3 -12 -19 -55 -11 -64 13 -13 32 -6 37 55 37 l54 0 0
33 c0 69 -77 101 -125 52z m85 -26 c15 -27 10 -31 -39 -27 -41 3 -41 3 -26 26
20 28 51 28 65 1z"/>
<path d="M6102 7088 c-43 -21 -52 -128 -14 -170 22 -26 86 -24 114 4 21 21 21
23 4 26 -10 2 -23 -1 -29 -7 -26 -26 -77 -5 -77 31 0 15 9 18 60 18 l60 0 0
30 c0 60 -61 95 -118 68z m66 -30 c24 -24 13 -38 -28 -38 -26 0 -40 5 -40 13
0 18 21 37 40 37 9 0 21 -5 28 -12z"/>
<path d="M6315 7088 c-31 -17 -35 -28 -35 -95 0 -53 3 -64 22 -77 45 -32 128
-9 128 35 0 25 -26 25 -40 -1 -14 -26 -56 -26 -70 -1 -23 43 -4 121 30 121 20
0 40 -13 40 -26 0 -8 9 -14 20 -14 28 0 25 25 -6 49 -30 23 -59 26 -89 9z"/>
<path d="M8997 7094 c-11 -12 -8 -134 4 -157 16 -30 28 -37 67 -37 55 0 72 27
72 120 0 64 -3 80 -15 80 -12 0 -15 -14 -15 -66 0 -73 -12 -104 -39 -104 -30
0 -40 22 -43 95 -3 63 -13 86 -31 69z"/>
<path d="M9220 7080 c-40 -40 -23 -76 46 -94 37 -9 49 -17 49 -32 0 -25 -56
-32 -75 -10 -15 20 -40 21 -40 3 0 -25 36 -47 74 -47 55 0 76 15 76 54 0 40
-13 53 -66 64 -23 5 -40 14 -42 24 -5 24 34 33 63 14 30 -20 45 -20 45 -2 0
43 -95 61 -130 26z"/>
<path d="M9435 7075 c-20 -19 -25 -34 -25 -78 0 -68 23 -97 79 -97 34 0 71 22
71 43 0 11 -38 8 -45 -3 -12 -19 -55 -11 -64 13 -13 32 -6 37 55 37 l54 0 0
33 c0 69 -77 101 -125 52z m85 -26 c15 -27 10 -31 -39 -27 -41 3 -41 3 -26 26
20 28 51 28 65 1z"/>
<path d="M9856 7079 c-23 -18 -26 -28 -26 -80 0 -70 21 -99 73 -99 33 0 77 23
77 41 0 12 -37 12 -45 -1 -11 -17 -54 -11 -65 9 -18 36 -12 41 50 41 l60 0 0
34 c0 39 -37 76 -75 76 -12 0 -34 -9 -49 -21z m78 -25 c26 -25 19 -34 -29 -34
-25 0 -45 4 -45 9 0 14 30 41 45 41 7 0 21 -7 29 -16z"/>
<path d="M10664 7085 c-12 -31 3 -145 21 -165 24 -26 86 -27 108 -2 23 25 25
182 2 182 -11 0 -15 -17 -17 -76 -2 -60 -7 -79 -20 -88 -35 -22 -53 4 -58 84
-5 72 -22 102 -36 65z"/>
<path d="M10903 7090 c-18 -7 -23 -17 -23 -44 0 -39 8 -47 65 -61 30 -7 40
-15 40 -30 0 -27 -54 -34 -72 -10 -7 11 -19 15 -29 11 -15 -6 -15 -9 -1 -29
11 -17 26 -23 65 -25 43 -3 53 0 66 20 9 12 16 28 16 34 0 25 -38 57 -76 63
-25 4 -40 12 -42 23 -5 25 43 35 67 14 22 -20 41 -21 41 -2 0 36 -67 56 -117
36z"/>
<path d="M11105 7075 c-20 -19 -25 -34 -25 -78 0 -68 23 -97 79 -97 34 0 71
22 71 43 0 11 -38 8 -45 -3 -12 -19 -55 -11 -64 13 -13 32 -6 37 55 37 l54 0
0 33 c0 69 -77 101 -125 52z m85 -26 c15 -27 10 -31 -39 -27 -41 3 -41 3 -26
26 20 28 51 28 65 1z"/>
<path d="M11730 7080 c-37 -37 -20 -54 25 -24 29 19 65 10 65 -17 0 -16 -7
-19 -40 -19 -67 0 -99 -49 -65 -98 14 -19 25 -22 80 -21 l65 1 0 79 c0 93 -16
119 -75 119 -22 0 -43 -8 -55 -20z m90 -114 c0 -35 -64 -53 -76 -21 -11 28 4
45 41 45 30 0 35 -3 35 -24z"/>
<path d="M12162 7088 c-43 -21 -52 -128 -14 -170 22 -26 86 -24 114 4 21 21
21 23 4 26 -10 2 -23 -1 -29 -7 -26 -26 -77 -5 -77 31 0 15 9 18 60 18 l60 0
0 30 c0 60 -61 95 -118 68z m66 -30 c24 -24 13 -38 -28 -38 -26 0 -40 5 -40
13 0 18 21 37 40 37 9 0 21 -5 28 -12z"/>
<path d="M4037 6943 c-3 -5 -8 -30 -11 -56 -7 -43 -5 -48 10 -45 10 1 21 14
24 28 21 80 21 80 1 80 -11 0 -22 -3 -24 -7z"/>
<path d="M6746 6913 c-9 -58 -7 -73 9 -73 8 0 19 17 25 43 6 23 13 48 15 55 3
7 -5 12 -19 12 -19 0 -24 -7 -30 -37z"/>
<path d="M8626 6913 c-9 -58 -7 -73 9 -73 8 0 19 17 25 43 6 23 13 48 15 55 3
7 -5 12 -19 12 -19 0 -24 -7 -30 -37z"/>
<path d="M10307 6943 c-3 -5 -8 -30 -11 -56 -7 -43 -5 -48 10 -45 10 1 21 14
24 28 21 80 21 80 1 80 -11 0 -22 -3 -24 -7z"/>
<path d="M440 6623 c-19 -7 -40 -33 -40 -50 0 -20 24 -16 38 7 16 26 58 26 72
1 15 -28 0 -58 -59 -123 -72 -78 -69 -88 24 -88 60 0 75 3 75 15 0 12 -13 15
-56 15 l-57 0 47 50 c25 27 51 61 56 75 25 66 -32 122 -100 98z"/>
<path d="M607 6623 c-4 -3 -7 -19 -7 -35 0 -33 25 -39 33 -8 4 16 14 20 51 20
25 0 46 -1 46 -3 0 -2 -12 -32 -26 -68 -67 -164 -65 -159 -46 -159 12 0 28 29
60 108 23 59 42 117 42 130 0 21 -4 22 -73 22 -41 0 -77 -3 -80 -7z"/>
<path d="M7606 6108 c-70 -70 -55 -242 24 -283 34 -18 40 -18 40 -4 0 6 -16
25 -35 43 -34 32 -35 36 -35 106 0 77 19 125 52 136 10 3 18 12 18 20 0 24
-30 16 -64 -18z"/>
<path d="M7827 6128 c-11 -9 -17 -31 -19 -73 -3 -60 -3 -60 -35 -63 -20 -2
-33 -9 -33 -17 0 -8 13 -15 33 -17 31 -3 32 -4 35 -58 4 -61 12 -76 47 -83 31
-5 35 19 5 28 -17 5 -20 15 -20 60 0 39 -4 57 -16 63 -14 8 -14 10 0 21 11 9
16 30 16 63 0 41 3 51 20 55 11 3 20 12 20 19 0 17 -31 18 -53 2z"/>
<path d="M440 6103 c-19 -7 -40 -33 -40 -50 0 -20 24 -16 38 7 16 26 58 26 72
1 15 -28 0 -58 -59 -123 -72 -78 -69 -88 24 -88 60 0 75 3 75 15 0 12 -13 15
-56 15 l-57 0 47 50 c25 27 51 61 56 75 25 66 -32 122 -100 98z"/>
<path d="M632 6094 c-26 -18 -30 -74 -8 -93 13 -11 12 -15 -5 -32 -28 -28 -25
-73 7 -98 75 -59 181 32 115 98 -17 17 -18 21 -5 32 8 6 14 26 14 45 0 38 -29
64 -70 64 -14 0 -36 -7 -48 -16z m82 -36 c22 -35 -27 -74 -59 -48 -18 15 -20
56 -2 64 22 9 50 1 61 -16z m0 -104 c32 -32 13 -74 -34 -74 -31 0 -50 17 -50
45 0 43 53 61 84 29z"/>
<path d="M4180 5980 c0 -108 3 -130 15 -130 11 0 15 20 17 103 l3 102 16 -45
c9 -25 22 -45 30 -45 8 0 21 22 31 50 l17 50 1 -107 c0 -89 3 -108 15 -108 13
0 15 21 15 130 l0 130 -24 0 c-19 0 -26 -8 -36 -46 -14 -50 -22 -48 -40 9 -9
29 -17 37 -36 37 l-24 0 0 -130z"/>
<path d="M4820 5980 c0 -109 2 -130 15 -130 8 0 15 5 15 12 0 9 3 9 12 0 13
-13 47 -16 72 -6 9 3 21 24 27 46 24 91 -19 165 -82 141 -29 -11 -29 -11 -29
28 0 28 -4 39 -15 39 -13 0 -15 -21 -15 -130z m99 26 c18 -22 10 -107 -11
-120 -30 -18 -53 4 -56 56 -4 64 36 102 67 64z"/>
<path d="M5440 5981 c0 -124 1 -131 20 -131 17 0 20 7 20 45 0 59 19 59 57 0
16 -25 36 -45 46 -45 23 0 22 8 -12 59 l-30 44 30 43 c33 49 35 54 14 54 -8 0
-28 -18 -43 -40 -42 -62 -60 -54 -64 27 -2 55 -6 68 -20 71 -16 3 -18 -8 -18
-127z"/>
<path d="M5672 6090 c-26 -25 -29 -72 -6 -91 9 -8 35 -23 58 -34 22 -11 42
-28 44 -38 8 -43 -57 -65 -80 -27 -17 27 -48 27 -41 0 12 -47 104 -69 135 -32
42 49 26 103 -38 128 -50 19 -67 41 -53 67 13 23 46 22 61 -3 14 -22 48 -27
48 -7 0 24 -45 57 -76 57 -17 0 -40 -9 -52 -20z"/>
<path d="M6460 6095 c0 -10 11 -15 35 -15 l35 0 0 -98 c0 -83 3 -102 18 -115
24 -22 102 -23 102 -2 0 10 -11 15 -35 15 -47 0 -55 19 -55 134 l0 96 -50 0
c-38 0 -50 -4 -50 -15z"/>
<path d="M6670 6095 c0 -10 11 -15 35 -15 l35 0 0 -98 c0 -83 3 -102 18 -115
24 -22 102 -23 102 -2 0 10 -11 15 -35 15 -47 0 -55 19 -55 134 l0 96 -50 0
c-38 0 -50 -4 -50 -15z"/>
<path d="M2558 6073 c-2 -22 -9 -29 -30 -31 -39 -5 -37 -32 2 -32 l30 0 0 -68
c0 -40 5 -73 12 -80 18 -18 98 -16 98 2 0 10 -13 16 -37 18 l-38 3 -3 62 -3
62 37 3 c53 4 57 28 5 28 -39 0 -41 2 -41 30 0 39 -27 41 -32 3z"/>
<path d="M3808 6073 c-2 -20 -9 -29 -25 -31 -32 -5 -30 -32 2 -32 24 0 25 -2
25 -64 0 -77 14 -96 71 -96 28 0 39 4 39 15 0 10 -10 15 -28 15 -40 0 -52 17
-52 77 l0 53 40 0 c54 0 56 27 3 32 -33 3 -38 7 -41 31 -2 15 -9 27 -17 27 -8
0 -15 -12 -17 -27z"/>
<path d="M1496 6029 c-23 -18 -26 -28 -26 -80 0 -70 21 -99 73 -99 33 0 77 23
77 41 0 12 -37 12 -45 -1 -9 -14 -48 -13 -63 2 -7 7 -12 20 -12 30 0 15 9 18
60 18 l60 0 0 34 c0 39 -37 76 -75 76 -12 0 -34 -9 -49 -21z m78 -25 c26 -25
19 -34 -29 -34 -49 0 -50 1 -35 31 13 23 43 25 64 3z"/>
<path d="M1941 6041 c-7 -5 -22 -6 -32 -4 -18 5 -19 -2 -19 -121 0 -105 2
-126 15 -126 11 0 15 11 15 41 0 35 2 40 14 30 25 -21 79 -9 94 19 20 39 10
129 -18 152 -24 20 -47 23 -69 9z m48 -35 c7 -8 11 -37 9 -68 -3 -48 -5 -53
-27 -56 -32 -5 -51 21 -51 69 0 56 41 89 69 55z"/>
<path d="M2135 6038 c-31 -18 -35 -28 -35 -95 0 -53 3 -64 22 -77 36 -26 83
-20 108 12 18 22 21 37 18 80 -3 29 -11 59 -19 67 -20 20 -70 27 -94 13z m56
-28 c15 -9 19 -22 19 -65 0 -50 -2 -55 -25 -61 -38 -9 -55 11 -55 67 0 35 5
51 18 58 21 13 20 13 43 1z"/>
<path d="M2372 6041 c-7 -4 -24 -6 -38 -3 l-24 4 0 -96 c0 -89 1 -96 20 -96
18 0 20 7 20 74 0 52 4 77 15 86 20 17 54 3 61 -26 8 -32 34 -31 34 1 0 46
-52 79 -88 56z"/>
<path d="M2972 6040 c-44 -18 -58 -117 -21 -164 37 -47 129 -28 129 27 0 23
-18 21 -39 -5 -14 -16 -24 -19 -44 -14 -25 6 -27 10 -27 59 0 29 5 58 12 65
18 18 46 14 60 -8 7 -11 21 -20 30 -20 25 0 8 41 -23 57 -28 15 -45 15 -77 3z"/>
<path d="M3183 6040 c-30 -12 -43 -41 -43 -93 0 -60 29 -97 76 -97 53 0 74 28
74 98 0 66 -5 77 -43 91 -33 13 -35 13 -64 1z m61 -36 c19 -18 22 -94 4 -112
-7 -7 -22 -12 -35 -12 -40 0 -57 75 -27 118 18 26 37 28 58 6z"/>
<path d="M3405 6040 c-3 -6 -17 -7 -31 -4 l-24 6 0 -96 c0 -79 3 -96 15 -96
12 0 15 13 15 58 0 66 17 107 45 107 28 0 45 -41 45 -107 0 -45 3 -58 15 -58
12 0 15 16 15 80 0 67 -3 83 -20 100 -21 21 -65 27 -75 10z"/>
<path d="M3600 6044 c-20 -8 -40 -34 -40 -53 0 -29 16 -42 61 -52 48 -11 64
-26 47 -46 -14 -18 -65 -16 -72 2 -7 19 -36 20 -36 1 0 -27 30 -46 75 -46 49
0 75 19 75 54 0 34 -21 55 -65 64 -24 5 -41 14 -43 24 -4 21 31 32 58 18 12
-6 28 -10 36 -8 13 2 13 6 2 21 -14 18 -72 31 -98 21z"/>
<path d="M4422 6034 c-22 -15 -30 -44 -13 -44 5 0 23 8 39 17 25 14 32 15 46
4 28 -24 19 -41 -22 -41 -50 0 -82 -23 -82 -60 0 -16 7 -36 16 -44 18 -19 75
-21 92 -4 9 9 12 9 12 0 0 -7 7 -12 15 -12 12 0 15 16 15 84 0 76 -2 86 -22
100 -12 9 -34 16 -48 16 -14 0 -36 -7 -48 -16z m88 -112 c0 -39 -55 -57 -80
-27 -19 22 5 45 46 45 26 0 34 -4 34 -18z"/>
<path d="M4641 6037 c-44 -22 -53 -126 -15 -168 36 -39 134 -13 134 36 0 22
-27 18 -40 -5 -12 -22 -49 -27 -68 -8 -7 7 -12 34 -12 60 0 43 3 50 26 60 23
11 29 10 44 -10 19 -23 50 -30 50 -12 0 20 -49 60 -72 60 -13 0 -34 -6 -47
-13z"/>
<path d="M5063 6040 c-30 -12 -43 -41 -43 -97 0 -62 25 -93 75 -93 54 0 75 28
75 98 0 63 -5 74 -37 91 -25 13 -40 13 -70 1z m61 -36 c21 -20 21 -97 1 -114
-24 -20 -62 -4 -70 29 -8 37 3 79 24 91 22 13 27 12 45 -6z"/>
<path d="M5273 6040 c-30 -12 -43 -41 -43 -97 0 -62 25 -93 75 -93 54 0 75 28
75 98 0 63 -5 74 -37 91 -25 13 -40 13 -70 1z m61 -36 c21 -20 21 -97 1 -114
-24 -20 -62 -4 -70 29 -8 37 3 79 24 91 22 13 27 12 45 -6z"/>
<path d="M5887 6030 c-24 -19 -27 -28 -27 -81 0 -46 4 -63 20 -79 40 -40 130
-17 130 33 0 24 -23 21 -38 -4 -9 -14 -21 -19 -40 -17 -22 2 -29 10 -37 41
-16 69 33 123 72 78 20 -24 43 -28 43 -8 0 49 -78 72 -123 37z"/>
<path d="M6077 6043 c-4 -3 -7 -48 -7 -100 0 -86 2 -93 20 -93 17 0 19 8 22
76 2 60 7 79 21 88 22 14 51 -3 55 -33 5 -33 32 -26 32 9 0 42 -40 68 -81 53
-17 -7 -31 -7 -35 -2 -6 11 -18 12 -27 2z"/>
<path d="M6315 6038 c-31 -18 -35 -28 -35 -95 0 -53 3 -64 22 -77 35 -25 83
-20 107 10 27 34 29 112 4 143 -22 26 -71 35 -98 19z m56 -28 c15 -9 19 -22
19 -65 0 -50 -2 -55 -25 -61 -15 -4 -32 -1 -40 6 -20 17 -20 94 1 114 18 19
20 19 45 6z"/>
<path d="M1702 5995 l32 -45 -32 -44 c-38 -52 -38 -56 -12 -56 11 0 26 12 35
29 22 44 31 45 55 6 13 -20 30 -35 41 -35 25 0 24 2 -13 54 l-31 45 26 40 c15
22 27 43 27 46 0 8 -40 6 -40 -2 0 -5 -9 -19 -19 -32 l-18 -24 -19 32 c-12 20
-26 31 -41 31 -22 0 -22 -1 9 -45z"/>
<path d="M7110 6005 c0 -12 15 -15 75 -15 60 0 75 3 75 15 0 12 -15 15 -75 15
-60 0 -75 -3 -75 -15z"/>
<path d="M7110 5925 c0 -12 15 -15 75 -15 60 0 75 3 75 15 0 12 -15 15 -75 15
-60 0 -75 -3 -75 -15z"/>
<path d="M440 5583 c-19 -7 -40 -33 -40 -50 0 -20 24 -16 38 7 16 26 58 26 72
1 15 -28 0 -58 -59 -123 -72 -78 -69 -88 24 -88 60 0 75 3 75 15 0 12 -13 15
-56 15 l-57 0 47 50 c25 27 51 61 56 75 25 66 -32 122 -100 98z"/>
<path d="M625 5565 c-49 -48 -18 -135 48 -135 l26 0 -24 -42 c-29 -50 -30 -58
-11 -58 20 0 87 123 93 170 11 76 -78 120 -132 65z m89 -21 c24 -24 20 -61 -9
-80 -23 -15 -27 -15 -50 0 -26 17 -32 45 -15 77 13 23 53 25 74 3z"/>
<path d="M1913 5515 c-25 -18 -32 -68 -10 -82 6 -4 30 -12 52 -18 30 -7 40
-15 40 -30 0 -26 -62 -35 -71 -11 -9 23 -34 20 -34 -4 0 -25 29 -40 78 -40 95
0 98 104 4 117 -50 7 -63 21 -37 40 24 17 40 17 59 -2 28 -28 49 -11 27 23
-13 22 -82 26 -108 7z"/>
<path d="M2107 5523 c-4 -3 -7 -48 -7 -100 0 -86 2 -93 20 -93 17 0 19 8 22
76 2 60 7 79 21 88 22 14 51 -3 55 -33 5 -33 32 -26 32 9 0 42 -40 68 -81 53
-17 -7 -31 -7 -35 -2 -6 11 -18 12 -27 2z"/>
<path d="M2341 5517 c-44 -22 -53 -126 -15 -168 36 -39 134 -13 134 36 0 22
-27 18 -40 -5 -12 -22 -49 -27 -68 -8 -7 7 -12 34 -12 60 0 43 3 50 26 60 23
11 29 10 44 -10 19 -23 50 -30 50 -12 0 20 -49 60 -72 60 -13 0 -34 -6 -47
-13z"/>
<path d="M2566 5343 c-9 -58 -7 -73 9 -73 8 0 19 17 25 43 6 23 13 48 15 55 3
7 -5 12 -19 12 -19 0 -24 -7 -30 -37z"/>
<path d="M3615 5070 c-9 -15 3 -30 24 -30 23 0 31 9 24 26 -6 16 -39 19 -48 4z"/>
<path d="M400 5055 c0 -11 12 -15 52 -15 l52 0 -32 -33 c-40 -41 -40 -52 1
-63 30 -9 32 -13 32 -54 0 -43 -1 -45 -32 -48 -24 -2 -34 2 -43 17 -13 26 -42
29 -33 4 18 -52 75 -69 121 -37 18 12 22 25 22 65 0 45 -3 52 -30 67 l-29 17
31 32 c46 47 34 63 -47 63 -51 0 -65 -3 -65 -15z"/>
<path d="M629 5051 c-22 -18 -24 -27 -24 -111 0 -84 2 -93 24 -111 30 -24 72
-24 102 0 22 18 24 27 24 111 0 84 -2 93 -24 111 -30 24 -72 24 -102 0z m81
-21 c19 -12 27 -139 11 -169 -15 -28 -66 -29 -81 -2 -5 11 -10 47 -10 81 0 34
5 70 10 81 11 20 45 25 70 9z"/>
<path d="M664 4949 c-10 -17 13 -36 27 -22 12 12 4 33 -11 33 -5 0 -12 -5 -16
-11z"/>
<path d="M2100 4940 c0 -109 2 -130 15 -130 12 0 15 14 15 69 0 70 14 101 44
101 26 0 36 -26 36 -97 0 -66 2 -73 20 -73 18 0 20 7 20 68 0 103 -32 147 -90
125 l-30 -11 0 39 c0 28 -4 39 -15 39 -13 0 -15 -21 -15 -130z"/>
<path d="M2749 5051 c-22 -18 -24 -27 -24 -109 0 -107 14 -132 75 -132 51 0
74 27 74 88 l1 47 -43 3 c-38 3 -43 1 -40 -15 2 -10 14 -19 26 -21 18 -3 23
-9 20 -29 -4 -34 -32 -52 -55 -37 -14 9 -19 28 -21 88 -3 82 6 106 38 106 10
0 27 -12 38 -27 20 -28 45 -24 35 5 -19 53 -80 69 -124 33z"/>
<path d="M3467 5063 c-4 -3 -7 -22 -7 -42 0 -27 -3 -32 -12 -23 -18 18 -56 14
-78 -8 -16 -16 -20 -33 -20 -83 0 -82 14 -97 93 -96 l57 1 0 129 c0 101 -3
129 -13 129 -8 0 -17 -3 -20 -7z m-18 -97 c7 -8 11 -37 9 -68 -3 -48 -5 -53
-27 -56 -32 -5 -51 21 -51 69 0 56 41 89 69 55z"/>
<path d="M4230 5036 c0 -19 -6 -25 -27 -28 -17 -2 -29 -10 -31 -20 -3 -14 3
-18 27 -18 l31 0 0 -70 c0 -58 3 -71 19 -80 31 -16 91 -13 91 5 0 10 -10 15
-28 15 -40 0 -52 17 -52 77 l0 53 41 0 c33 0 40 3 37 18 -2 12 -14 18 -41 20
-32 3 -37 7 -37 28 0 15 -6 24 -15 24 -9 0 -15 -9 -15 -24z"/>
<path d="M1913 4995 c-25 -18 -32 -68 -10 -82 6 -4 30 -12 52 -18 30 -7 40
-15 40 -30 0 -26 -62 -35 -71 -11 -9 23 -34 20 -34 -4 0 -25 29 -40 78 -40 95
0 98 104 4 117 -50 7 -63 21 -37 40 24 17 40 17 59 -2 28 -28 49 -11 27 23
-13 22 -82 26 -108 7z"/>
<path d="M2342 5000 c-12 -5 -27 -22 -33 -37 -14 -37 -6 -109 16 -133 24 -26
86 -27 109 -1 40 44 27 154 -21 172 -29 11 -41 11 -71 -1z m62 -33 c24 -17 19
-105 -6 -121 -31 -19 -53 4 -56 60 -3 37 1 51 14 61 10 7 21 13 24 13 3 0 14
-6 24 -13z"/>
<path d="M2500 4993 c0 -10 5 -55 12 -101 10 -75 13 -83 32 -80 18 3 23 14 31
68 12 74 20 70 30 -12 6 -47 11 -58 25 -58 10 0 21 8 24 18 12 41 29 172 24
178 -15 14 -26 -10 -33 -73 -8 -73 -16 -67 -29 19 -13 86 -40 76 -58 -23 l-12
-64 -11 69 c-5 38 -16 71 -22 74 -7 2 -13 -4 -13 -15z"/>
<path d="M2940 4910 c0 -82 3 -100 15 -100 12 0 15 14 15 64 0 47 5 70 18 86
24 30 62 20 62 -16 0 -17 5 -24 20 -24 15 0 20 7 20 25 0 49 -66 84 -99 53
-11 -10 -14 -10 -18 0 -3 6 -11 12 -19 12 -11 0 -14 -20 -14 -100z"/>
<path d="M3163 4986 c-24 -21 -26 -25 -11 -31 10 -4 24 0 33 9 21 20 39 20 59
0 25 -25 19 -34 -24 -34 -74 0 -113 -68 -62 -107 20 -16 74 -17 90 -1 9 9 12
9 12 0 0 -7 7 -12 15 -12 12 0 15 16 15 80 0 67 -3 83 -20 100 -27 27 -73 25
-107 -4z m97 -97 c0 -27 -22 -49 -51 -49 -31 0 -46 18 -35 45 6 17 86 21 86 4z"/>
<path d="M3565 5001 c-11 -18 5 -31 36 -31 l30 0 -3 -62 c-3 -63 -3 -63 -35
-66 -21 -2 -33 -9 -33 -18 0 -11 17 -14 80 -14 64 0 80 3 80 15 0 10 -10 15
-30 15 l-29 0 -3 83 -3 82 -42 3 c-22 2 -44 -2 -48 -7z"/>
<path d="M3796 4989 c-23 -18 -26 -28 -26 -80 0 -70 21 -99 73 -99 33 0 77 23
77 41 0 12 -37 12 -45 -1 -11 -17 -54 -11 -65 9 -18 36 -12 41 50 41 l60 0 0
34 c0 39 -37 76 -75 76 -12 0 -34 -9 -49 -21z m78 -25 c26 -25 19 -34 -29 -34
-25 0 -45 4 -45 9 0 14 30 41 45 41 7 0 21 -7 29 -16z"/>
<path d="M3980 4910 c0 -82 3 -100 15 -100 12 0 15 14 15 69 0 70 14 101 44
101 26 0 36 -26 36 -97 0 -66 2 -73 20 -73 18 0 20 7 20 68 0 103 -32 147 -90
125 -16 -6 -30 -7 -30 -2 0 5 -7 9 -15 9 -12 0 -15 -18 -15 -100z"/>
<path d="M4446 4823 c-9 -58 -7 -73 9 -73 8 0 19 17 25 43 6 23 13 48 15 55 3
7 -5 12 -19 12 -19 0 -24 -7 -30 -37z"/>
<path d="M2155 4540 c-9 -15 4 -30 26 -30 12 0 19 7 19 20 0 21 -33 29 -45 10z"/>
<path d="M400 4525 c0 -11 12 -15 52 -15 l52 0 -32 -33 c-40 -41 -40 -52 1
-63 30 -9 32 -13 32 -54 0 -43 -1 -45 -32 -48 -24 -2 -34 2 -43 17 -13 26 -42
29 -33 4 18 -52 75 -69 121 -37 18 12 22 25 22 65 0 45 -3 52 -30 67 l-29 17
31 32 c46 47 34 63 -47 63 -51 0 -65 -3 -65 -15z"/>
<path d="M638 4519 c-16 -11 -28 -30 -28 -41 0 -19 0 -19 26 1 15 12 31 21 35
21 5 0 9 -43 9 -95 l0 -95 -35 0 c-24 0 -35 -5 -35 -15 0 -12 15 -15 75 -15
60 0 75 3 75 15 0 9 -9 15 -25 15 -24 0 -24 0 -27 113 -3 103 -5 112 -23 114
-11 2 -32 -7 -47 -18z"/>
<path d="M2490 4525 c0 -10 11 -15 35 -15 l35 0 0 -98 c0 -83 3 -102 18 -115
24 -22 102 -23 102 -2 0 10 -11 15 -35 15 -47 0 -55 19 -55 134 l0 96 -50 0
c-38 0 -50 -4 -50 -15z"/>
<path d="M1930 4506 c0 -19 -6 -25 -27 -28 -17 -2 -29 -10 -31 -20 -3 -14 3
-18 27 -18 l31 0 0 -70 c0 -58 3 -71 19 -80 31 -16 91 -13 91 5 0 10 -10 15
-28 15 -40 0 -52 17 -52 77 l0 53 41 0 c33 0 40 3 37 18 -2 12 -14 18 -41 20
-32 3 -37 7 -37 28 0 15 -6 24 -15 24 -9 0 -15 -9 -15 -24z"/>
<path d="M2340 4505 c0 -20 -5 -25 -25 -25 -18 0 -25 -5 -25 -20 0 -14 7 -20
24 -20 22 0 24 -4 28 -64 5 -80 17 -96 74 -96 57 0 63 27 7 32 l-38 3 -3 63
-3 62 41 0 c34 0 41 3 38 18 -2 12 -14 18 -41 20 -32 3 -37 7 -37 28 0 17 -5
24 -20 24 -15 0 -20 -7 -20 -25z"/>
<path d="M2107 4474 c-17 -17 -6 -34 23 -34 l30 0 0 -65 0 -65 -30 0 c-20 0
-30 -5 -30 -15 0 -12 16 -15 80 -15 64 0 80 3 80 15 0 10 -10 15 -30 15 l-29
0 -3 83 -3 82 -40 3 c-23 2 -44 0 -48 -4z"/>
<path d="M2762 4470 c-12 -5 -27 -22 -33 -37 -14 -37 -6 -109 16 -133 30 -33
125 -21 125 15 0 17 -26 20 -35 5 -9 -14 -48 -13 -63 2 -7 7 -12 20 -12 30 0
15 9 18 61 18 l62 0 -6 38 c-10 60 -56 85 -115 62z m66 -32 c24 -24 13 -38
-28 -38 -26 0 -40 5 -40 13 0 18 21 37 40 37 9 0 21 -5 28 -12z"/>
<path d="M2986 4299 c-10 -51 -7 -79 8 -79 8 0 18 19 25 44 15 60 14 66 -8 66
-13 0 -20 -10 -25 -31z"/>
<path d="M400 4005 c0 -11 12 -15 52 -15 l52 0 -32 -33 c-40 -41 -40 -52 1
-63 30 -9 32 -13 32 -54 0 -43 -1 -45 -32 -48 -24 -2 -34 2 -43 17 -13 26 -42
29 -33 4 18 -52 75 -69 121 -37 18 12 22 25 22 65 0 45 -3 52 -30 67 l-29 17
31 32 c46 47 34 63 -47 63 -51 0 -65 -3 -65 -15z"/>
<path d="M633 4005 c-25 -18 -37 -55 -17 -55 7 0 18 9 24 20 12 22 49 27 68 8
24 -24 12 -57 -43 -122 -75 -88 -74 -96 20 -96 60 0 75 3 75 15 0 12 -13 15
-55 15 l-56 0 51 61 c39 46 50 68 50 95 0 62 -65 96 -117 59z"/>
<path d="M1890 3890 c0 -109 2 -130 15 -130 8 0 15 5 15 11 0 8 4 8 14 0 8 -7
30 -11 48 -9 40 4 58 34 58 99 0 76 -47 118 -101 89 -17 -10 -19 -7 -19 30 0
29 -4 40 -15 40 -13 0 -15 -21 -15 -130z m99 26 c7 -8 11 -37 9 -68 -3 -48 -5
-53 -27 -56 -32 -5 -51 21 -51 69 0 56 41 89 69 55z"/>
<path d="M2420 3981 c0 -39 0 -39 -29 -28 -60 22 -103 -41 -87 -128 4 -19 14
-41 22 -50 18 -18 65 -20 82 -3 9 9 12 9 12 0 0 -7 7 -12 15 -12 13 0 15 21
15 130 0 109 -2 130 -15 130 -11 0 -15 -11 -15 -39z m-16 -67 c19 -18 22 -94
4 -112 -17 -17 -55 -15 -62 4 -3 9 -6 35 -6 58 0 61 30 84 64 50z"/>
<path d="M2122 3944 c-22 -15 -30 -44 -13 -44 5 0 23 8 39 17 25 14 32 15 46
4 28 -24 19 -41 -22 -41 -21 0 -48 -7 -60 -16 -27 -19 -29 -64 -4 -87 22 -20
73 -22 90 -5 9 9 12 9 12 0 0 -7 9 -12 21 -12 20 0 21 4 17 81 -3 70 -6 83
-27 100 -28 23 -69 24 -99 3z m88 -112 c0 -10 -5 -23 -12 -30 -17 -17 -57 -15
-64 3 -11 28 4 45 41 45 27 0 35 -4 35 -18z"/>
<path d="M2543 3945 c-25 -17 -37 -76 -25 -120 11 -38 50 -59 86 -45 22 8 26
7 26 -8 0 -27 -20 -42 -57 -42 -23 0 -33 -5 -33 -15 0 -21 83 -21 104 1 23 22
24 244 1 244 -8 0 -15 -5 -15 -10 0 -7 -6 -7 -19 0 -27 14 -43 13 -68 -5z m71
-31 c9 -8 16 -31 16 -49 0 -18 -7 -41 -16 -49 -18 -19 -20 -19 -45 -6 -14 8
-19 21 -19 53 0 62 30 86 64 51z"/>
<path d="M2762 3950 c-12 -5 -27 -22 -33 -37 -14 -37 -6 -109 16 -133 30 -33
125 -21 125 15 0 17 -26 20 -35 5 -9 -14 -48 -13 -63 2 -7 7 -12 20 -12 30 0
15 9 18 61 18 l62 0 -6 38 c-10 60 -56 85 -115 62z m66 -32 c24 -24 13 -38
-28 -38 -26 0 -40 5 -40 13 0 18 21 37 40 37 9 0 21 -5 28 -12z"/>
<path d="M2986 3779 c-10 -51 -7 -79 8 -79 8 0 18 19 25 44 15 60 14 66 -8 66
-13 0 -20 -10 -25 -31z"/>
<path d="M1470 3520 c0 -6 12 -15 26 -20 24 -10 26 -14 22 -55 -4 -28 -1 -51
7 -62 10 -14 10 -19 -1 -30 -9 -9 -11 -28 -7 -63 5 -47 4 -49 -21 -56 -33 -8
-29 -30 5 -26 42 7 51 21 47 81 l-3 56 38 3 c46 4 53 32 8 32 -39 0 -46 14
-42 77 2 43 0 53 -17 62 -26 14 -62 14 -62 1z"/>
<path d="M2184 3516 c-15 -11 -19 -27 -19 -73 l0 -58 -38 -3 c-47 -4 -45 -25
4 -32 l34 -5 1 -58 c0 -31 3 -59 6 -62 3 -3 19 -10 37 -15 37 -10 44 9 9 25
-20 9 -23 16 -20 56 3 32 -1 51 -12 62 -14 13 -14 16 0 28 10 8 15 27 13 53
-3 60 -1 66 21 66 11 0 20 7 20 15 0 19 -30 19 -56 1z"/>
<path d="M400 3485 c0 -11 12 -15 52 -15 l52 0 -32 -33 c-40 -41 -40 -52 1
-63 30 -9 32 -13 32 -54 0 -43 -1 -45 -32 -48 -24 -2 -34 2 -43 17 -13 26 -42
29 -33 4 18 -52 75 -69 121 -37 18 12 22 25 22 65 0 45 -3 52 -30 67 l-29 17
31 32 c46 47 34 63 -47 63 -51 0 -65 -3 -65 -15z"/>
<path d="M610 3485 c0 -11 11 -15 45 -15 52 0 55 -7 20 -40 -33 -31 -31 -42 8
-60 54 -25 47 -100 -9 -100 -13 0 -29 9 -36 20 -14 23 -38 27 -38 7 0 -27 40
-57 75 -57 48 0 75 29 75 80 0 40 -26 80 -51 80 -6 0 3 16 20 36 18 20 30 41
28 47 -2 7 -31 13 -70 15 -55 2 -67 0 -67 -13z"/>
<path d="M1731 3426 c-9 -11 -8 -17 4 -30 20 -20 47 -9 43 18 -4 25 -30 32
-47 12z"/>
<path d="M1728 3278 c-9 -23 3 -38 28 -38 19 0 24 5 24 25 0 20 -5 25 -24 25
-13 0 -26 -6 -28 -12z"/>
<path d="M3825 2980 c-9 -15 3 -30 24 -30 23 0 31 9 24 26 -6 16 -39 19 -48 4z"/>
<path d="M400 2965 c0 -11 12 -15 52 -15 l52 0 -32 -33 c-40 -41 -40 -52 1
-63 30 -9 32 -13 32 -54 0 -43 -1 -45 -32 -48 -24 -2 -34 2 -43 17 -13 26 -42
29 -33 4 18 -52 75 -69 121 -37 18 12 22 25 22 65 0 45 -3 52 -30 67 l-29 17
31 32 c46 47 34 63 -47 63 -51 0 -65 -3 -65 -15z"/>
<path d="M647 2904 c-26 -42 -47 -87 -47 -100 0 -21 5 -23 58 -26 54 -3 57 -4
60 -30 7 -58 22 -25 22 47 0 43 -4 75 -10 75 -5 0 -10 -13 -10 -30 0 -29 -2
-30 -45 -30 -25 0 -45 2 -45 4 0 2 20 37 45 77 49 79 52 89 32 89 -8 0 -35
-34 -60 -76z"/>
<path d="M2530 2967 c0 -8 16 -18 37 -23 44 -11 63 -36 47 -61 -6 -10 -21 -19
-33 -21 -16 -3 -21 -10 -21 -33 0 -19 5 -29 15 -29 8 0 15 6 15 13 0 8 11 19
25 25 52 24 51 107 -1 131 -34 15 -84 14 -84 -2z"/>
<path d="M3390 2946 c0 -19 -6 -25 -27 -28 -17 -2 -28 -9 -28 -18 0 -9 11 -16
28 -18 26 -3 27 -5 27 -67 0 -76 14 -95 71 -95 28 0 39 4 39 15 0 10 -10 15
-28 15 -40 0 -52 17 -52 77 l0 53 40 0 c33 0 40 3 40 20 0 17 -7 20 -40 20
-36 0 -40 3 -40 25 0 16 -6 25 -15 25 -9 0 -15 -9 -15 -24z"/>
<path d="M1913 2905 c-25 -18 -32 -68 -10 -82 6 -4 30 -12 52 -18 30 -7 40
-15 40 -30 0 -26 -62 -35 -71 -11 -9 23 -34 20 -34 -4 0 -25 29 -40 78 -40 95
0 98 104 4 117 -50 7 -63 21 -37 40 24 17 40 17 59 -2 28 -28 49 -11 27 23
-13 22 -82 26 -108 7z"/>
<path d="M2107 2913 c-4 -3 -7 -48 -7 -100 0 -86 2 -93 20 -93 17 0 19 8 22
76 2 60 7 79 21 88 22 14 51 -3 55 -33 5 -33 32 -26 32 9 0 42 -40 68 -81 53
-17 -7 -31 -7 -35 -2 -6 11 -18 12 -27 2z"/>
<path d="M2341 2907 c-44 -22 -53 -126 -15 -168 36 -39 134 -13 134 36 0 22
-27 18 -40 -5 -12 -22 -49 -27 -68 -8 -7 7 -12 34 -12 60 0 43 3 50 26 60 23
11 29 10 44 -10 19 -23 50 -30 50 -12 0 20 -49 60 -72 60 -13 0 -34 -6 -47
-13z"/>
<path d="M2783 2913 c-7 -2 -13 -13 -13 -24 0 -14 7 -19 25 -19 29 0 45 28 24
41 -15 10 -18 10 -36 2z"/>
<path d="M3159 2899 c-15 -15 -19 -28 -14 -47 8 -34 4 -31 61 -45 38 -9 49
-16 49 -32 0 -26 -55 -34 -75 -11 -15 20 -40 21 -40 3 0 -25 36 -47 74 -47 55
0 76 15 76 54 0 40 -13 53 -66 64 -23 5 -40 14 -42 24 -5 24 34 33 63 14 30
-20 45 -20 45 -2 0 43 -95 61 -131 25z"/>
<path d="M3570 2820 c0 -82 3 -100 15 -100 12 0 15 14 15 69 0 70 14 101 44
101 18 0 36 -21 36 -42 0 -12 7 -18 21 -18 18 0 20 4 14 28 -13 55 -52 75 -96
52 -13 -7 -19 -7 -19 0 0 5 -7 10 -15 10 -12 0 -15 -18 -15 -100z"/>
<path d="M3775 2911 c-11 -18 5 -31 36 -31 l30 0 -3 -62 c-3 -63 -3 -63 -35
-66 -21 -2 -33 -9 -33 -18 0 -11 17 -14 80 -14 64 0 80 3 80 15 0 10 -10 15
-30 15 l-29 0 -3 83 -3 82 -42 3 c-22 2 -44 -2 -48 -7z"/>
<path d="M3980 2820 c0 -82 3 -100 15 -100 12 0 15 14 15 69 0 70 14 101 44
101 26 0 36 -26 36 -97 0 -66 2 -73 20 -73 18 0 20 7 20 68 0 103 -32 147 -90
125 -16 -6 -30 -7 -30 -2 0 5 -7 9 -15 9 -12 0 -15 -18 -15 -100z"/>
<path d="M4210 2900 c-22 -22 -28 -106 -10 -140 12 -23 55 -34 81 -19 19 10
20 8 17 -18 -3 -25 -7 -28 -45 -31 -29 -2 -43 -8 -43 -18 0 -19 79 -19 106 0
16 12 19 29 22 121 4 111 -4 139 -32 116 -10 -8 -16 -9 -21 -1 -10 17 -54 11
-75 -10z m78 -22 c7 -7 12 -31 12 -55 0 -32 -5 -45 -19 -53 -25 -13 -27 -13
-45 6 -9 8 -16 31 -16 49 0 51 39 82 68 53z"/>
<path d="M4447 2913 c-12 -12 -7 -41 8 -47 22 -8 45 4 45 24 0 23 -37 39 -53
23z"/>
<path d="M2774 2755 c-4 -9 -2 -21 4 -27 16 -16 47 -5 47 17 0 26 -42 34 -51
10z"/>
<path d="M4446 2739 c-10 -51 -7 -79 8 -79 16 0 21 13 32 73 5 32 4 37 -14 37
-14 0 -21 -9 -26 -31z"/>
<path d="M2550 2739 c0 -15 5 -20 22 -17 34 5 37 38 4 38 -20 0 -26 -5 -26
-21z"/>
<path d="M3615 2450 c-9 -15 3 -30 24 -30 23 0 31 9 24 26 -6 16 -39 19 -48 4z"/>
<path d="M400 2435 c0 -11 12 -15 52 -15 l52 0 -32 -33 c-40 -41 -40 -52 1
-63 30 -9 32 -13 32 -54 0 -43 -1 -45 -32 -48 -24 -2 -34 2 -43 17 -13 26 -42
29 -33 4 18 -52 75 -69 121 -37 18 12 22 25 22 65 0 45 -3 52 -30 67 l-29 17
31 32 c46 47 34 63 -47 63 -51 0 -65 -3 -65 -15z"/>
<path d="M610 2385 l0 -65 43 0 c24 0 48 -5 55 -12 15 -15 15 -61 0 -76 -19
-19 -56 -14 -68 8 -11 20 -40 28 -40 11 0 -4 9 -20 21 -35 24 -30 72 -35 107
-10 18 12 22 25 22 64 0 57 -22 80 -77 80 -31 0 -33 2 -33 35 l0 35 50 0 c38
0 50 4 50 15 0 12 -14 15 -65 15 l-65 0 0 -65z"/>
<path d="M2100 2320 c0 -109 2 -130 15 -130 12 0 15 14 15 69 0 70 14 101 44
101 26 0 36 -26 36 -97 0 -66 2 -73 20 -73 18 0 20 7 20 68 0 103 -32 147 -90
125 l-30 -11 0 39 c0 28 -4 39 -15 39 -13 0 -15 -21 -15 -130z"/>
<path d="M2749 2431 c-22 -18 -24 -27 -24 -109 0 -107 14 -132 75 -132 51 0
74 27 74 88 l1 47 -43 3 c-38 3 -43 1 -40 -15 2 -10 14 -19 26 -21 18 -3 23
-9 20 -29 -4 -34 -32 -52 -55 -37 -14 9 -19 28 -21 88 -3 82 6 106 38 106 10
0 27 -12 38 -27 20 -28 45 -24 35 5 -19 53 -80 69 -124 33z"/>
<path d="M3467 2443 c-4 -3 -7 -22 -7 -42 0 -27 -3 -32 -12 -23 -18 18 -56 14
-78 -8 -16 -16 -20 -33 -20 -83 0 -82 14 -97 93 -96 l57 1 0 129 c0 101 -3
129 -13 129 -8 0 -17 -3 -20 -7z m-18 -97 c7 -8 11 -37 9 -68 -3 -48 -5 -53
-27 -56 -32 -5 -51 21 -51 69 0 56 41 89 69 55z"/>
<path d="M4410 2437 c0 -8 16 -18 37 -23 44 -11 63 -36 47 -61 -6 -10 -21 -19
-33 -21 -16 -3 -21 -10 -21 -33 0 -19 5 -29 15 -29 8 0 15 6 15 13 0 8 11 19
25 25 52 24 51 107 -1 131 -34 15 -84 14 -84 -2z"/>
<path d="M5020 2321 l0 -128 58 -1 c79 -1 92 13 92 95 0 50 -4 67 -20 83 -22
22 -60 26 -78 8 -9 -9 -12 -3 -12 30 0 35 -3 42 -20 42 -19 0 -20 -7 -20 -129z
m105 23 c22 -22 17 -103 -7 -118 -30 -19 -53 4 -56 58 -5 68 26 97 63 60z"/>
<path d="M5630 2435 c0 -10 10 -15 29 -15 l29 0 4 -101 c3 -85 7 -103 23 -115
26 -19 95 -19 95 1 0 9 -9 15 -24 15 -54 0 -56 4 -56 121 l0 109 -50 0 c-38 0
-50 -4 -50 -15z"/>
<path d="M4230 2416 c0 -19 -6 -25 -27 -28 -17 -2 -29 -10 -31 -20 -3 -14 3
-18 27 -18 l31 0 0 -70 c0 -58 3 -71 19 -80 31 -16 91 -13 91 5 0 10 -10 15
-28 15 -40 0 -52 17 -52 77 l0 53 41 0 c33 0 40 3 37 18 -2 12 -14 18 -41 20
-32 3 -37 7 -37 28 0 15 -6 24 -15 24 -9 0 -15 -9 -15 -24z"/>
<path d="M1913 2375 c-25 -18 -32 -68 -10 -82 6 -4 30 -12 52 -18 30 -7 40
-15 40 -30 0 -26 -62 -35 -71 -11 -9 23 -34 20 -34 -4 0 -25 29 -40 78 -40 95
0 98 104 4 117 -50 7 -63 21 -37 40 24 17 40 17 59 -2 28 -28 49 -11 27 23
-13 22 -82 26 -108 7z"/>
<path d="M2342 2380 c-12 -5 -27 -22 -33 -37 -14 -37 -6 -109 16 -133 24 -26
86 -27 109 -1 40 44 27 154 -21 172 -29 11 -41 11 -71 -1z m62 -33 c24 -17 19
-105 -6 -121 -31 -19 -53 4 -56 60 -3 37 1 51 14 61 10 7 21 13 24 13 3 0 14
-6 24 -13z"/>
<path d="M2500 2373 c0 -10 5 -55 12 -101 10 -75 13 -83 32 -80 18 3 23 14 31
68 12 74 20 70 30 -12 6 -47 11 -58 25 -58 10 0 21 8 24 18 12 41 29 172 24
178 -15 14 -26 -10 -33 -73 -8 -73 -16 -67 -29 19 -13 86 -40 76 -58 -23 l-12
-64 -11 69 c-5 38 -16 71 -22 74 -7 2 -13 -4 -13 -15z"/>
<path d="M2940 2290 c0 -82 3 -100 15 -100 12 0 15 14 15 64 0 47 5 70 18 86
24 30 62 20 62 -16 0 -17 5 -24 20 -24 15 0 20 7 20 25 0 49 -66 84 -99 53
-11 -10 -14 -10 -18 0 -3 6 -11 12 -19 12 -11 0 -14 -20 -14 -100z"/>
<path d="M3163 2366 c-24 -21 -26 -25 -11 -31 10 -4 24 0 33 9 21 20 39 20 59
0 25 -25 19 -34 -24 -34 -74 0 -113 -68 -62 -107 20 -16 74 -17 90 -1 9 9 12
9 12 0 0 -7 7 -12 15 -12 12 0 15 16 15 80 0 67 -3 83 -20 100 -27 27 -73 25
-107 -4z m97 -97 c0 -27 -22 -49 -51 -49 -31 0 -46 18 -35 45 6 17 86 21 86 4z"/>
<path d="M3565 2381 c-11 -18 5 -31 36 -31 l30 0 -3 -62 c-3 -63 -3 -63 -35
-66 -21 -2 -33 -9 -33 -18 0 -11 17 -14 80 -14 64 0 80 3 80 15 0 10 -10 15
-30 15 l-29 0 -3 83 -3 82 -42 3 c-22 2 -44 -2 -48 -7z"/>
<path d="M3796 2369 c-23 -18 -26 -28 -26 -80 0 -70 21 -99 73 -99 33 0 77 23
77 41 0 12 -37 12 -45 -1 -11 -17 -54 -11 -65 9 -18 36 -12 41 50 41 l60 0 0
34 c0 39 -37 76 -75 76 -12 0 -34 -9 -49 -21z m78 -25 c26 -25 19 -34 -29 -34
-25 0 -45 4 -45 9 0 14 30 41 45 41 7 0 21 -7 29 -16z"/>
<path d="M3980 2290 c0 -82 3 -100 15 -100 12 0 15 14 15 69 0 70 14 101 44
101 26 0 36 -26 36 -97 0 -66 2 -73 20 -73 18 0 20 7 20 68 0 103 -32 147 -90
125 -16 -6 -30 -7 -30 -2 0 5 -7 9 -15 9 -12 0 -15 -18 -15 -100z"/>
<path d="M4663 2383 c-7 -2 -13 -13 -13 -24 0 -14 7 -19 25 -19 29 0 45 28 24
41 -15 10 -18 10 -36 2z"/>
<path d="M5273 2380 c-30 -12 -43 -41 -43 -97 0 -62 25 -93 75 -93 54 0 75 28
75 98 0 63 -5 74 -37 91 -25 13 -40 13 -70 1z m61 -36 c21 -20 21 -97 1 -114
-24 -20 -62 -4 -70 29 -8 37 3 79 24 91 22 13 27 12 45 -6z"/>
<path d="M5466 2369 c-23 -18 -26 -28 -26 -80 0 -71 21 -99 75 -99 54 0 75 28
75 99 0 52 -3 62 -26 80 -15 12 -37 21 -49 21 -12 0 -34 -9 -49 -21z m74 -29
c37 -37 20 -120 -25 -120 -29 0 -45 26 -45 71 0 31 23 69 42 69 4 0 17 -9 28
-20z"/>
<path d="M5895 2378 c-31 -17 -35 -28 -35 -94 0 -46 4 -65 18 -77 27 -25 87
-22 114 5 21 21 21 23 4 26 -10 2 -23 -1 -29 -7 -26 -26 -77 -5 -77 31 0 15 9
18 60 18 l60 0 0 30 c0 59 -64 97 -115 68z m63 -30 c24 -24 13 -38 -28 -38
-26 0 -40 5 -40 13 0 18 21 37 40 37 9 0 21 -5 28 -12z"/>
<path d="M6092 2374 c-22 -15 -30 -44 -13 -44 5 0 23 8 39 17 25 14 32 15 46
4 28 -24 19 -41 -22 -41 -21 0 -48 -7 -60 -16 -27 -19 -29 -64 -4 -87 22 -20
73 -22 90 -5 9 9 12 9 12 0 0 -7 9 -12 21 -12 20 0 21 4 17 81 -3 70 -6 83
-27 100 -28 23 -69 24 -99 3z m88 -112 c0 -10 -5 -23 -12 -30 -17 -17 -57 -15
-64 3 -11 28 4 45 41 45 27 0 35 -4 35 -18z"/>
<path d="M6280 2290 c0 -82 3 -100 15 -100 12 0 15 14 15 69 0 70 14 101 44
101 26 0 36 -26 36 -97 0 -66 2 -73 20 -73 18 0 20 7 20 68 0 103 -32 147 -90
125 -16 -6 -30 -7 -30 -2 0 5 -7 9 -15 9 -12 0 -15 -18 -15 -100z"/>
<path d="M6537 2383 c-12 -12 -7 -41 8 -47 22 -8 45 4 45 24 0 23 -37 39 -53
23z"/>
<path d="M4654 2225 c-4 -9 -2 -21 4 -27 16 -16 47 -5 47 17 0 26 -42 34 -51
10z"/>
<path d="M6536 2209 c-10 -51 -7 -79 8 -79 16 0 21 13 32 73 5 32 4 37 -14 37
-14 0 -21 -9 -26 -31z"/>
<path d="M4430 2209 c0 -15 5 -20 22 -17 34 5 37 38 4 38 -20 0 -26 -5 -26
-21z"/>
<path d="M5080 1795 c0 -140 2 -165 15 -165 13 0 15 25 15 165 0 140 -2 165
-15 165 -13 0 -15 -25 -15 -165z"/>
<path d="M2155 1930 c-9 -15 4 -30 26 -30 12 0 19 7 19 20 0 21 -33 29 -45 10z"/>
<path d="M4245 1930 c-9 -15 4 -30 26 -30 12 0 19 7 19 20 0 21 -33 29 -45 10z"/>
<path d="M400 1915 c0 -11 12 -15 52 -15 l52 0 -32 -33 c-40 -41 -40 -52 1
-63 30 -9 32 -13 32 -54 0 -43 -1 -45 -32 -48 -24 -2 -34 2 -43 17 -13 26 -42
29 -33 4 18 -52 75 -69 121 -37 18 12 22 25 22 65 0 45 -3 52 -30 67 l-29 17
31 32 c46 47 34 63 -47 63 -51 0 -65 -3 -65 -15z"/>
<path d="M641 1856 c-50 -89 -54 -135 -15 -165 82 -64 182 42 108 116 -17 17
-33 24 -50 20 -30 -5 -30 -2 1 48 28 47 30 55 11 55 -8 0 -33 -33 -55 -74z
m81 -81 c17 -37 -3 -75 -40 -75 -35 0 -52 16 -52 50 0 34 17 50 52 50 21 0 32
-7 40 -25z"/>
<path d="M2490 1915 c0 -10 11 -15 35 -15 l35 0 0 -98 c0 -83 3 -102 18 -115
24 -22 102 -23 102 -2 0 10 -11 15 -35 15 -47 0 -55 19 -55 134 l0 96 -50 0
c-38 0 -50 -4 -50 -15z"/>
<path d="M2950 1916 c0 -8 15 -17 34 -20 46 -9 62 -29 48 -61 -8 -17 -20 -25
-37 -25 -21 0 -25 -5 -25 -30 0 -23 4 -30 20 -30 11 0 20 7 20 15 0 8 5 15 10
15 22 0 50 41 50 74 0 25 -7 40 -26 55 -31 24 -94 29 -94 7z"/>
<path d="M5440 1800 c0 -123 1 -130 20 -130 18 0 20 7 20 55 0 42 3 55 15 55
8 0 27 -25 42 -55 18 -36 33 -55 45 -55 23 0 23 1 -6 58 l-24 47 24 28 c31 36
30 71 -1 102 -20 21 -34 25 -80 25 l-55 0 0 -130z m101 90 c21 -12 25 -50 7
-68 -7 -7 -25 -12 -40 -12 -27 0 -28 2 -28 45 0 39 3 45 21 45 11 0 29 -5 40
-10z"/>
<path d="M6700 1800 c0 -109 2 -130 15 -130 12 0 15 13 15 55 0 46 3 55 18 55
12 0 27 -19 45 -55 19 -39 32 -55 47 -55 19 0 19 2 -7 54 l-26 53 22 22 c13
13 21 34 21 55 0 48 -37 76 -101 76 l-49 0 0 -130z m98 84 c12 -8 22 -21 22
-29 0 -23 -30 -45 -61 -45 -28 0 -29 2 -29 45 0 40 2 45 23 45 12 0 33 -7 45
-16z"/>
<path d="M7740 1800 c0 -107 3 -130 15 -130 11 0 15 20 17 98 l3 97 34 -97
c30 -86 37 -98 58 -98 23 0 23 0 23 130 0 107 -3 130 -15 130 -11 0 -15 -20
-17 -97 l-3 -98 -35 97 c-30 85 -38 98 -57 98 -23 0 -23 -2 -23 -130z"/>
<path d="M8270 1892 c0 -40 0 -40 -29 -29 -23 9 -34 7 -55 -6 -24 -16 -26 -23
-26 -86 0 -86 12 -100 93 -99 l58 1 -3 126 c-3 111 -5 126 -20 129 -15 3 -18
-4 -18 -36z m-11 -66 c18 -22 10 -107 -11 -120 -31 -19 -53 4 -56 60 -3 37 1
51 14 61 23 17 39 16 53 -1z"/>
<path d="M1930 1896 c0 -19 -6 -25 -27 -28 -17 -2 -29 -10 -31 -20 -3 -14 3
-18 27 -18 l31 0 0 -70 c0 -58 3 -71 19 -80 31 -16 91 -13 91 5 0 10 -10 15
-28 15 -40 0 -52 17 -52 77 l0 53 41 0 c33 0 40 3 37 18 -2 12 -14 18 -41 20
-32 3 -37 7 -37 28 0 15 -6 24 -15 24 -9 0 -15 -9 -15 -24z"/>
<path d="M2340 1895 c0 -20 -5 -25 -25 -25 -18 0 -25 -5 -25 -20 0 -14 7 -20
24 -20 22 0 24 -4 28 -64 5 -80 17 -96 74 -96 57 0 63 27 7 32 l-38 3 -3 63
-3 62 41 0 c34 0 41 3 38 18 -2 12 -14 18 -41 20 -32 3 -37 7 -37 28 0 17 -5
24 -20 24 -15 0 -20 -7 -20 -25z"/>
<path d="M3810 1896 c0 -19 -6 -25 -27 -28 -17 -2 -28 -9 -28 -18 0 -9 11 -16
28 -18 26 -3 27 -5 27 -67 0 -76 14 -95 71 -95 28 0 39 4 39 15 0 10 -10 15
-28 15 -40 0 -52 17 -52 77 l0 53 40 0 c33 0 40 3 40 20 0 17 -7 20 -40 20
-36 0 -40 3 -40 25 0 16 -6 25 -15 25 -9 0 -15 -9 -15 -24z"/>
<path d="M6320 1896 c0 -19 -6 -25 -27 -28 -17 -2 -29 -10 -31 -20 -3 -14 3
-18 27 -18 l31 0 0 -70 c0 -58 3 -71 19 -80 31 -16 91 -13 91 5 0 10 -10 15
-28 15 -40 0 -52 17 -52 77 l0 53 41 0 c33 0 40 3 37 18 -2 12 -14 18 -41 20
-32 3 -37 7 -37 28 0 15 -6 24 -15 24 -9 0 -15 -9 -15 -24z"/>
<path d="M7570 1896 c0 -19 -6 -25 -27 -28 -17 -2 -28 -9 -28 -18 0 -9 11 -16
28 -18 26 -3 27 -5 27 -67 0 -76 14 -95 71 -95 28 0 39 4 39 15 0 10 -10 15
-28 15 -40 0 -52 17 -52 77 l0 53 40 0 c33 0 40 3 40 20 0 17 -7 20 -40 20
-36 0 -40 3 -40 25 0 16 -6 25 -15 25 -9 0 -15 -9 -15 -24z"/>
<path d="M2107 1864 c-17 -17 -6 -34 23 -34 l30 0 0 -65 0 -65 -30 0 c-20 0
-30 -5 -30 -15 0 -12 16 -15 80 -15 64 0 80 3 80 15 0 10 -10 15 -30 15 l-29
0 -3 83 -3 82 -40 3 c-23 2 -44 0 -48 -4z"/>
<path d="M2762 1860 c-12 -5 -27 -22 -33 -37 -14 -37 -6 -109 16 -133 30 -33
125 -21 125 15 0 17 -26 20 -35 5 -9 -14 -48 -13 -63 2 -7 7 -12 20 -12 30 0
15 9 18 61 18 l62 0 -6 38 c-10 60 -56 85 -115 62z m66 -32 c24 -24 13 -38
-28 -38 -26 0 -40 5 -40 13 0 18 21 37 40 37 9 0 21 -5 28 -12z"/>
<path d="M3197 1863 c-12 -11 -7 -41 7 -46 8 -3 22 0 32 8 15 11 16 15 5 29
-14 17 -33 21 -44 9z"/>
<path d="M3582 1854 c-46 -32 -22 -89 42 -98 24 -4 47 -13 49 -20 13 -32 -49
-50 -73 -21 -16 19 -40 19 -40 1 0 -27 30 -46 75 -46 51 0 75 19 75 59 0 35
-15 48 -66 59 -23 5 -40 14 -42 24 -5 25 35 33 65 13 35 -23 53 -5 24 24 -25
25 -77 28 -109 5z"/>
<path d="M3987 1863 c-4 -3 -7 -48 -7 -100 0 -86 2 -93 20 -93 17 0 19 8 22
76 2 60 7 79 21 88 22 14 51 -3 55 -33 5 -33 32 -26 32 9 0 42 -40 68 -81 53
-17 -7 -31 -7 -35 -2 -6 11 -18 12 -27 2z"/>
<path d="M4197 1864 c-17 -17 -6 -34 23 -34 l30 0 0 -65 0 -65 -30 0 c-20 0
-30 -5 -30 -15 0 -12 16 -15 80 -15 64 0 80 3 80 15 0 10 -10 15 -30 15 l-29
0 -3 83 -3 82 -40 3 c-23 2 -44 0 -48 -4z"/>
<path d="M4400 1770 c0 -81 3 -100 15 -100 11 0 15 17 17 76 2 60 7 79 21 88
12 8 22 8 35 0 13 -9 18 -28 20 -88 2 -59 6 -76 17 -76 12 0 15 17 15 85 0 80
-1 85 -26 102 -21 13 -32 15 -55 6 -17 -7 -31 -7 -35 -2 -16 27 -24 -1 -24
-91z"/>
<path d="M4633 1855 c-25 -17 -37 -76 -25 -120 11 -38 50 -59 86 -45 22 8 26
7 26 -8 0 -27 -20 -42 -57 -42 -23 0 -33 -5 -33 -15 0 -21 83 -21 104 1 23 22
24 244 1 244 -8 0 -15 -5 -15 -10 0 -7 -6 -7 -19 0 -27 14 -43 13 -68 -5z m71
-31 c9 -8 16 -31 16 -49 0 -18 -7 -41 -16 -49 -18 -19 -20 -19 -45 -6 -14 8
-19 21 -19 53 0 62 30 86 64 51z"/>
<path d="M5676 1849 c-23 -18 -26 -28 -26 -80 0 -70 21 -99 73 -99 33 0 77 23
77 41 0 12 -37 12 -45 -1 -11 -17 -54 -11 -65 9 -18 36 -12 41 50 41 l60 0 0
34 c0 39 -37 76 -75 76 -12 0 -34 -9 -49 -21z m78 -25 c26 -25 19 -34 -29 -34
-25 0 -45 4 -45 9 0 14 30 41 45 41 7 0 21 -7 29 -16z"/>
<path d="M5882 1854 c-22 -15 -30 -44 -13 -44 5 0 23 8 39 17 25 14 32 15 46
4 28 -24 19 -41 -22 -41 -21 0 -48 -7 -60 -16 -27 -19 -29 -64 -4 -87 22 -20
73 -22 90 -5 9 9 12 9 12 0 0 -7 9 -12 21 -12 20 0 21 4 17 81 -3 70 -6 83
-27 100 -28 23 -69 24 -99 3z m88 -112 c0 -10 -5 -23 -12 -30 -17 -17 -57 -15
-64 3 -11 28 4 45 41 45 27 0 35 -4 35 -18z"/>
<path d="M6105 1858 c-31 -17 -35 -28 -35 -95 0 -53 3 -64 22 -77 46 -33 128
-7 128 39 0 22 -27 18 -40 -5 -12 -22 -49 -27 -68 -8 -7 7 -12 31 -12 54 0 66
42 95 77 54 20 -23 43 -26 43 -6 0 20 -48 56 -74 56 -11 0 -30 -6 -41 -12z"/>
<path d="M6925 1845 c-20 -19 -25 -34 -25 -78 0 -68 23 -97 79 -97 34 0 71 22
71 43 0 11 -38 8 -45 -3 -12 -19 -55 -11 -64 13 -13 32 -6 37 55 37 l54 0 0
34 c0 25 -7 40 -26 55 -35 28 -69 26 -99 -4z m89 -27 c14 -24 5 -30 -43 -26
-41 3 -41 3 -25 26 18 26 51 26 68 0z"/>
<path d="M7133 1846 c-24 -21 -26 -25 -11 -31 10 -4 24 0 33 9 21 20 39 20 59
0 25 -25 19 -34 -24 -34 -74 0 -113 -68 -62 -107 20 -16 74 -17 90 -1 9 9 12
9 12 0 0 -7 7 -12 15 -12 12 0 15 16 15 80 0 67 -3 83 -20 100 -27 27 -73 25
-107 -4z m97 -97 c0 -27 -22 -49 -51 -49 -31 0 -46 18 -35 45 6 17 86 21 86 4z"/>
<path d="M7345 1845 c-38 -37 -32 -140 9 -167 6 -4 28 -8 48 -8 28 0 42 6 57
26 11 15 18 30 15 35 -9 15 -29 10 -42 -11 -14 -22 -42 -26 -60 -8 -7 7 -12
33 -12 60 0 37 4 50 20 58 21 11 60 -2 60 -20 0 -6 9 -10 19 -10 14 0 18 5 14
20 -14 51 -88 66 -128 25z"/>
<path d="M7985 1858 c-31 -18 -35 -28 -35 -95 0 -53 3 -64 22 -77 35 -25 83
-20 107 10 27 34 29 112 4 143 -22 26 -71 35 -98 19z m56 -28 c15 -9 19 -22
19 -65 0 -50 -2 -55 -25 -61 -15 -4 -32 -1 -40 6 -20 17 -20 94 1 114 18 19
20 19 45 6z"/>
<path d="M8405 1858 c-31 -17 -35 -28 -35 -94 0 -46 4 -65 18 -77 27 -25 87
-22 114 5 21 21 21 23 4 26 -10 2 -23 -1 -29 -7 -26 -26 -77 -5 -77 31 0 15 9
18 60 18 l60 0 0 30 c0 59 -64 97 -115 68z m63 -30 c24 -24 13 -38 -28 -38
-26 0 -40 5 -40 13 0 18 21 37 40 37 9 0 21 -5 28 -12z"/>
<path d="M8627 1863 c-12 -12 -7 -41 8 -47 22 -8 45 4 45 24 0 23 -37 39 -53
23z"/>
<path d="M6540 1715 c-17 -20 -5 -45 20 -45 11 0 23 7 26 15 6 15 -11 45 -26
45 -4 0 -13 -7 -20 -15z"/>
<path d="M3197 1713 c-4 -3 -7 -15 -7 -25 0 -21 45 -26 52 -5 11 28 -24 52
-45 30z"/>
<path d="M8626 1689 c-10 -51 -7 -79 8 -79 16 0 21 13 32 73 5 32 4 37 -14 37
-14 0 -21 -9 -26 -31z"/>
<path d="M2965 1700 c-4 -7 -3 -16 3 -22 14 -14 47 -6 47 12 0 18 -40 26 -50
10z"/>
<path d="M400 1395 c0 -11 12 -15 52 -15 l52 0 -32 -33 c-40 -41 -40 -52 1
-63 30 -9 32 -13 32 -54 0 -43 -1 -45 -32 -48 -24 -2 -34 2 -43 17 -13 26 -42
29 -33 4 18 -52 75 -69 121 -37 18 12 22 25 22 65 0 45 -3 52 -30 67 l-29 17
31 32 c46 47 34 63 -47 63 -51 0 -65 -3 -65 -15z"/>
<path d="M607 1403 c-4 -3 -7 -19 -7 -35 0 -33 25 -39 33 -8 4 16 14 20 51 20
25 0 46 -1 46 -3 0 -2 -12 -32 -26 -68 -67 -164 -65 -159 -46 -159 12 0 28 29
60 108 23 59 42 117 42 130 0 21 -4 22 -73 22 -41 0 -77 -3 -80 -7z"/>
<path d="M1890 1280 c0 -109 2 -130 15 -130 8 0 15 5 15 11 0 8 4 8 14 0 8 -7
30 -11 48 -9 40 4 58 34 58 99 0 76 -47 118 -101 89 -17 -10 -19 -7 -19 30 0
29 -4 40 -15 40 -13 0 -15 -21 -15 -130z m99 26 c7 -8 11 -37 9 -68 -3 -48 -5
-53 -27 -56 -32 -5 -51 21 -51 69 0 56 41 89 69 55z"/>
<path d="M2420 1371 c0 -39 0 -39 -29 -28 -60 22 -103 -41 -87 -128 4 -19 14
-41 22 -50 18 -18 65 -20 82 -3 9 9 12 9 12 0 0 -7 7 -12 15 -12 13 0 15 21
15 130 0 109 -2 130 -15 130 -11 0 -15 -11 -15 -39z m-16 -67 c19 -18 22 -94
4 -112 -17 -17 -55 -15 -62 4 -3 9 -6 35 -6 58 0 61 30 84 64 50z"/>
<path d="M2950 1396 c0 -8 15 -17 34 -20 46 -9 62 -29 48 -61 -8 -17 -20 -25
-37 -25 -21 0 -25 -5 -25 -30 0 -23 4 -30 20 -30 11 0 20 7 20 15 0 8 5 15 10
15 22 0 50 41 50 74 0 25 -7 40 -26 55 -31 24 -94 29 -94 7z"/>
<path d="M3560 1280 c0 -123 1 -130 20 -130 18 0 20 7 20 55 0 42 3 55 15 55
8 0 27 -25 42 -55 18 -36 33 -55 45 -55 23 0 23 1 -6 58 l-24 47 24 28 c31 36
30 71 -1 102 -20 21 -34 25 -80 25 l-55 0 0 -130z m101 90 c21 -12 25 -50 7
-68 -7 -7 -25 -12 -40 -12 -27 0 -28 2 -28 45 0 39 3 45 21 45 11 0 29 -5 40
-10z"/>
<path d="M4810 1280 c0 -123 1 -130 20 -130 18 0 20 7 20 55 0 47 3 55 19 55
14 0 26 -16 42 -55 16 -40 28 -55 42 -55 11 0 17 5 14 13 -3 6 -13 31 -22 55
-17 42 -17 43 4 63 29 27 27 74 -4 104 -20 21 -34 25 -80 25 l-55 0 0 -130z
m101 90 c21 -12 25 -50 7 -68 -7 -7 -25 -12 -40 -12 -27 0 -28 2 -28 45 0 39
3 45 21 45 11 0 29 -5 40 -10z"/>
<path d="M5860 1281 c0 -110 2 -131 15 -131 12 0 15 18 16 98 l0 97 36 -97
c31 -87 38 -98 59 -98 l24 0 0 130 c0 123 -1 130 -20 130 -19 0 -20 -7 -21
-92 l0 -93 -33 90 c-26 72 -37 91 -55 93 -21 3 -21 1 -21 -127z"/>
<path d="M6390 1372 c0 -40 0 -40 -29 -29 -23 9 -34 7 -55 -6 -24 -16 -26 -23
-26 -86 0 -86 12 -100 93 -99 l58 1 -3 126 c-3 111 -5 126 -20 129 -15 3 -18
-4 -18 -36z m-11 -66 c18 -22 10 -107 -11 -120 -31 -19 -53 4 -56 60 -3 37 1
51 14 61 23 17 39 16 53 -1z"/>
<path d="M4430 1375 c0 -20 -5 -25 -25 -25 -18 0 -25 -5 -25 -20 0 -14 7 -20
24 -20 22 0 24 -4 28 -64 5 -80 17 -96 74 -96 57 0 63 27 7 32 l-38 3 -3 63
-3 62 41 0 c34 0 41 3 38 18 -2 12 -14 18 -41 20 -32 3 -37 7 -37 28 0 17 -5
24 -20 24 -15 0 -20 -7 -20 -25z"/>
<path d="M5690 1376 c0 -19 -6 -25 -27 -28 -17 -2 -28 -9 -28 -18 0 -9 11 -16
28 -18 26 -3 27 -5 27 -67 0 -76 14 -95 71 -95 28 0 39 4 39 15 0 10 -10 15
-28 15 -40 0 -52 17 -52 77 l0 53 40 0 c33 0 40 3 40 20 0 17 -7 20 -40 20
-36 0 -40 3 -40 25 0 16 -6 25 -15 25 -9 0 -15 -9 -15 -24z"/>
<path d="M2122 1334 c-22 -15 -30 -44 -13 -44 5 0 23 8 39 17 25 14 32 15 46
4 28 -24 19 -41 -22 -41 -21 0 -48 -7 -60 -16 -27 -19 -29 -64 -4 -87 22 -20
73 -22 90 -5 9 9 12 9 12 0 0 -7 9 -12 21 -12 20 0 21 4 17 81 -3 70 -6 83
-27 100 -28 23 -69 24 -99 3z m88 -112 c0 -10 -5 -23 -12 -30 -17 -17 -57 -15
-64 3 -11 28 4 45 41 45 27 0 35 -4 35 -18z"/>
<path d="M2543 1335 c-25 -17 -37 -76 -25 -120 11 -38 50 -59 86 -45 22 8 26
7 26 -8 0 -27 -20 -42 -57 -42 -23 0 -33 -5 -33 -15 0 -21 83 -21 104 1 23 22
24 244 1 244 -8 0 -15 -5 -15 -10 0 -7 -6 -7 -19 0 -27 14 -43 13 -68 -5z m71
-31 c9 -8 16 -31 16 -49 0 -18 -7 -41 -16 -49 -18 -19 -20 -19 -45 -6 -14 8
-19 21 -19 53 0 62 30 86 64 51z"/>
<path d="M2762 1340 c-12 -5 -27 -22 -33 -37 -14 -37 -6 -109 16 -133 30 -33
125 -21 125 15 0 17 -26 20 -35 5 -9 -14 -48 -13 -63 2 -7 7 -12 20 -12 30 0
15 9 18 61 18 l62 0 -6 38 c-10 60 -56 85 -115 62z m66 -32 c24 -24 13 -38
-28 -38 -26 0 -40 5 -40 13 0 18 21 37 40 37 9 0 21 -5 28 -12z"/>
<path d="M3197 1343 c-12 -11 -7 -41 7 -46 8 -3 22 0 32 8 15 11 16 15 5 29
-14 17 -33 21 -44 9z"/>
<path d="M3796 1329 c-23 -18 -26 -28 -26 -80 0 -70 21 -99 73 -99 33 0 77 23
77 41 0 12 -37 12 -45 -1 -11 -17 -54 -11 -65 9 -18 36 -12 41 50 41 l60 0 0
34 c0 39 -37 76 -75 76 -12 0 -34 -9 -49 -21z m78 -25 c26 -25 19 -34 -29 -34
-25 0 -45 4 -45 9 0 14 30 41 45 41 7 0 21 -7 29 -16z"/>
<path d="M4002 1334 c-22 -15 -30 -44 -13 -44 5 0 23 8 39 17 25 14 32 15 46
4 28 -24 19 -41 -22 -41 -21 0 -48 -7 -60 -16 -27 -19 -29 -64 -4 -87 22 -20
73 -22 90 -5 9 9 12 9 12 0 0 -7 9 -12 21 -12 20 0 21 4 17 81 -3 70 -6 83
-27 100 -28 23 -69 24 -99 3z m88 -112 c0 -10 -5 -23 -12 -30 -17 -17 -57 -15
-64 3 -11 28 4 45 41 45 27 0 35 -4 35 -18z"/>
<path d="M4225 1338 c-31 -17 -35 -28 -35 -95 0 -53 3 -64 22 -77 46 -33 128
-7 128 39 0 22 -27 18 -40 -5 -12 -22 -49 -27 -68 -8 -7 7 -12 31 -12 54 0 66
42 95 77 54 20 -23 43 -26 43 -6 0 20 -48 56 -74 56 -11 0 -30 -6 -41 -12z"/>
<path d="M5045 1325 c-20 -19 -25 -34 -25 -78 0 -68 23 -97 79 -97 34 0 71 22
71 43 0 11 -38 8 -45 -3 -12 -19 -55 -11 -64 13 -13 32 -6 37 55 37 l54 0 0
34 c0 25 -7 40 -26 55 -35 28 -69 26 -99 -4z m89 -27 c14 -24 5 -30 -43 -26
-41 3 -41 3 -25 26 18 26 51 26 68 0z"/>
<path d="M5253 1326 c-24 -21 -26 -25 -11 -31 10 -4 24 0 33 9 21 20 39 20 59
0 25 -25 19 -34 -24 -34 -74 0 -113 -68 -62 -107 20 -16 74 -17 90 -1 9 9 12
9 12 0 0 -7 7 -12 15 -12 12 0 15 16 15 80 0 67 -3 83 -20 100 -27 27 -73 25
-107 -4z m97 -97 c0 -27 -22 -49 -51 -49 -31 0 -46 18 -35 45 6 17 86 21 86 4z"/>
<path d="M5467 1330 c-24 -19 -27 -28 -27 -81 0 -46 4 -63 20 -79 40 -40 130
-17 130 33 0 24 -23 21 -38 -4 -9 -14 -21 -19 -40 -17 -22 2 -29 10 -37 41
-16 69 33 123 72 78 20 -24 43 -28 43 -8 0 49 -78 72 -123 37z"/>
<path d="M6105 1338 c-31 -18 -35 -28 -35 -95 0 -53 3 -64 22 -77 35 -25 83
-20 107 10 27 34 29 112 4 143 -22 26 -71 35 -98 19z m56 -28 c15 -9 19 -22
19 -65 0 -50 -2 -55 -25 -61 -15 -4 -32 -1 -40 6 -20 17 -20 94 1 114 18 19
20 19 45 6z"/>
<path d="M6522 1340 c-12 -5 -27 -22 -33 -37 -14 -37 -6 -109 16 -133 30 -33
125 -21 125 15 0 17 -26 20 -35 5 -9 -14 -48 -13 -63 2 -7 7 -12 20 -12 30 0
15 9 18 61 18 l62 0 -6 38 c-10 60 -56 85 -115 62z m66 -32 c24 -24 13 -38
-28 -38 -26 0 -40 5 -40 13 0 18 21 37 40 37 9 0 21 -5 28 -12z"/>
<path d="M6747 1343 c-12 -12 -7 -41 8 -47 22 -8 45 4 45 24 0 23 -37 39 -53
23z"/>
<path d="M4660 1195 c-17 -20 -5 -45 20 -45 11 0 23 7 26 15 6 15 -11 45 -26
45 -4 0 -13 -7 -20 -15z"/>
<path d="M3197 1193 c-4 -3 -7 -15 -7 -25 0 -21 45 -26 52 -5 11 28 -24 52
-45 30z"/>
<path d="M6746 1169 c-10 -51 -7 -79 8 -79 16 0 21 13 32 73 5 32 4 37 -14 37
-14 0 -21 -9 -26 -31z"/>
<path d="M2965 1180 c-4 -7 -3 -16 3 -22 14 -14 47 -6 47 12 0 18 -40 26 -50
10z"/>
<path d="M2910 755 c0 -170 4 -265 10 -265 6 0 10 95 10 265 0 170 -4 265 -10
265 -6 0 -10 -95 -10 -265z"/>
<path d="M1470 910 c0 -6 12 -15 26 -20 24 -10 26 -14 22 -55 -4 -28 -1 -51 7
-62 10 -14 10 -19 -1 -30 -9 -9 -11 -28 -7 -63 5 -47 4 -49 -21 -56 -33 -8
-29 -30 5 -26 42 7 51 21 47 81 l-3 56 38 3 c46 4 53 32 8 32 -39 0 -46 14
-42 77 2 43 0 53 -17 62 -26 14 -62 14 -62 1z"/>
<path d="M1690 906 c0 -8 8 -17 18 -20 33 -11 52 -59 52 -135 0 -67 -2 -72
-35 -105 -31 -32 -44 -56 -30 -56 20 0 67 35 79 58 38 76 27 199 -23 244 -34
30 -61 36 -61 14z"/>
<path d="M2810 910 c-10 -6 -17 -32 -20 -72 -5 -63 -5 -63 -37 -66 -47 -5 -44
-32 2 -32 l35 0 0 -59 c0 -63 8 -75 53 -86 36 -9 38 17 2 33 -22 10 -24 16
-19 55 5 32 2 47 -10 59 -14 15 -14 17 0 29 12 10 15 24 11 52 -7 49 0 67 24
67 10 0 19 7 19 15 0 17 -36 20 -60 5z"/>
<path d="M400 875 c0 -11 12 -15 45 -15 52 0 55 -7 20 -40 -32 -30 -33 -60 -2
-60 13 0 28 -5 35 -12 15 -15 15 -61 0 -76 -20 -20 -59 -15 -65 8 -5 17 -43
30 -43 14 0 -11 23 -49 34 -56 23 -16 83 -8 102 13 30 33 25 96 -10 126 l-29
24 27 28 c46 48 36 61 -44 61 -56 0 -70 -3 -70 -15z"/>
<path d="M637 879 c-10 -6 -23 -22 -28 -37 -8 -20 -6 -31 10 -52 19 -26 19
-27 0 -38 -13 -8 -19 -24 -19 -47 0 -48 29 -75 80 -75 49 0 80 27 80 70 0 17
-9 39 -19 49 -17 17 -18 21 -5 32 22 19 18 75 -8 93 -26 18 -65 20 -91 5z m73
-34 c26 -32 -13 -81 -47 -59 -35 22 -23 74 17 74 10 0 23 -7 30 -15z m2 -112
c22 -20 23 -37 2 -57 -21 -22 -61 -20 -74 3 -14 27 -13 37 6 55 20 21 43 20
66 -1z"/>
<path d="M2300 825 c0 -8 28 -29 62 -46 l63 -32 -63 -31 c-34 -16 -62 -36 -62
-43 0 -20 14 -16 91 22 51 26 69 41 67 53 -2 9 -35 34 -73 54 -79 42 -85 44
-85 23z"/>
<path d="M2100 785 c0 -12 15 -15 75 -15 60 0 75 3 75 15 0 12 -15 15 -75 15
-60 0 -75 -3 -75 -15z"/>
<path d="M2100 705 c0 -12 15 -15 75 -15 60 0 75 3 75 15 0 12 -15 15 -75 15
-60 0 -75 -3 -75 -15z"/>
<path d="M9089 373 c-38 -23 -51 -49 -56 -114 -7 -75 2 -122 32 -158 31 -36
65 -47 65 -21 0 10 -8 21 -19 25 -35 11 -54 65 -49 139 4 62 7 71 36 97 48 43
42 64 -9 32z"/>
<path d="M10050 375 c0 -8 5 -15 10 -15 6 0 22 -12 35 -26 22 -24 25 -36 25
-105 0 -76 -1 -79 -35 -113 -31 -32 -44 -56 -30 -56 4 0 19 7 35 15 45 23 60
62 60 152 0 88 -21 136 -66 153 -33 13 -34 13 -34 -5z"/>
<path d="M6960 350 c0 -15 7 -20 25 -20 18 0 25 5 25 20 0 15 -7 20 -25 20
-18 0 -25 -5 -25 -20z"/>
<path d="M400 345 c0 -11 12 -15 52 -15 l52 0 -32 -33 c-40 -41 -40 -52 1 -63
30 -9 32 -13 32 -54 0 -43 -1 -45 -32 -48 -24 -2 -34 2 -43 17 -13 26 -42 29
-33 4 18 -52 75 -69 121 -37 18 12 22 25 22 65 0 45 -3 52 -30 67 l-29 17 31
32 c46 47 34 63 -47 63 -51 0 -65 -3 -65 -15z"/>
<path d="M625 335 c-49 -48 -18 -135 48 -135 l26 0 -24 -43 c-29 -49 -30 -57
-11 -57 20 0 87 123 93 170 11 76 -78 120 -132 65z m89 -21 c24 -24 20 -61 -9
-80 -23 -15 -27 -15 -50 0 -26 17 -32 45 -15 77 13 23 53 25 74 3z"/>
<path d="M3620 340 c-11 -11 -20 -31 -20 -45 0 -20 -5 -25 -25 -25 -16 0 -25
-6 -25 -15 0 -9 9 -15 25 -15 24 0 25 -2 25 -70 0 -63 2 -70 20 -70 18 0 20 7
20 70 l0 70 40 0 c29 0 40 4 40 15 0 11 -11 15 -40 15 -36 0 -40 3 -40 24 0
25 16 36 56 36 15 0 24 6 24 15 0 24 -75 20 -100 -5z"/>
<path d="M5020 230 c0 -123 1 -130 20 -130 18 0 20 7 20 55 0 78 28 78 60 0
16 -39 28 -55 41 -55 24 0 24 9 -3 65 l-22 45 22 20 c30 28 29 74 -3 105 -20
21 -34 25 -80 25 l-55 0 0 -130z m101 90 c21 -12 25 -50 7 -68 -7 -7 -25 -12
-40 -12 -27 0 -28 2 -28 45 0 39 3 45 21 45 11 0 29 -5 40 -10z"/>
<path d="M5500 340 c-11 -11 -20 -31 -20 -45 0 -20 -5 -25 -25 -25 -16 0 -25
-6 -25 -15 0 -9 9 -15 25 -15 24 0 25 -2 25 -70 0 -63 2 -70 20 -70 18 0 20 7
20 70 l0 70 40 0 c29 0 40 4 40 15 0 11 -11 15 -40 15 -36 0 -40 3 -40 24 0
25 16 36 56 36 15 0 24 6 24 15 0 24 -75 20 -100 -5z"/>
<path d="M5860 231 c0 -124 1 -131 20 -131 18 0 20 7 20 60 l0 60 35 0 35 0 0
-60 c0 -53 2 -60 20 -60 19 0 20 7 20 130 0 123 -1 130 -20 130 -18 0 -20 -7
-20 -55 l0 -55 -34 0 -35 0 -3 52 c-2 41 -7 54 -20 56 -16 3 -18 -8 -18 -127z"/>
<path d="M6060 345 c0 -10 10 -15 30 -15 l30 0 0 -115 c0 -108 1 -115 20 -115
19 0 20 7 20 115 l0 115 35 0 c24 0 35 5 35 15 0 12 -16 15 -85 15 -69 0 -85
-3 -85 -15z"/>
<path d="M6270 230 c0 -121 1 -130 19 -130 18 0 19 7 15 103 -4 102 -1 107 26
34 14 -39 32 -30 52 29 l17 49 1 -107 c0 -89 3 -108 15 -108 13 0 15 21 15
130 l0 130 -24 0 c-19 0 -26 -8 -36 -46 -14 -50 -22 -48 -40 9 -9 29 -17 37
-36 37 l-24 0 0 -130z"/>
<path d="M6500 230 l0 -130 75 0 c59 0 75 3 75 15 0 10 -15 15 -57 17 l-58 3
-3 113 c-2 90 -5 112 -17 112 -12 0 -15 -22 -15 -130z"/>
<path d="M6700 268 c0 -51 -3 -110 -6 -131 l-7 -37 57 0 c84 0 96 16 96 129 0
85 -1 91 -26 110 -18 14 -41 21 -70 21 l-44 0 0 -92z m88 46 c19 -13 22 -24
22 -84 0 -76 -14 -100 -56 -100 -24 0 -24 1 -24 100 0 89 2 100 18 100 10 0
28 -7 40 -16z"/>
<path d="M7328 255 c-1 -58 -2 -115 -2 -127 -1 -22 3 -23 77 -26 64 -2 77 0
77 13 0 12 -13 15 -60 15 l-60 0 0 45 0 45 50 0 c38 0 50 4 50 15 0 11 -12 15
-50 15 l-50 0 0 40 0 40 61 0 c44 0 60 3 57 13 -3 8 -30 13 -76 15 l-72 3 -2
-106z"/>
<path d="M7510 345 c0 -10 10 -15 29 -15 l29 0 4 -99 c2 -62 9 -105 17 -115
18 -22 101 -23 101 -1 0 10 -10 15 -28 15 -46 0 -52 15 -52 127 l0 103 -50 0
c-38 0 -50 -4 -50 -15z"/>
<path d="M9600 346 c0 -9 12 -16 33 -18 l32 -3 3 -100 c3 -113 10 -125 74
-125 27 0 38 4 38 15 0 9 -9 15 -24 15 -54 0 -56 4 -56 121 l0 109 -50 0 c-37
0 -50 -4 -50 -14z"/>
<path d="M9810 346 c0 -9 12 -16 33 -18 l32 -3 3 -100 c3 -113 10 -125 74
-125 27 0 38 4 38 15 0 9 -9 15 -24 15 -54 0 -56 4 -56 121 l0 109 -50 0 c-37
0 -50 -4 -50 -14z"/>
<path d="M2768 323 c-2 -22 -9 -29 -30 -31 -39 -5 -37 -32 2 -32 l30 0 0 -68
c0 -40 5 -73 12 -80 18 -18 98 -16 98 3 0 9 -9 15 -24 15 -49 0 -56 8 -56 70
l0 59 37 3 c52 4 56 28 4 28 -39 0 -41 2 -41 30 0 39 -27 41 -32 3z"/>
<path d="M8610 325 c0 -20 -5 -25 -25 -25 -18 0 -25 -5 -25 -20 0 -15 7 -20
25 -20 24 0 25 -3 25 -58 0 -79 17 -102 76 -102 32 0 44 4 44 15 0 9 -9 15
-24 15 -49 0 -56 8 -56 71 l0 59 41 0 c33 0 40 3 37 18 -2 12 -14 18 -41 20
-32 3 -37 7 -37 28 0 17 -5 24 -20 24 -15 0 -20 -7 -20 -25z"/>
<path d="M5723 272 c-94 -47 -95 -61 -3 -107 78 -39 80 -40 80 -22 0 7 -28 27
-62 43 l-63 31 63 32 c34 17 62 38 62 46 0 8 -1 15 -2 14 -2 0 -36 -17 -75
-37z"/>
<path d="M1925 288 c-31 -17 -35 -28 -35 -95 0 -53 3 -64 22 -77 45 -32 128
-9 128 35 0 25 -26 25 -40 -1 -12 -22 -49 -27 -68 -8 -7 7 -12 31 -12 54 0 66
42 95 77 54 20 -23 43 -26 43 -6 0 20 -48 56 -74 56 -11 0 -30 -6 -41 -12z"/>
<path d="M2135 288 c-31 -18 -35 -28 -35 -94 0 -72 17 -94 73 -94 39 0 64 19
73 56 9 35 -2 104 -18 120 -19 19 -70 26 -93 12z m59 -31 c13 -10 17 -24 14
-61 -3 -56 -25 -79 -55 -60 -26 16 -31 104 -7 121 10 7 21 13 24 13 3 0 14 -6
24 -13z"/>
<path d="M2361 291 c-7 -5 -22 -6 -32 -4 -17 5 -19 -1 -21 -66 -1 -39 -2 -81
-2 -93 -1 -14 6 -24 16 -26 15 -3 18 7 20 74 2 60 7 79 21 88 12 8 22 8 35 0
13 -9 18 -28 20 -88 2 -59 6 -76 17 -76 12 0 15 17 15 84 0 76 -2 86 -22 100
-25 18 -46 20 -67 7z"/>
<path d="M2542 284 c-24 -17 -30 -67 -9 -81 6 -4 30 -12 52 -18 30 -7 40 -15
40 -30 0 -27 -50 -33 -76 -9 -27 24 -44 6 -23 -24 12 -18 25 -22 64 -22 41 0
52 4 66 24 25 39 2 78 -56 92 -53 13 -66 40 -25 50 15 4 31 2 38 -5 13 -13 47
-15 47 -2 0 16 -43 41 -70 41 -14 0 -36 -7 -48 -16z"/>
<path d="M3150 200 c0 -94 1 -100 20 -100 19 0 20 4 14 63 -5 52 -3 66 13 86
25 31 63 22 63 -15 0 -17 5 -24 20 -24 15 0 20 7 20 25 0 49 -66 84 -99 53
-11 -10 -14 -10 -18 0 -3 6 -11 12 -19 12 -11 0 -14 -20 -14 -100z"/>
<path d="M3376 279 c-23 -18 -26 -28 -26 -80 0 -73 21 -99 78 -99 35 0 72 22
72 43 0 11 -38 8 -45 -3 -11 -17 -54 -11 -65 9 -18 36 -12 41 50 41 l60 0 0
34 c0 39 -37 76 -75 76 -12 0 -34 -9 -49 -21z m78 -25 c26 -25 19 -34 -29 -34
-25 0 -45 4 -45 9 0 14 30 41 45 41 7 0 21 -7 29 -16z"/>
<path d="M4394 285 c-12 -31 3 -145 21 -165 24 -26 86 -27 108 -2 23 25 25
182 2 182 -11 0 -15 -17 -17 -76 -2 -60 -7 -79 -20 -88 -35 -22 -53 4 -58 84
-5 72 -22 102 -36 65z"/>
<path d="M4632 284 c-24 -17 -30 -67 -9 -81 6 -4 30 -12 52 -18 30 -7 40 -15
40 -30 0 -27 -54 -34 -72 -10 -7 11 -19 15 -29 11 -15 -6 -15 -9 -1 -29 11
-17 26 -23 65 -25 46 -3 53 0 68 24 26 39 4 75 -56 90 -53 13 -66 40 -25 50
17 4 32 1 44 -10 22 -20 41 -21 41 -2 0 20 -39 46 -70 46 -14 0 -36 -7 -48
-16z"/>
<path d="M4852 290 c-12 -5 -27 -22 -33 -37 -14 -37 -6 -109 16 -133 25 -28
88 -27 116 1 28 28 17 35 -31 19 -44 -15 -70 -3 -70 31 0 17 8 19 61 19 l62 0
-6 38 c-10 60 -56 85 -115 62z m66 -32 c24 -24 13 -38 -28 -38 -26 0 -40 5
-40 13 0 18 21 37 40 37 9 0 21 -5 28 -12z"/>
<path d="M5255 275 c-21 -20 -25 -34 -25 -80 0 -69 22 -95 78 -95 35 0 72 22
72 43 0 11 -35 8 -47 -4 -16 -16 -60 -3 -66 20 -7 28 -1 31 60 31 l53 0 0 34
c0 25 -7 40 -26 55 -35 28 -69 26 -99 -4z m89 -27 c14 -24 5 -30 -43 -26 -41
3 -41 3 -25 26 18 26 51 26 68 0z"/>
<path d="M6910 281 c0 -17 6 -21 30 -21 l30 0 0 -65 0 -65 -35 0 c-24 0 -35
-5 -35 -15 0 -12 16 -15 85 -15 69 0 85 3 85 15 0 10 -10 15 -30 15 l-29 0 -3
83 -3 82 -47 3 c-43 3 -48 1 -48 -17z"/>
<path d="M7102 289 c3 -8 18 -54 34 -102 26 -80 30 -88 52 -85 21 3 28 16 53
88 33 99 35 113 12 108 -11 -2 -23 -24 -34 -61 -29 -98 -29 -98 -57 -17 -19
53 -33 76 -46 78 -13 3 -17 0 -14 -9z"/>
<path d="M7766 279 c-23 -18 -26 -28 -26 -80 0 -73 21 -99 78 -99 35 0 72 22
72 43 0 11 -38 8 -45 -3 -11 -17 -54 -11 -65 9 -18 36 -12 41 50 41 l60 0 0
34 c0 39 -37 76 -75 76 -12 0 -34 -9 -49 -21z m78 -25 c26 -25 19 -34 -29 -34
-25 0 -45 4 -45 9 0 14 30 41 45 41 7 0 21 -7 29 -16z"/>
<path d="M7940 199 c0 -81 3 -99 15 -99 12 0 15 15 15 79 0 48 4 83 11 87 19
12 29 -19 29 -93 0 -58 3 -73 15 -73 12 0 15 16 15 85 0 69 3 85 15 85 12 0
15 -16 15 -85 0 -78 2 -85 20 -85 18 0 20 7 20 84 0 64 -4 88 -16 100 -18 18
-40 21 -49 6 -4 -6 -12 -7 -18 -3 -6 4 -29 8 -49 9 l-38 2 0 -99z"/>
<path d="M8195 288 c-31 -17 -35 -28 -35 -94 0 -46 4 -65 18 -77 27 -25 87
-22 114 5 21 21 21 23 4 26 -10 2 -23 -1 -29 -7 -26 -26 -77 -5 -77 31 0 15 9
18 60 18 l60 0 0 30 c0 59 -64 97 -115 68z m63 -30 c24 -24 13 -38 -28 -38
-26 0 -40 5 -40 13 0 18 21 37 40 37 9 0 21 -5 28 -12z"/>
<path d="M8370 200 c0 -82 3 -100 15 -100 12 0 15 14 15 69 0 70 14 101 44
101 26 0 36 -26 36 -97 0 -66 2 -73 20 -73 18 0 20 7 20 68 0 103 -32 147 -90
125 -16 -6 -30 -7 -30 -2 0 5 -7 9 -15 9 -12 0 -15 -18 -15 -100z"/>
<path d="M8790 287 c0 -8 23 -24 51 -37 28 -13 52 -27 55 -32 3 -4 -22 -21
-56 -38 -33 -17 -60 -35 -60 -40 0 -16 16 -12 85 22 49 24 65 37 65 53 0 16
-16 29 -65 53 -75 37 -75 37 -75 19z"/>
<path d="M9256 291 c-3 -4 -17 -6 -31 -3 l-25 4 0 -96 c0 -89 1 -96 20 -96 18
0 20 7 20 73 0 71 10 97 36 97 30 0 44 -31 44 -101 0 -55 3 -69 15 -69 12 0
15 16 15 80 0 67 -3 83 -20 100 -20 20 -64 27 -74 11z"/>
<path d="M10300 285 c-11 -13 -11 -18 2 -31 20 -20 50 -7 46 20 -4 26 -30 32
-48 11z"/>
<path d="M9410 231 c0 -62 13 -110 33 -123 23 -15 77 -8 97 12 16 16 20 33 20
95 0 60 -3 75 -15 75 -12 0 -15 -13 -15 -61 0 -68 -12 -99 -38 -99 -32 0 -42
22 -42 92 0 61 -2 68 -20 68 -18 0 -20 -7 -20 -59z"/>
<path d="M3980 255 c0 -12 15 -15 75 -15 60 0 75 3 75 15 0 12 -15 15 -75 15
-60 0 -75 -3 -75 -15z"/>
<path d="M3980 175 c0 -12 15 -15 75 -15 60 0 75 3 75 15 0 12 -15 15 -75 15
-60 0 -75 -3 -75 -15z"/>
<path d="M1440 75 c0 -43 4 -75 10 -75 6 0 10 32 10 75 0 43 -4 75 -10 75 -6
0 -10 -32 -10 -75z"/>
<path d="M10295 99 c-4 -27 -5 -53 -1 -56 14 -15 34 10 43 56 10 49 9 51 -13
51 -19 0 -23 -7 -29 -51z"/>
</g>
</svg>
