<?xml version="1.0" standalone="no"?>
<!DOCTYPE svg PUBLIC "-//W3C//DTD SVG 20010904//EN"
 "http://www.w3.org/TR/2001/REC-SVG-20010904/DTD/svg10.dtd">
<svg version="1.0" xmlns="http://www.w3.org/2000/svg"
 width="5000.000000pt" height="5000.000000pt" viewBox="0 0 5000.000000 5000.000000"
 preserveAspectRatio="xMidYMid meet">

<g transform="translate(0.000000,5000.000000) scale(0.100000,-0.100000)"
fill="#000000" stroke="none">
<path d="M17700 46529 c-897 -77 -1717 -500 -2289 -1179 -365 -434 -611 -942
-721 -1490 -68 -335 -63 -194 -67 -2247 l-4 -1863 -73 0 c-52 0 -77 -4 -85
-14 -18 -21 -18 -1631 -1 -1651 9 -11 34 -15 86 -15 l74 0 0 -710 0 -710 -74
0 c-51 0 -77 -4 -85 -14 -18 -22 -17 -3216 1 -3245 11 -18 23 -21 85 -21 l73
0 0 -420 0 -420 -68 0 c-115 0 -103 197 -103 -1645 0 -1222 3 -1610 12 -1621
8 -10 34 -14 85 -14 l74 0 3 -11302 2 -11303 22 -145 c111 -754 416 -1384 917
-1899 282 -289 557 -490 916 -670 341 -170 667 -269 1080 -328 119 -17 480
-18 7525 -18 7122 0 7405 1 7535 18 421 58 754 161 1123 349 617 315 1130 828
1445 1445 186 365 279 662 349 1115 17 107 18 747 23 11993 l5 11880 61 3 c52
2 65 7 87 30 l27 28 -10 869 c-12 1105 -12 2335 0 3375 l10 814 -27 28 c-22
23 -36 28 -87 30 l-61 3 -5 3965 c-5 3710 -7 3972 -23 4080 -64 420 -160 734
-328 1070 -180 359 -381 634 -670 916 -558 544 -1277 867 -2074 934 -147 12
-14623 11 -14765 -1z m14850 -107 c272 -39 449 -78 655 -147 699 -230 1290
-677 1695 -1280 291 -435 448 -850 537 -1420 16 -104 18 -1185 21 -18420 2
-13396 0 -18349 -8 -18455 -101 -1306 -975 -2429 -2218 -2849 -238 -80 -520
-139 -777 -161 -172 -14 -14557 -14 -14732 1 -1244 104 -2321 909 -2778 2074
-92 234 -163 516 -202 800 -17 124 -18 948 -18 18495 0 17567 1 18371 18
18495 74 539 237 982 522 1415 548 831 1463 1375 2455 1459 59 4 3279 8 7425
7 5681 -2 7339 -5 7405 -14z"/>
<path d="M17830 46333 c-505 -47 -816 -131 -1215 -328 -322 -158 -594 -353
-850 -610 -508 -508 -814 -1127 -922 -1870 -16 -114 -18 -1050 -21 -18365 -2
-12888 0 -18288 8 -18390 31 -428 127 -788 309 -1165 279 -577 702 -1042 1244
-1367 377 -227 760 -361 1239 -435 107 -16 528 -18 7373 -21 5272 -2 7299 0
7404 8 633 49 1214 276 1731 676 148 114 430 396 544 544 400 517 627 1098
676 1731 8 105 10 5072 8 18414 -3 17205 -5 18276 -21 18380 -76 488 -207 863
-435 1242 -536 893 -1462 1467 -2505 1552 -88 8 -2364 11 -7330 9 -3961 0
-7218 -3 -7237 -5z m14670 -826 c361 -63 674 -185 961 -375 601 -400 978
-1013 1071 -1742 11 -87 13 -3224 13 -18335 0 -17613 -1 -18235 -18 -18365
-149 -1095 -1009 -1950 -2097 -2085 -111 -13 -897 -15 -7342 -15 -7754 0
-7286 -3 -7528 46 -542 110 -1048 422 -1405 870 -271 338 -457 790 -504 1226
-15 137 -15 36519 0 36656 110 1015 871 1863 1872 2086 256 58 -266 54 7607
52 6971 -1 7269 -2 7370 -19z"/>
<path d="M23220 44890 c-266 -40 -497 -254 -555 -515 -25 -113 -17 -284 18
-383 37 -106 82 -176 167 -262 57 -58 95 -85 160 -118 169 -84 -7 -76 1925
-80 1166 -2 1750 0 1812 8 167 19 292 79 408 196 132 132 186 258 193 449 5
147 -11 224 -70 345 -59 119 -169 230 -288 289 -168 83 18 75 -1955 77 -968 1
-1785 -2 -1815 -6z m3360 -755 c0 -8 -4 -15 -9 -15 -13 0 -22 16 -14 24 11 11
23 6 23 -9z"/>
<path d="M24525 1560 c-149 -11 -234 -21 -217 -27 6 -3 12 -11 12 -18 0 -20
83 -24 590 -31 475 -7 921 6 947 28 7 6 33 8 60 4 27 -3 41 -3 33 0 -8 3 -24
9 -35 14 -51 22 -273 32 -755 35 -283 2 -569 0 -635 -5z"/>
<path d="M24236 1516 c10 -8 21 -12 24 -10 5 6 -21 24 -34 24 -6 0 -1 -6 10
-14z"/>
</g>
</svg>
