<svg xmlns="http://www.w3.org/2000/svg" version="1.1" xmlns:xlink="http://www.w3.org/1999/xlink" xmlns:svgjs="http://svgjs.dev/svgjs" width="1000" height="1125" viewBox="0 0 1000 1125"><g transform="matrix(1,0,0,1,0.00007343750002064553,0)"><svg viewBox="0 0 320 360" data-background-color="#190202" preserveAspectRatio="xMidYMid meet" height="1125" width="1000" xmlns="http://www.w3.org/2000/svg" xmlns:xlink="http://www.w3.org/1999/xlink"><g id="tight-bounds" transform="matrix(1,0,0,1,0.000023499999997511622,0)"><svg viewBox="0 0 320 360" height="360" width="320"><g><svg></svg></g><g><svg viewBox="0 0 320 360" height="360" width="320"><g><path transform="translate(-74.99272,-51.79039) scale(4.65793,4.65793)" d="M20.6 59.9l0.8 1-0.4-1.3c-0.1-0.6-0.8 0.1-0.4 0.3M21.5 59.3c0.3 0.5 0.6 1 0.6 1.5 0 0.7 0.6 1 1.1 1.2-0.7-0.8-1.1-3-1.7-2.7M59.9 16.9c1.7 0 3.3-0.2 5.1 0.2 4.4 1.1 8.1 3.3 10.6 6.4l7 11.2c0.3 2.8 0.9 5.9 0.8 9.3 0.7 0 0.6-1 1.4-1.2-0.8 2-1.2 4.5-1.4 7.4-0.5-1.6 0-4 0.1-5.3-0.7 1.1-1.1 0.3-1.1-0.2 0.1-0.8-0.3-0.7-0.6-1-1.1-1-1.8-2.1-2.6-3.8 0.5-1.3 0.6-3.2-1-4.2-0.5-0.3-1.1-0.8-1.4-1.6-0.4-1.1-1.1-2.4-0.9-4.1 0.1-0.5-1.5 1.1-2.4 0.4-3.9-2.7-7.8-5.8-12.5-8.4-2.5 0-4.3-0.9-5.2-2-0.8-1-0.2-2.3 1-2.4 0.7 0 1.5-0.2 2.1 0.2 0.1-0.4 0.5-0.9 1-0.9M50 14.6l0.2 0.1c1 0.2 1.5 1.6 2.6 1.1 0 0.7 0.1 1.4-0.1 1.9-0.3 0.8-1.2 0.8-1.9 0.8-6.7-0.4-10.6 2.4-14.7 4.8-1.1 0.7-2.3 1.2-3.2 2.1-4.3 4-9 7.7-10.1 15.1l-0.9 8.2c-0.1 0.9-1.1 1.8-0.9 2.9l0.7 4.9c-0.7-0.7-1.1 0.2-0.9 0.6 0.1 0.3 0.5 1.3 1.1 0.4 0.8 1.5 1.6 4.4 2.7 5.7 3.4 4 7.8 7.6 11.4 11.2 0.9-0.2 1.6-0.2 1.8-0.8 0.3 0.6-0.3 1.2-0.8 1.3 1.6 1 3.4 1.9 5.8 2.1 3.1 0.2 6 0.7 8.7 1.4 1.4-0.4 2.8-0.6 4.3-0.7 0.5 0 0.8-0.8 1.4-1l0.1-1c0.6 0.9 0.5-0.3 0.1-0.9 0.7 0.6 0.9 1.1 1.2 1.5 0-0.3 0.8-1.4 0.8-0.1l0.2-1.3c0.3-0.2 0.4 1.1 0.7 0.2 0.3-0.9 0.9-0.2 1.5-0.5-0.2 0.4-0.1 1.2 0.6 0.7l0.8-0.7c0.5 1.2 1.3 0.7 1.7 0.5 4.4-2.8 8.8-6.1 13-9.4l-0.1 1.3 0.5-1.6c0.5 0.5 0.9 0.1 1.1-0.2 0.6-1 1.4-2 2.7-2.9-1.6 4.3-3.5 7.7-5.9 10.5l-1 1.2c0 0.7-0.2 1.6-1 1.7-0.4 0.1-1.2-0.2-1.8 0.4-0.3 0.4 0.7 1.2-0.1 0.6-0.7-0.5-1.4 0-2.2 0.2-0.6 0.2 0.4 0.8 0.6 1.2 0.2 0.4 0.4 0.8 0.3 1.3l-1.1-1.2c-1.3 0.7-2.1 2-3.2 3-0.5 0.4-0.3 1.1-0.3 1.7-0.7 0-1.5-0.2-1.9 0.2-0.3 0.4-0.2 1-0.2 1.6-1-0.1-1.1-1.6-2-1.3-0.9 0.2-1.9 0.3-2.7 0.8 0.6 1.2-1 0.5-0.8 0.7-1.5-0.9-2.8-1.6-4.4-1-3.4-1.1-7.6-0.6-10.7-0.2 0-0.5 0.1-1-0.1-1.1-0.2 0.5-0.8 0.3-0.7 0.3-1.9-1.3-3.8-2.1-5.8-3.2-1.8 0.2-3.5-0.7-4-1.2-1.4-1.3-3-0.6-4.3-0.9-2.8-0.7-3.8-3.6-4.1-5.6-0.2-1-1-1.4-1.3-1.3-1.3-4.2-3.3-8-4.9-11.9-0.4-1-0.3-2-0.3-3.1 0.5 0.2 1 0.1 0.9-0.6-0.5-3.3-1.7-5.8-3-8.2 0.7-3.4 0.8-7.4 2.4-10.4 1.4-2.7 4-4.1 5.8-6.4 0.6-0.8 0.6-1.9 1.2-2.6 2-2 4-4.1 6.2-5.9 1-0.8 2.2 0 3.7-0.3 0.5-1.8 2.5-3.4 4.4-2.9 0.8 0.2 2.4-1.9 2.9-2.1 0.8-0.3 0.4 0.8 0.4 1.5 1.9-1.5 4.5-2.3 6.9-3.2" fill="#313523" fill-rule="nonzero" stroke="none" stroke-width="1" stroke-linecap="butt" stroke-linejoin="miter" stroke-miterlimit="10" stroke-dasharray="" stroke-dashoffset="0" font-family="none" font-weight="none" font-size="none" text-anchor="none" style="mix-blend-mode: normal" data-fill-palette-color="tertiary"></path></g><g transform="matrix(1,0,0,1,64,118.15565649002579)"><svg viewBox="0 0 192 123.6886870199484" height="123.6886870199484" width="192"><g><svg viewBox="0 0 192 123.6886870199484" height="123.6886870199484" width="192"><g><svg viewBox="0 0 192 123.6886870199484" height="123.6886870199484" width="192"><g transform="matrix(1,0,0,1,0,73.76398475322105)"><svg viewBox="0 0 192 49.92470226672735" height="49.92470226672735" width="192"><g id="textblocktransform"><svg viewBox="0 0 192 49.92470226672735" height="49.92470226672735" width="192" id="textblock"><g><svg viewBox="0 0 192 32.67485965710818" height="32.67485965710818" width="192"><g transform="matrix(1,0,0,1,0,0)"><svg width="192" viewBox="1.37 -32.52 193.07363636360003 32.86" height="32.67485965710818" data-palette-color="#d9c023"><path d="M17.29-21.58L17.29-21.58Q19.14-21.58 20.46-20.63 21.78-19.68 22.41-18.16L22.41-18.16Q23.83-19.63 25.98-20.61 28.13-21.58 30.57-21.58L30.57-21.58Q32.32-21.58 33.57-20.8 34.81-20.02 35.52-18.63 36.23-17.24 36.55-15.6 36.87-13.96 36.87-12.06L36.87-12.06 36.87-6.93Q36.87-3.96 37.21-2.54L37.21-2.54Q37.3-2.2 38.53-1.83 39.75-1.46 40.19-1.46L40.19-1.46Q40.33-1.46 40.36-0.76 40.38-0.05 40.28 0.2L40.28 0.2Q39.94 0.15 37.72 0 35.5-0.15 34.38-0.15L34.38-0.15Q33.2-0.15 31.03 0 28.86 0.15 28.42 0.2L28.42 0.2Q28.27 0 28.27-0.73 28.27-1.46 28.42-1.46L28.42-1.46Q29-1.46 30.18-1.83 31.35-2.2 31.45-2.54L31.45-2.54Q31.79-4 31.79-5.96L31.79-5.96 31.79-10.94Q31.79-18.02 27.25-18.02L27.25-18.02Q25.63-18.02 24.56-17.24 23.49-16.46 23.29-15.72L23.29-15.72Q23.29-15.58 23.27-15.33 23.24-15.09 23.29-14.94L23.29-14.94Q23.44-13.87 23.44-11.91L23.44-11.91 23.44-6.74Q23.44-3.96 23.78-2.54L23.78-2.54Q23.88-2.2 25.1-1.83 26.32-1.46 26.76-1.46L26.76-1.46Q26.9-1.46 26.93-0.76 26.95-0.05 26.86 0.2L26.86 0.2Q26.51 0.15 24.29 0 22.07-0.15 20.95-0.15L20.95-0.15Q19.78-0.15 17.6 0 15.43 0.15 14.99 0.2L14.99 0.2Q14.84 0 14.84-0.73 14.84-1.46 14.99-1.46L14.99-1.46Q15.58-1.46 16.75-1.83 17.92-2.2 18.02-2.54L18.02-2.54Q18.36-4 18.36-6.1L18.36-6.1 18.36-10.79Q18.36-14.6 17.24-16.31 16.11-18.02 13.92-18.02L13.92-18.02Q12.45-18.02 11.23-17.19 10.01-16.36 10.01-15.33L10.01-15.33 10.01-6.93Q10.01-3.96 10.4-2.54L10.4-2.54Q10.5-2.2 11.67-1.83 12.84-1.46 13.28-1.46L13.28-1.46Q13.48-1.46 13.5-0.76 13.53-0.05 13.43 0.2L13.43 0.2Q13.04 0.15 10.86 0 8.69-0.15 7.57-0.15L7.57-0.15Q6.35-0.15 4.15 0 1.95 0.15 1.56 0.2L1.56 0.2Q1.37 0 1.37-0.73 1.37-1.46 1.56-1.46L1.56-1.46Q2.1-1.46 3.32-1.83 4.54-2.2 4.64-2.54L4.64-2.54Q4.98-4 4.98-6.1L4.98-6.1 4.98-14.06Q4.98-16.36 4.2-17.19L4.2-17.19Q3.81-17.68 3.1-17.92 2.39-18.16 1.9-18.21 1.42-18.26 1.42-18.36L1.42-18.36Q1.42-19.78 1.71-19.82L1.71-19.82Q3.96-20.02 9.52-21.29L9.52-21.29Q9.57-21.34 9.67-21.36 9.77-21.39 9.84-21.39 9.91-21.39 9.91-21.39L9.91-21.39Q10.16-21.39 10.3-21.04 10.45-20.7 10.4-20.51L10.4-20.51Q10.21-19.14 10.21-18.75L10.21-18.75Q10.21-18.55 10.3-18.51L10.3-18.51Q10.35-18.51 10.55-18.65L10.55-18.65Q11.72-19.82 13.55-20.7 15.38-21.58 17.29-21.58ZM50.58-2.83L50.58-2.83Q51.9-2.83 52.85-3.52 53.81-4.2 53.81-5.08L53.81-5.08 53.81-10.06Q53.46-9.91 52.37-9.57 51.27-9.23 50.68-8.98 50.1-8.74 49.31-8.3 48.53-7.86 48.17-7.23 47.8-6.59 47.8-5.86L47.8-5.86Q47.8-4.3 48.58-3.56 49.36-2.83 50.58-2.83ZM52.78-21.58L52.78-21.58Q55.81-21.58 57.32-20 58.84-18.41 58.84-14.55L58.84-14.55 58.84-4.93Q58.84-3.96 59.27-3.44 59.71-2.93 60.45-2.93L60.45-2.93Q61.18-2.93 62.11-3.56L62.11-3.56Q62.4-3.47 62.4-3.03L62.4-3.03Q62.4-2.05 62.11-1.56L62.11-1.56Q61.37-0.98 60.15-0.34 58.93 0.29 57.81 0.29L57.81 0.29Q56.69 0.29 55.61-0.54 54.54-1.37 54.2-2.34L54.2-2.34Q54.15-2.29 53.83-2.03 53.51-1.76 52.95-1.37 52.39-0.98 51.68-0.59 50.97-0.2 50.02 0.07 49.07 0.34 48.09 0.34L48.09 0.34Q45.65 0.34 44.11-1 42.58-2.34 42.58-4.69L42.58-4.69Q42.58-5.86 43.14-6.88 43.7-7.91 44.48-8.57 45.26-9.23 46.58-9.86 47.9-10.5 48.85-10.82 49.8-11.13 51.29-11.57 52.78-12.01 53.37-12.21L53.37-12.21Q53.81-12.4 53.81-12.99L53.81-12.99 53.81-15.67Q53.81-17.38 53.02-18.36 52.24-19.34 50.93-19.34L50.93-19.34Q49.46-19.34 48.63-18.43 47.8-17.53 47.8-15.87L47.8-15.87Q47.8-14.89 47.07-14.43 46.34-13.96 45.41-13.96L45.41-13.96Q43.6-13.96 42.87-15.14L42.87-15.14Q42.87-17.48 46.07-19.53 49.27-21.58 52.78-21.58ZM75.09-21.58L75.09-21.58Q77.68-21.58 79.71-20.73 81.73-19.87 82.61-18.85L82.61-18.85Q82.61-17.19 82.05-16.09 81.49-14.99 80.37-14.99L80.37-14.99Q79.44-14.99 78.88-15.48 78.32-15.97 77.73-17.09L77.73-17.09Q76.61-19.34 74.46-19.34L74.46-19.34Q72.36-19.34 71.11-17.21 69.87-15.09 69.87-11.87L69.87-11.87Q69.87-7.47 71.67-5.35 73.48-3.22 76.26-3.22L76.26-3.22Q77-3.22 77.68-3.3 78.36-3.37 78.95-3.54 79.54-3.71 79.98-3.86 80.41-4 80.88-4.3 81.34-4.59 81.54-4.71 81.73-4.83 82.12-5.1 82.51-5.37 82.51-5.37L82.51-5.37Q82.61-5.32 82.76-5.08 82.91-4.83 82.91-4.59L82.91-4.59Q82.91-4.05 82.61-3.66L82.61-3.66Q81.88-2.34 79.73-1.03 77.58 0.29 74.95 0.29L74.95 0.29Q70.6 0.29 67.55-2.88 64.5-6.05 64.5-10.64L64.5-10.64Q64.5-15.09 67.43-18.33 70.36-21.58 75.09-21.58ZM93.89-2.83L93.89-2.83Q95.21-2.83 96.16-3.52 97.11-4.2 97.11-5.08L97.11-5.08 97.11-10.06Q96.77-9.91 95.67-9.57 94.57-9.23 93.99-8.98 93.4-8.74 92.62-8.3 91.84-7.86 91.47-7.23 91.11-6.59 91.11-5.86L91.11-5.86Q91.11-4.3 91.89-3.56 92.67-2.83 93.89-2.83ZM96.09-21.58L96.09-21.58Q99.11-21.58 100.63-20 102.14-18.41 102.14-14.55L102.14-14.55 102.14-4.93Q102.14-3.96 102.58-3.44 103.02-2.93 103.75-2.93L103.75-2.93Q104.48-2.93 105.41-3.56L105.41-3.56Q105.71-3.47 105.71-3.03L105.71-3.03Q105.71-2.05 105.41-1.56L105.41-1.56Q104.68-0.98 103.46-0.34 102.24 0.29 101.12 0.29L101.12 0.29Q99.99 0.29 98.92-0.54 97.84-1.37 97.5-2.34L97.5-2.34Q97.45-2.29 97.14-2.03 96.82-1.76 96.26-1.37 95.7-0.98 94.99-0.59 94.28-0.2 93.33 0.07 92.38 0.34 91.4 0.34L91.4 0.34Q88.96 0.34 87.42-1 85.88-2.34 85.88-4.69L85.88-4.69Q85.88-5.86 86.44-6.88 87-7.91 87.79-8.57 88.57-9.23 89.89-9.86 91.2-10.5 92.16-10.82 93.11-11.13 94.6-11.57 96.09-12.01 96.67-12.21L96.67-12.21Q97.11-12.4 97.11-12.99L97.11-12.99 97.11-15.67Q97.11-17.38 96.33-18.36 95.55-19.34 94.23-19.34L94.23-19.34Q92.77-19.34 91.94-18.43 91.11-17.53 91.11-15.87L91.11-15.87Q91.11-14.89 90.37-14.43 89.64-13.96 88.71-13.96L88.71-13.96Q86.91-13.96 86.17-15.14L86.17-15.14Q86.17-17.48 89.37-19.53 92.57-21.58 96.09-21.58ZM122.21-21.58L122.21-21.58Q124.89-21.58 126.21-19.97L126.21-19.97Q126.21-15.82 123.87-15.82L123.87-15.82Q122.99-15.82 121.96-16.8 120.94-17.77 119.86-17.77L119.86-17.77Q118.35-17.77 117.49-16.24 116.64-14.7 116.64-13.04L116.64-13.04 116.64-6.93Q116.64-3.96 116.98-2.54L116.98-2.54Q117.08-2.2 118.28-1.83 119.47-1.46 119.91-1.46L119.91-1.46Q120.06-1.46 120.08-0.76 120.11-0.05 120.06 0.2L120.06 0.2Q119.67 0.15 117.47 0 115.27-0.15 114.15-0.15L114.15-0.15Q112.98-0.15 110.76 0 108.53 0.15 108.14 0.2L108.14 0.2Q107.95 0 107.95-0.73 107.95-1.46 108.14-1.46L108.14-1.46Q108.73-1.46 109.93-1.83 111.12-2.2 111.22-2.54L111.22-2.54Q111.56-4 111.56-6.1L111.56-6.1 111.56-14.06Q111.56-16.36 110.78-17.19L110.78-17.19Q110.39-17.68 109.68-17.92 108.97-18.16 108.51-18.21 108.05-18.26 108.05-18.36L108.05-18.36Q108.05-19.78 108.29-19.82L108.29-19.82Q110.54-20.02 116.15-21.29L116.15-21.29Q116.15-21.29 116.32-21.34 116.49-21.39 116.54-21.39L116.54-21.39Q116.74-21.39 116.88-21.04 117.03-20.7 117.01-20.48 116.98-20.26 116.93-19.8 116.88-19.34 116.81-18.82 116.74-18.31 116.74-18.16L116.74-18.16Q117.62-19.48 119.13-20.53 120.64-21.58 122.21-21.58ZM139.29-19.29L139.29-19.29Q137-19.29 135.73-17.07 134.46-14.84 134.46-11.77L134.46-11.77Q134.46-7.81 136.05-4.88 137.63-1.95 140.47-1.95L140.47-1.95Q142.76-1.95 144.05-4.2 145.35-6.45 145.35-9.47L145.35-9.47Q145.35-12.01 144.71-14.18 144.08-16.36 142.66-17.82 141.25-19.29 139.29-19.29ZM139.93-21.58L139.93-21.58Q144.52-21.58 147.77-18.38 151.01-15.19 151.01-10.64L151.01-10.64Q151.01-6.1 147.81-2.88 144.62 0.34 139.98 0.34L139.98 0.34Q135.34 0.34 132.12-2.88 128.89-6.1 128.89-10.64L128.89-10.64Q128.89-15.23 132.09-18.41 135.29-21.58 139.93-21.58ZM169.61-21.58L169.61-21.58Q175.91-21.58 175.91-11.57L175.91-11.57 175.91-6.93Q175.91-3.96 176.25-2.54L176.25-2.54Q176.35-2.2 177.6-1.83 178.84-1.46 179.28-1.46L179.28-1.46Q179.43-1.46 179.45-0.76 179.48-0.05 179.38 0.2L179.38 0.2Q179.09 0.15 176.82 0 174.55-0.15 173.42-0.15L173.42-0.15Q172.25-0.15 170.18 0 168.1 0.15 167.66 0.2L167.66 0.2Q167.47 0 167.47-0.73 167.47-1.46 167.66-1.46L167.66-1.46Q168.2-1.46 169.3-1.83 170.4-2.2 170.49-2.54L170.49-2.54Q170.88-4 170.88-6.1L170.88-6.1 170.88-10.74Q170.88-14.79 169.78-16.41 168.69-18.02 166.29-18.02L166.29-18.02Q164.73-18.02 163.56-17.16 162.39-16.31 162.39-15.33L162.39-15.33 162.39-6.93Q162.39-3.96 162.73-2.54L162.73-2.54Q162.83-2.2 164.02-1.83 165.22-1.46 165.61-1.46L165.61-1.46Q165.81-1.46 165.83-0.76 165.85-0.05 165.76 0.2L165.76 0.2Q165.37 0.15 163.19 0 161.02-0.15 159.9-0.15L159.9-0.15Q158.73-0.15 156.5 0 154.28 0.15 153.89 0.2L153.89 0.2Q153.7 0 153.7-0.73 153.7-1.46 153.89-1.46L153.89-1.46Q154.48-1.46 155.67-1.83 156.87-2.2 156.97-2.54L156.97-2.54Q157.31-4 157.31-6.1L157.31-6.1 157.31-14.06Q157.31-16.36 156.53-17.19L156.53-17.19Q156.14-17.68 155.43-17.92 154.72-18.16 154.26-18.21 153.79-18.26 153.79-18.36L153.79-18.36Q153.79-19.78 154.04-19.82L154.04-19.82Q156.28-20.02 161.9-21.29L161.9-21.29Q161.95-21.34 162.02-21.36 162.09-21.39 162.17-21.39 162.24-21.39 162.29-21.39L162.29-21.39Q162.49-21.39 162.63-21.04 162.78-20.7 162.78-20.51L162.78-20.51Q162.58-19.14 162.58-18.75L162.58-18.75Q162.58-18.55 162.63-18.51L162.63-18.51Q162.68-18.51 162.88-18.65L162.88-18.65Q164.05-19.82 165.88-20.7 167.71-21.58 169.61-21.58ZM185.77-27.37Q184.89-28.27 184.89-29.52 184.89-30.76 185.77-31.64 186.65-32.52 187.92-32.52 189.19-32.52 190.07-31.64 190.95-30.76 190.95-29.52 190.95-28.27 190.07-27.37 189.19-26.46 187.92-26.46 186.65-26.46 185.77-27.37ZM190.85-16.31L190.85-6.93Q190.85-3.96 191.24-2.54L191.24-2.54Q191.34-2.2 192.56-1.83 193.78-1.46 194.22-1.46L194.22-1.46Q194.42-1.46 194.44-0.76 194.46-0.05 194.37 0.2L194.37 0.2Q194.03 0.15 191.75 0 189.48-0.15 188.41-0.15L188.41-0.15Q187.19-0.15 184.97 0 182.75 0.15 182.4 0.2L182.4 0.2Q182.21 0 182.21-0.73 182.21-1.46 182.4-1.46L182.4-1.46Q182.94-1.46 184.16-1.83 185.38-2.2 185.48-2.54L185.48-2.54Q185.82-4 185.82-6.1L185.82-6.1 185.82-14.06Q185.82-16.36 185.04-17.19L185.04-17.19Q184.6-17.68 183.92-17.92 183.23-18.16 182.75-18.21 182.26-18.26 182.26-18.36L182.26-18.36Q182.26-19.78 182.55-19.82L182.55-19.82Q183.92-19.92 186.51-20.41 189.09-20.9 190.36-21.29L190.36-21.29Q190.41-21.29 190.58-21.34 190.75-21.39 190.75-21.39L190.75-21.39Q191-21.39 191.14-21.04 191.29-20.7 191.24-20.51L191.24-20.51Q190.85-17.38 190.85-16.31L190.85-16.31Z" opacity="1" transform="matrix(1,0,0,1,0,0)" fill="#d9c023" class="undefined-text-0" data-fill-palette-color="primary" id="text-0"></path></svg></g></svg></g><g transform="matrix(1,0,0,1,136.75840010511052,37.442905877712036)"><svg viewBox="0 0 55.241599894889475 12.481796389015322" height="12.481796389015322" width="55.241599894889475"><g transform="matrix(1,0,0,1,0,0)"><svg width="55.241599894889475" viewBox="0.3 -39 214.63 48.5" height="12.481796389015322" data-palette-color="#b1dd1d"><path d="M27.75-13.75L27.75-13.75Q27.75-10.5 26.8-7.6 25.85-4.7 24.15-2.75L24.15-2.75Q21.35 0.5 16.1 0.5L16.1 0.5Q13.55 0.5 11.55-0.68 9.55-1.85 8-5.05L8-5.05 6.5 0 4.15 0 4.15-36 0.3-36.95 0.3-39 9-39 9-24.1Q10.5-26 12.35-26.75 14.2-27.5 16.5-27.5L16.5-27.5Q19.05-27.5 21.13-26.75 23.2-26 24.5-24.35L24.5-24.35Q26.05-22.45 26.9-19.7 27.75-16.95 27.75-13.75ZM9-13.7L9-13.7Q9-10.65 9.45-8.4 9.9-6.15 10.75-4.75L10.75-4.75Q11.55-3.5 12.73-2.8 13.9-2.1 15.75-2.1L15.75-2.1Q17.45-2.1 18.73-2.73 20-3.35 20.8-4.45L20.8-4.45Q21.7-5.75 22.1-8.05 22.5-10.35 22.5-13.35L22.5-13.35Q22.5-16.35 22.05-18.6 21.6-20.85 20.75-22.25L20.75-22.25Q19.95-23.55 18.78-24.23 17.6-24.9 15.7-24.9L15.7-24.9Q14-24.9 12.73-24.33 11.45-23.75 10.75-22.6L10.75-22.6Q9.95-21.2 9.47-18.98 9-16.75 9-13.7ZM58.1-24.95L55.05-24 46.75-1.2Q45.35 2.65 44.2 5.03 43.05 7.4 41.65 8.45 40.25 9.5 38.05 9.5L38.05 9.5Q35.7 9.5 34.02 8.25 32.35 7 32.35 5.1L32.35 5.1Q32.35 3.7 33.15 2.78 33.95 1.85 35.25 1.85L35.25 1.85Q36.4 1.85 37.07 2.48 37.75 3.1 37.75 4.2L37.75 4.2Q37.75 4.9 37.47 5.55 37.2 6.2 36.75 6.7L36.75 6.7Q36.85 7.2 37.35 7.38 37.85 7.55 38.2 7.55L38.2 7.55Q38.9 7.55 39.5 7.2 40.1 6.85 40.77 5.73 41.45 4.6 42.25 2.2L42.25 2.2 42.85 0.35 32.5-24 29.5-24.95 29.5-27 40.7-27 41.1-24.95 37.55-24 45-4.4 45.2-4.4 51.5-24 48.6-24.95 48.6-27 58.1-27 58.1-24.95ZM75.44-24.5L70.59-24.5 70.59-26.3 75.44-27 76.09-33.3 80.29-33.9 80.29-27 86.69-27 86.69-24.5 80.29-24.5 80.29-6.65Q80.29-4.95 80.34-4.33 80.39-3.7 80.54-3.3L80.54-3.3Q80.69-2.95 81.09-2.83 81.49-2.7 82.39-2.7L82.39-2.7 85.89-2.7 85.89-1.25Q83.49-0.35 81.67 0.08 79.84 0.5 78.74 0.5L78.74 0.5Q76.49 0.5 75.84-1.35L75.84-1.35Q75.64-1.95 75.54-2.9 75.44-3.85 75.44-5.7L75.44-5.7 75.44-24.5ZM112.04-13.2L112.04-13.2 94.59-13.2Q94.59-9.55 95.59-7.15L95.59-7.15Q96.59-4.85 98.44-3.85 100.29-2.85 102.44-2.85L102.44-2.85Q104.79-2.85 106.74-3.83 108.69-4.8 110.24-6.5L110.24-6.5 111.84-5.3Q110.09-2.9 107.59-1.2 105.09 0.5 101.14 0.5L101.14 0.5Q97.69 0.5 95.04-0.98 92.39-2.45 90.99-5.3L90.99-5.3Q90.24-6.85 89.89-8.75 89.54-10.65 89.54-12.8L89.54-12.8Q89.54-19.8 92.77-23.65 95.99-27.5 101.54-27.5L101.54-27.5Q106.64-27.5 109.41-24.33 112.19-21.15 112.19-15.55L112.19-15.55Q112.19-15.05 112.16-14.63 112.14-14.2 112.04-13.2ZM101.24-24.8L101.24-24.8Q95.24-24.8 94.64-15.65L94.64-15.65 107.14-15.65 107.14-17.3Q107.14-20.9 105.61-22.85 104.09-24.8 101.24-24.8ZM116.29-5.85L116.29-5.85Q116.29-9.75 119.94-12 123.59-14.25 132.04-15.5L132.04-15.5Q131.84-18.45 131.49-20.1 131.14-21.75 130.59-22.75L130.59-22.75Q129.89-24.05 128.64-24.68 127.39-25.3 125.94-25.3L125.94-25.3Q124.54-25.3 123.41-24.8 122.29-24.3 121.89-23.45L121.89-23.45Q122.59-22.95 122.91-22.15 123.24-21.35 123.24-20.65L123.24-20.65Q123.24-19.4 122.41-18.68 121.59-17.95 120.39-17.95L120.39-17.95Q119.19-17.95 118.41-18.75 117.64-19.55 117.64-21L117.64-21Q117.64-23.1 119.09-24.55 120.54-26 122.76-26.75 124.99-27.5 127.24-27.5L127.24-27.5Q129.29-27.5 131.01-26.88 132.74-26.25 133.94-25.05L133.94-25.05Q137.04-21.95 137.04-14.05L137.04-14.05 137.04-6.8Q137.04-4.35 137.36-3.4 137.69-2.45 138.79-2.45L138.79-2.45 141.04-2.45 141.04-0.95Q137.44 0.5 135.44 0.5L135.44 0.5Q133.89 0.5 133.36-0.63 132.84-1.75 132.84-4.95L132.84-4.95 132.64-4.95Q131.09-2.4 128.54-0.95 125.99 0.5 123.04 0.5L123.04 0.5Q119.89 0.5 118.09-1.2 116.29-2.9 116.29-5.85ZM125.14-2.4L125.14-2.4Q126.54-2.4 128.06-3.13 129.59-3.85 130.64-5.15L130.64-5.15Q131.44-6.15 131.81-7.53 132.19-8.9 132.19-10.75L132.19-10.75Q132.19-11.6 132.14-12.43 132.09-13.25 131.99-14L131.99-14Q127.94-13.2 125.64-12.28 123.34-11.35 122.39-10.08 121.44-8.8 121.44-6.9L121.44-6.9Q121.44-4.75 122.41-3.58 123.39-2.4 125.14-2.4ZM143.04-2.05L146.89-3 146.89-24 143.04-24.95 143.04-27 150.24-27 151.34-22 151.54-22Q152.99-24.5 155.41-26 157.84-27.5 160.59-27.5L160.59-27.5Q162.64-27.5 164.24-26.73 165.84-25.95 166.59-24.8L166.59-24.8Q167.39-23.55 167.89-21.5L167.89-21.5Q169.49-24.3 172.04-25.9 174.59-27.5 177.49-27.5L177.49-27.5Q179.49-27.5 181.09-26.73 182.69-25.95 183.54-24.6L183.54-24.6Q184.14-23.65 184.49-22.15 184.84-20.65 184.99-18.28 185.14-15.9 185.14-12.25L185.14-12.25 185.14-3 188.99-2.05 188.99 0 176.94 0 176.94-2.05 180.29-3 180.29-14.15Q180.29-17.4 180.11-19 179.94-20.6 179.49-21.5L179.49-21.5Q178.89-22.7 177.81-23.33 176.74-23.95 175.29-23.95L175.29-23.95Q174.04-23.95 172.84-23.45 171.64-22.95 170.69-22.1L170.69-22.1Q169.59-21.1 169.06-19.75 168.54-18.4 168.44-16.35L168.44-16.35 168.44-3 171.79-2.05 171.79 0 160.24 0 160.24-2.05 163.59-3 163.59-14.15Q163.59-17.4 163.41-19 163.24-20.6 162.79-21.5L162.79-21.5Q162.19-22.7 161.11-23.33 160.04-23.95 158.59-23.95L158.59-23.95Q157.34-23.95 156.14-23.45 154.94-22.95 153.99-22.1L153.99-22.1Q152.89-21.1 152.36-19.75 151.84-18.4 151.74-16.35L151.74-16.35 151.74-3 155.09-2.05 155.09 0 143.04 0 143.04-2.05ZM203.08-2.7L203.08-2.7Q203.08-1.25 202.48-0.38 201.88 0.5 200.53 0.5L200.53 0.5Q199.13 0.5 198.53-0.35 197.93-1.2 197.93-2.75L197.93-2.75Q197.93-4.85 198.58-7.65 199.23-10.45 200.38-13.6 201.53-16.75 203.11-19.93 204.68-23.1 206.51-26.03 208.33-28.95 210.28-31.25L210.28-31.25 195.53-31.25 194.58-25.4 191.98-25.4 191.98-36 214.93-36 214.93-32.95Q212.43-30 210.28-26.33 208.13-22.65 206.51-18.6 204.88-14.55 203.98-10.48 203.08-6.4 203.08-2.7Z" opacity="1" transform="matrix(1,0,0,1,0,0)" fill="#b1dd1d" class="undefined-text-1" data-fill-palette-color="secondary" id="text-1"></path></svg></g></svg></g></svg></g></svg></g><g transform="matrix(1,0,0,1,58.287828270230264,0)"><svg viewBox="0 0 75.42434345953947 68.9959385326172" height="68.9959385326172" width="75.42434345953947"><g><svg xmlns="http://www.w3.org/2000/svg" data-name="Layer 3" viewBox="12.178344827772754 13.145313736612756 78.44189834845781 71.75630769308984" x="0" y="0" height="68.9959385326172" width="75.42434345953947" class="icon-icon-0" data-fill-palette-color="accent" id="icon-0"><path d="M68.59 32.24a7.37 7.37 0 0 1 1.2-8.44 0.5 0.5 0 0 1 0.73 0l2 2.24a0.5 0.5 0 0 1 0 0.66 3.34 3.34 0 0 0 2.84 5.47 0.48 0.48 0 0 1 0.53 0.37l0.66 3a0.49 0.49 0 0 1-0.39 0.6 6.54 6.54 0 0 1-1.08 0.08A7.37 7.37 0 0 1 68.59 32.24ZM48.6 18a0.48 0.48 0 0 0 0.65 0 3.34 3.34 0 0 1 5.57 2.64 0.5 0.5 0 0 0 0.39 0.53l3 0.55a0.5 0.5 0 0 0 0.59-0.43 7.34 7.34 0 0 0-12.54-5.94 0.51 0.51 0 0 0 0 0.73ZM34.23 32.58a6.79 6.79 0 0 0 1.1-0.08 0.5 0.5 0 0 0 0.4-0.6l-0.67-3a0.49 0.49 0 0 0-0.54-0.37 3.34 3.34 0 0 1-2.86-5.46 0.5 0.5 0 0 0 0-0.66l-2.05-2.23a0.49 0.49 0 0 0-0.72 0 7.34 7.34 0 0 0 5.33 12.38ZM22.38 60a0.5 0.5 0 0 0 0.24-0.69l-1.38-2.7a0.51 0.51 0 0 0-0.62-0.22 3.34 3.34 0 0 1-4.12-4.58 0.5 0.5 0 0 0-0.15-0.64l-2.54-1.66a0.51 0.51 0 0 0-0.71 0.17A7.34 7.34 0 0 0 22.38 60Zm3.83 13l2.71 1.37a0.49 0.49 0 0 0 0.62-0.19 3.34 3.34 0 0 1 6 1.27 0.5 0.5 0 0 0 0.5 0.42l3-0.15a0.51 0.51 0 0 0 0.48-0.55A7.35 7.35 0 0 0 26 72.27 0.5 0.5 0 0 0 26.21 73ZM58.6 75.5l-2.54-1.65a0.5 0.5 0 0 0-0.71 0.16 7.34 7.34 0 0 0 9.31 10.3 0.5 0.5 0 0 0 0.23-0.69l-1.38-2.69a0.49 0.49 0 0 0-0.62-0.22 3.34 3.34 0 0 1-4.13-4.58A0.49 0.49 0 0 0 58.6 75.5Zm21.23-4.15a0.5 0.5 0 0 0 0.37-0.63l-0.79-2.92a0.51 0.51 0 0 0-0.56-0.35 3.34 3.34 0 0 1-3.09-5.33 0.48 0.48 0 0 0 0-0.65L73.6 59.32a0.5 0.5 0 0 0-0.72 0 7.34 7.34 0 0 0 5.54 12.15A7.47 7.47 0 0 0 79.83 71.35Zm10-26l-2.89 0.89a0.5 0.5 0 0 0-0.33 0.57A3.33 3.33 0 0 1 81.37 50a0.5 0.5 0 0 0-0.66 0.05l-2.07 2.2a0.5 0.5 0 0 0 0 0.73 7.38 7.38 0 0 0 4.63 1.64 7.34 7.34 0 0 0 7.16-9A0.51 0.51 0 0 0 89.82 45.3Zm-55 1.16a7.38 7.38 0 0 0 8.37 1.64A7.58 7.58 0 0 0 45 47a7.28 7.28 0 0 0 0.41 2.87 0.5 0.5 0 0 0 0.68 0.27l2.76-1.23a0.49 0.49 0 0 0 0.26-0.6 3.34 3.34 0 0 1 4.78-3.88 0.52 0.52 0 0 0 0.67-0.13l1.78-2.43a0.51 0.51 0 0 0-0.13-0.72 7.33 7.33 0 0 0-8.5 0.51l-0.16 0.15a6 6 0 0 0 0-1 0.5 0.5 0 0 0-0.58-0.44l-3 0.5a0.51 0.51 0 0 0-0.4 0.52 3.34 3.34 0 0 1-5.61 2.55 0.49 0.49 0 0 0-0.65 0L34.9 45.74A0.5 0.5 0 0 0 34.84 46.46Zm7 15.43l2.5 1.71a0.51 0.51 0 0 0 0.72-0.15A7.35 7.35 0 0 0 36 52.94a0.5 0.5 0 0 0-0.25 0.69L37 56.35a0.48 0.48 0 0 0 0.61 0.23 3.35 3.35 0 0 1 4 4.67A0.49 0.49 0 0 0 41.82 61.89ZM52.69 49a0.48 0.48 0 0 0 0.07 0.72l2.37 1.88a0.48 0.48 0 0 0 0.65 0 3.34 3.34 0 0 1 5.65 2.46 0.5 0.5 0 0 0 0.41 0.52l3 0.46a0.51 0.51 0 0 0 0.58-0.45A7.34 7.34 0 0 0 52.69 49ZM51.3 65.64a0.51 0.51 0 0 0-0.4 0.52l0.27 3a0.5 0.5 0 0 0 0.57 0.45 7.33 7.33 0 0 0 5.61-4.52 7.36 7.36 0 0 0 5.22 2.19 7.22 7.22 0 0 0 2.29-0.37 0.5 0.5 0 0 0 0.29-0.67L64 63.46a0.5 0.5 0 0 0-0.6-0.27 3.34 3.34 0 0 1-3.73-4.9 0.51 0.51 0 0 0-0.11-0.67l-2.37-1.85a0.51 0.51 0 0 0-0.73 0.11 7.48 7.48 0 0 0-0.69 1.35A7.45 7.45 0 0 0 54.08 56a0.49 0.49 0 0 0-0.68 0.24L52.14 59a0.49 0.49 0 0 0 0.2 0.62 3.33 3.33 0 0 1-1 6.07Z" fill="#ddfb1c" data-fill-palette-color="accent"></path></svg></g></svg></g><g></g></svg></g></svg></g></svg></g></svg></g><defs></defs></svg><rect width="320" height="360" fill="none" stroke="none" visibility="hidden"></rect></g></svg></g></svg>